<svg width="340" height="339" viewBox="0 0 340 339" fill="none" xmlns="http://www.w3.org/2000/svg">
<path d="M163.383 297.313C216.375 297.313 259.333 290.685 259.333 282.509C259.333 274.333 216.375 267.705 163.383 267.705C110.391 267.705 67.4321 274.333 67.4321 282.509C67.4321 290.685 110.391 297.313 163.383 297.313Z" fill="#FFDEDC"/>
<path d="M106.132 252.698L105.632 253.778C105.315 254.461 105.612 255.271 106.295 255.587L132.182 267.581C132.865 267.898 133.675 267.601 133.991 266.918L134.491 265.838C134.808 265.155 134.511 264.345 133.828 264.029L107.941 252.034C107.258 251.718 106.448 252.015 106.132 252.698Z" fill="#272727"/>
<path d="M106.678 243.789L119.56 247.179L136.961 255.243L133.991 261.657C133.718 262.244 133.225 262.698 132.618 262.92C132.011 263.143 131.34 263.115 130.754 262.844L107.847 252.233L106.678 243.789Z" fill="white"/>
<path d="M131.774 263.742C131.323 263.742 130.878 263.644 130.469 263.454L107.227 252.691L105.871 242.86L119.851 246.551L137.863 254.928L134.605 261.959C134.351 262.494 133.95 262.946 133.449 263.262C132.947 263.578 132.367 263.744 131.774 263.742ZM108.471 251.772L131.038 262.23C131.249 262.329 131.477 262.386 131.71 262.396C131.942 262.406 132.174 262.37 132.393 262.29C132.611 262.21 132.812 262.087 132.983 261.929C133.153 261.771 133.291 261.581 133.388 261.369L136.076 255.569L119.329 247.809L107.488 244.694L108.471 251.772Z" fill="#272727"/>
<path d="M109.658 257.138L95.0063 250.358C94.4676 250.109 94.05 249.655 93.8453 249.098C93.6406 248.54 93.6656 247.924 93.9147 247.385C94.9402 245.174 96.8018 243.46 99.0903 242.621C101.379 241.782 103.907 241.886 106.119 242.91C107.214 243.418 108.199 244.136 109.016 245.024C109.834 245.912 110.469 246.952 110.884 248.086C111.3 249.219 111.488 250.423 111.438 251.629C111.388 252.835 111.101 254.019 110.594 255.115L109.658 257.138Z" fill="#272727"/>
<path d="M224.976 114.206L217.46 114.663C214.026 114.872 210.65 113.708 208.074 111.428C205.498 109.148 203.933 105.937 203.724 102.503L203.3 95.5167C203.208 94.0052 203.415 92.4904 203.909 91.0589C204.403 89.6274 205.174 88.3073 206.178 87.1739C207.183 86.0406 208.4 85.1162 209.762 84.4537C211.124 83.7911 212.603 83.4034 214.114 83.3127L219.972 82.9567C224.211 82.7027 228.377 84.1417 231.555 86.9576C234.733 89.7736 236.664 93.736 236.922 97.9744L237.078 100.551C237.284 103.966 236.124 107.324 233.855 109.885C231.585 112.445 228.391 114 224.976 114.206Z" fill="#272727"/>
<path d="M96.6507 283.404C96.4891 283.406 96.3321 283.351 96.2078 283.248C96.0835 283.145 96.0001 283 95.9727 282.841L77.7921 178.426L50.0619 282.787C50.0116 282.955 49.8982 283.097 49.7454 283.183C49.5927 283.269 49.4125 283.293 49.2428 283.249C49.073 283.205 48.9268 283.097 48.8349 282.948C48.743 282.799 48.7126 282.619 48.75 282.448L78.0633 172.107L97.3185 282.621C97.3492 282.797 97.3095 282.977 97.208 283.124C97.1065 283.27 96.9513 283.371 96.7761 283.404C96.7344 283.408 96.6924 283.408 96.6507 283.404Z" fill="#272727"/>
<path d="M202.252 165.829H64.9676C63.3219 165.829 61.9878 167.163 61.9878 168.809V172.287C61.9878 173.933 63.3219 175.267 64.9676 175.267H202.252C203.898 175.267 205.232 173.933 205.232 172.287V168.809C205.232 167.163 203.898 165.829 202.252 165.829Z" fill="#272727"/>
<path d="M192.791 67.5086H168.437C164.9 67.5086 162.033 70.3756 162.033 73.9123C162.033 77.449 164.9 80.316 168.437 80.316H192.791C196.327 80.316 199.194 77.449 199.194 73.9123C199.194 70.3756 196.327 67.5086 192.791 67.5086Z" fill="white"/>
<path d="M192.794 80.9905H168.437C167.494 81.0112 166.557 80.8433 165.68 80.4967C164.803 80.1502 164.004 79.632 163.329 78.9725C162.655 78.313 162.12 77.5256 161.754 76.6563C161.389 75.7871 161.2 74.8535 161.2 73.9105C161.2 72.9675 161.389 72.034 161.754 71.1647C162.12 70.2955 162.655 69.508 163.329 68.8485C164.004 68.189 164.803 67.6708 165.68 67.3243C166.557 66.9777 167.494 66.8099 168.437 66.8305H192.794C193.737 66.8099 194.674 66.9777 195.551 67.3243C196.428 67.6708 197.227 68.189 197.901 68.8485C198.575 69.508 199.111 70.2955 199.477 71.1647C199.842 72.034 200.031 72.9675 200.031 73.9105C200.031 74.8535 199.842 75.7871 199.477 76.6563C199.111 77.5256 198.575 78.313 197.901 78.9725C197.227 79.632 196.428 80.1502 195.551 80.4967C194.674 80.8433 193.737 81.0112 192.794 80.9905ZM168.437 68.1865C167.673 68.1679 166.914 68.3022 166.203 68.5815C165.493 68.8608 164.845 69.2795 164.298 69.8129C163.752 70.3462 163.318 70.9835 163.021 71.6872C162.725 72.391 162.572 73.1469 162.572 73.9105C162.572 74.6741 162.725 75.4301 163.021 76.1338C163.318 76.8375 163.752 77.4748 164.298 78.0082C164.845 78.5415 165.493 78.9602 166.203 79.2395C166.914 79.5188 167.673 79.6531 168.437 79.6345H192.794C193.557 79.6531 194.317 79.5188 195.028 79.2395C195.738 78.9602 196.386 78.5415 196.932 78.0082C197.479 77.4748 197.913 76.8375 198.21 76.1338C198.506 75.4301 198.659 74.6741 198.659 73.9105C198.659 73.1469 198.506 72.391 198.21 71.6872C197.913 70.9835 197.479 70.3462 196.932 69.8129C196.386 69.2795 195.738 68.8608 195.028 68.5815C194.317 68.3022 193.557 68.1679 192.794 68.1865H168.437Z" fill="#272727"/>
<path d="M172.607 76.9972L170.871 76.0819C170.846 76.0685 170.817 76.0616 170.788 76.0616C170.759 76.0616 170.731 76.0685 170.705 76.0819L168.969 76.9972C168.94 77.012 168.907 77.0184 168.874 77.0155C168.841 77.0127 168.809 77.0008 168.783 76.9812C168.756 76.9615 168.735 76.9349 168.723 76.9042C168.71 76.8736 168.706 76.84 168.712 76.8074L169.051 74.8751C169.055 74.8461 169.052 74.8166 169.043 74.7889C169.033 74.7613 169.018 74.7362 168.997 74.7157L167.593 73.3597C167.569 73.3368 167.552 73.3076 167.544 73.2754C167.536 73.2433 167.537 73.2096 167.548 73.1781C167.558 73.1466 167.577 73.1186 167.602 73.0974C167.628 73.0762 167.659 73.0625 167.691 73.058L169.634 72.7733C169.662 72.7698 169.689 72.7593 169.712 72.7427C169.735 72.7261 169.754 72.704 169.766 72.6784L170.637 70.9189C170.652 70.8888 170.674 70.8633 170.702 70.8454C170.731 70.8276 170.763 70.8181 170.797 70.8181C170.83 70.8181 170.863 70.8276 170.891 70.8454C170.919 70.8633 170.942 70.8888 170.956 70.9189L171.824 72.6784C171.837 72.7041 171.856 72.7262 171.88 72.7427C171.903 72.7593 171.931 72.7698 171.959 72.7733L173.899 73.058C173.931 73.0625 173.962 73.0762 173.988 73.0974C174.013 73.1186 174.032 73.1466 174.042 73.1781C174.053 73.2096 174.054 73.2433 174.046 73.2754C174.038 73.3076 174.021 73.3368 173.997 73.3597L172.593 74.7157C172.573 74.7363 172.558 74.7616 172.549 74.7893C172.54 74.817 172.538 74.8464 172.543 74.8751L172.882 76.8074C172.89 76.8424 172.887 76.8791 172.874 76.9126C172.861 76.9461 172.838 76.9749 172.809 76.9954C172.779 77.0158 172.744 77.0269 172.708 77.0273C172.672 77.0276 172.637 77.0171 172.607 76.9972Z" fill="#F1AFAB"/>
<path d="M182.434 76.9971L180.698 76.0818C180.673 76.0684 180.644 76.0615 180.615 76.0615C180.586 76.0615 180.558 76.0684 180.532 76.0818L178.797 76.9971C178.767 77.0129 178.733 77.0199 178.7 77.0175C178.666 77.0152 178.634 77.0034 178.607 76.9836C178.58 76.9639 178.559 76.9368 178.546 76.9057C178.533 76.8745 178.53 76.8404 178.536 76.8073L178.875 74.875C178.88 74.8463 178.878 74.8167 178.869 74.7889C178.86 74.7611 178.845 74.7359 178.824 74.7156L177.42 73.3596C177.396 73.3367 177.38 73.3075 177.371 73.2753C177.363 73.2432 177.365 73.2095 177.375 73.178C177.385 73.1465 177.404 73.1185 177.429 73.0973C177.455 73.0761 177.486 73.0624 177.519 73.0579L179.461 72.7732C179.489 72.7697 179.516 72.7592 179.539 72.7426C179.562 72.726 179.581 72.7039 179.593 72.6783L180.461 70.9188C180.476 70.8888 180.499 70.8636 180.527 70.8459C180.556 70.8282 180.589 70.8189 180.622 70.8189C180.656 70.8189 180.688 70.8282 180.717 70.8459C180.745 70.8636 180.768 70.8888 180.783 70.9188L181.651 72.6783C181.663 72.7039 181.682 72.726 181.705 72.7426C181.728 72.7592 181.755 72.7697 181.783 72.7732L183.726 73.0579C183.759 73.0624 183.789 73.0761 183.815 73.0973C183.84 73.1185 183.859 73.1465 183.869 73.178C183.88 73.2095 183.881 73.2432 183.873 73.2753C183.865 73.3075 183.848 73.3367 183.824 73.3596L182.421 74.7156C182.4 74.7359 182.384 74.7611 182.375 74.7889C182.366 74.8167 182.364 74.8463 182.37 74.875L182.709 76.8073C182.717 76.8423 182.714 76.879 182.701 76.9125C182.688 76.946 182.665 76.9748 182.636 76.9953C182.606 77.0157 182.571 77.0268 182.535 77.0272C182.499 77.0275 182.464 77.017 182.434 76.9971Z" fill="#F1AFAB"/>
<path d="M192.262 76.9972L190.527 76.0819C190.501 76.0685 190.472 76.0616 190.443 76.0616C190.415 76.0616 190.386 76.0685 190.36 76.0819L188.625 76.9972C188.595 77.0129 188.562 77.02 188.528 77.0176C188.494 77.0153 188.462 77.0035 188.435 76.9837C188.408 76.964 188.387 76.9369 188.374 76.9058C188.362 76.8746 188.358 76.8405 188.364 76.8074L188.703 74.8751C188.708 74.8464 188.705 74.817 188.697 74.7893C188.688 74.7616 188.672 74.7363 188.652 74.7157L187.248 73.3597C187.225 73.3368 187.208 73.3076 187.2 73.2754C187.192 73.2433 187.193 73.2096 187.203 73.1781C187.213 73.1466 187.232 73.1186 187.258 73.0974C187.283 73.0762 187.314 73.0625 187.347 73.058L189.286 72.7733C189.314 72.7695 189.342 72.7589 189.365 72.7424C189.389 72.7258 189.408 72.7039 189.421 72.6784L190.289 70.9189C190.304 70.8888 190.326 70.8633 190.354 70.8454C190.383 70.8276 190.415 70.8181 190.449 70.8181C190.482 70.8181 190.515 70.8276 190.543 70.8454C190.571 70.8633 190.594 70.8888 190.608 70.9189L191.476 72.6784C191.489 72.7039 191.508 72.7258 191.532 72.7424C191.556 72.7589 191.583 72.7695 191.611 72.7733L193.554 73.058C193.587 73.0625 193.618 73.0762 193.643 73.0974C193.668 73.1186 193.687 73.1466 193.698 73.1781C193.708 73.2096 193.709 73.2433 193.701 73.2754C193.693 73.3076 193.676 73.3368 193.652 73.3597L192.245 74.7157C192.225 74.7363 192.209 74.7616 192.201 74.7893C192.192 74.817 192.19 74.8464 192.194 74.8751L192.533 76.8074C192.541 76.8419 192.538 76.8779 192.525 76.9108C192.512 76.9436 192.49 76.972 192.461 76.9922C192.432 77.0125 192.398 77.0238 192.362 77.0247C192.327 77.0255 192.292 77.016 192.262 76.9972Z" fill="#F1AFAB"/>
<path d="M175.763 86.9943H89.4873C85.8888 86.9943 82.9717 89.9114 82.9717 93.5099V146.831C82.9717 150.43 85.8888 153.347 89.4873 153.347H175.763C179.361 153.347 182.278 150.43 182.278 146.831V93.5099C182.278 89.9114 179.361 86.9943 175.763 86.9943Z" fill="#272727"/>
<path d="M170.739 92.72H94.5113C91.7684 92.72 89.5449 94.9435 89.5449 97.6864V143.99C89.5449 146.733 91.7684 148.957 94.5113 148.957H170.739C173.482 148.957 175.705 146.733 175.705 143.99V97.6864C175.705 94.9435 173.482 92.72 170.739 92.72Z" fill="white"/>
<path d="M138.639 102.117H117.004C115.083 102.117 113.526 103.674 113.526 105.595V137.844C113.526 139.765 115.083 141.322 117.004 141.322H138.639C140.56 141.322 142.117 139.765 142.117 137.844V105.595C142.117 103.674 140.56 102.117 138.639 102.117Z" fill="#3D3BFF"/>
<path d="M105.783 101.053H98.1452C97.342 101.053 96.6909 101.704 96.6909 102.507V110.145C96.6909 110.948 97.342 111.599 98.1452 111.599H105.783C106.586 111.599 107.237 110.948 107.237 110.145V102.507C107.237 101.704 106.586 101.053 105.783 101.053Z" fill="#3D3BFF"/>
<path d="M105.502 116.558H98.4266C97.468 116.558 96.6909 117.336 96.6909 118.294V125.369C96.6909 126.328 97.468 127.105 98.4266 127.105H105.502C106.46 127.105 107.237 126.328 107.237 125.369V118.294C107.237 117.336 106.46 116.558 105.502 116.558Z" fill="#FFDEDC"/>
<path d="M105.481 132.061H98.4469C97.4771 132.061 96.6909 132.847 96.6909 133.817V140.851C96.6909 141.821 97.4771 142.607 98.4469 142.607H105.481C106.451 142.607 107.237 141.821 107.237 140.851V133.817C107.237 132.847 106.451 132.061 105.481 132.061Z" fill="#F1AFAB"/>
<path d="M170.362 103.561H147.731C147.551 103.561 147.378 103.49 147.251 103.363C147.124 103.235 147.053 103.063 147.053 102.883C147.053 102.703 147.124 102.531 147.251 102.404C147.378 102.277 147.551 102.205 147.731 102.205H170.362C170.542 102.205 170.715 102.277 170.842 102.404C170.969 102.531 171.04 102.703 171.04 102.883C171.04 103.063 170.969 103.235 170.842 103.363C170.715 103.49 170.542 103.561 170.362 103.561Z" fill="#272727"/>
<path d="M170.362 109.836H147.731C147.551 109.836 147.378 109.765 147.251 109.638C147.124 109.51 147.053 109.338 147.053 109.158C147.053 108.978 147.124 108.806 147.251 108.679C147.378 108.552 147.551 108.48 147.731 108.48H170.362C170.542 108.48 170.715 108.552 170.842 108.679C170.969 108.806 171.04 108.978 171.04 109.158C171.04 109.338 170.969 109.51 170.842 109.638C170.715 109.765 170.542 109.836 170.362 109.836Z" fill="#272727"/>
<path d="M163.335 116.081H147.741C147.561 116.081 147.389 116.009 147.262 115.882C147.134 115.755 147.063 115.582 147.063 115.403C147.063 115.223 147.134 115.05 147.262 114.923C147.389 114.796 147.561 114.725 147.741 114.725H163.335C163.515 114.725 163.687 114.796 163.814 114.923C163.942 115.05 164.013 115.223 164.013 115.403C164.013 115.582 163.942 115.755 163.814 115.882C163.687 116.009 163.515 116.081 163.335 116.081Z" fill="#272727"/>
<path d="M159.515 120.799H150.084C148.423 120.799 147.077 122.146 147.077 123.806C147.077 125.467 148.423 126.813 150.084 126.813H159.515C161.175 126.813 162.521 125.467 162.521 123.806C162.521 122.146 161.175 120.799 159.515 120.799Z" fill="#FFDEDC"/>
<path d="M168.8 126.634C170.36 126.634 171.624 125.369 171.624 123.81C171.624 122.25 170.36 120.986 168.8 120.986C167.24 120.986 165.976 122.25 165.976 123.81C165.976 125.369 167.24 126.634 168.8 126.634Z" fill="#FFDEDC"/>
<path d="M133.52 165.829H109.898L119.57 153.347H144.161L133.52 165.829Z" fill="#272727"/>
<path d="M235.664 209.556C235.608 209.556 235.552 209.549 235.498 209.536C235.412 209.514 235.33 209.476 235.259 209.422C235.188 209.369 235.127 209.302 235.082 209.226C235.036 209.149 235.006 209.065 234.993 208.977C234.98 208.888 234.985 208.799 235.007 208.712L243.929 173.456C243.974 173.282 244.086 173.132 244.242 173.041C244.397 172.949 244.582 172.923 244.756 172.968C244.931 173.013 245.08 173.125 245.172 173.281C245.263 173.436 245.289 173.621 245.244 173.795L236.322 209.051C236.284 209.196 236.198 209.325 236.079 209.416C235.96 209.507 235.814 209.557 235.664 209.556Z" fill="#272727"/>
<path d="M186.662 281.923C186.631 281.926 186.601 281.926 186.57 281.923C186.482 281.911 186.396 281.882 186.319 281.837C186.242 281.793 186.174 281.733 186.12 281.662C186.066 281.591 186.027 281.511 186.004 281.424C185.981 281.338 185.975 281.248 185.987 281.16L195.116 213.763C195.128 213.674 195.157 213.589 195.202 213.511C195.247 213.433 195.307 213.365 195.378 213.31C195.45 213.256 195.531 213.216 195.618 213.192C195.705 213.169 195.795 213.163 195.884 213.175C195.973 213.187 196.059 213.216 196.137 213.261C196.215 213.306 196.283 213.366 196.337 213.437C196.392 213.509 196.432 213.59 196.455 213.677C196.478 213.764 196.484 213.854 196.472 213.943L187.333 281.336C187.311 281.499 187.231 281.647 187.107 281.755C186.984 281.863 186.826 281.923 186.662 281.923Z" fill="#272727"/>
<path d="M245.623 137.123L238.746 167.414C238.166 169.969 239.767 172.509 242.321 173.089L247.498 174.265C250.053 174.844 252.593 173.244 253.173 170.69L260.05 140.398C260.63 137.843 259.029 135.303 256.475 134.723L251.298 133.548C248.743 132.968 246.203 134.568 245.623 137.123Z" fill="#F1AFAB"/>
<path d="M236.142 281.923C235.978 281.924 235.818 281.866 235.693 281.759C235.569 281.652 235.487 281.503 235.464 281.34L225.935 213.94C225.91 213.76 225.957 213.577 226.066 213.432C226.176 213.287 226.338 213.192 226.518 213.167C226.698 213.142 226.88 213.189 227.025 213.298C227.17 213.408 227.266 213.57 227.291 213.75L236.817 281.15C236.842 281.328 236.795 281.509 236.687 281.652C236.579 281.796 236.418 281.891 236.24 281.916C236.208 281.922 236.175 281.924 236.142 281.923Z" fill="#272727"/>
<path d="M232.986 259.583H189.686C189.506 259.583 189.334 259.511 189.206 259.384C189.079 259.257 189.008 259.084 189.008 258.905C189.008 258.725 189.079 258.552 189.206 258.425C189.334 258.298 189.506 258.227 189.686 258.227H232.986C233.166 258.227 233.339 258.298 233.466 258.425C233.593 258.552 233.664 258.725 233.664 258.905C233.664 259.084 233.593 259.257 233.466 259.384C233.339 259.511 233.166 259.583 232.986 259.583Z" fill="#272727"/>
<path d="M232.386 197.939H191.347C188.759 197.939 186.662 200.036 186.662 202.624V209.16C186.662 211.747 188.759 213.845 191.347 213.845H232.386C234.973 213.845 237.071 211.747 237.071 209.16V202.624C237.071 200.036 234.973 197.939 232.386 197.939Z" fill="#F1AFAB"/>
<path d="M238.318 94.9879C243.87 94.9879 248.37 90.4878 248.37 84.9365C248.37 79.3853 243.87 74.8852 238.318 74.8852C232.767 74.8852 228.267 79.3853 228.267 84.9365C228.267 90.4878 232.767 94.9879 238.318 94.9879Z" fill="#272727"/>
<path d="M256.774 89.3537C264.225 89.3537 270.266 83.313 270.266 75.8615C270.266 68.41 264.225 62.3693 256.774 62.3693C249.322 62.3693 243.282 68.41 243.282 75.8615C243.282 83.313 249.322 89.3537 256.774 89.3537Z" fill="#272727"/>
<path d="M231.752 103.961C231.752 102.792 231.288 101.671 230.461 100.845C229.635 100.019 228.514 99.5542 227.345 99.5542C227.139 99.5563 226.932 99.5721 226.728 99.6017L225.884 88.035L209.432 89.8012C207.743 89.9812 206.179 90.7799 205.043 92.0435C203.907 93.3072 203.279 94.9464 203.279 96.6456V98.5067C203.294 100.664 202.694 102.78 201.551 104.609L201.52 104.653V104.67C201.395 104.858 201.312 105.071 201.276 105.294C201.24 105.517 201.252 105.745 201.311 105.963C201.37 106.182 201.474 106.385 201.618 106.559C201.762 106.733 201.941 106.875 202.144 106.975L203.29 107.538V111.897C203.289 112.764 203.477 113.62 203.839 114.407C204.202 115.195 204.73 115.894 205.389 116.457C206.047 117.021 206.82 117.435 207.654 117.671C208.488 117.908 209.363 117.96 210.219 117.826L214.443 117.169L215.29 124.413L228.738 122.827L227.826 115.094H227.867L227.376 108.365C228.539 108.357 229.651 107.889 230.471 107.065C231.291 106.24 231.751 105.124 231.752 103.961Z" fill="white"/>
<path d="M214.697 125.166L213.846 117.972L210.321 118.521C209.368 118.67 208.394 118.611 207.467 118.348C206.539 118.084 205.679 117.623 204.947 116.996C204.214 116.369 203.626 115.59 203.223 114.714C202.82 113.838 202.612 112.885 202.612 111.921V107.978L201.842 107.602C201.556 107.463 201.302 107.264 201.098 107.019C200.894 106.774 200.745 106.489 200.659 106.182C200.574 105.868 200.556 105.54 200.605 105.219C200.655 104.898 200.772 104.591 200.947 104.317L200.985 104.26C202.064 102.539 202.629 100.545 202.612 98.5136V96.6524C202.608 94.7859 203.296 92.9842 204.544 91.5955C205.791 90.2068 207.508 89.3296 209.365 89.1334L226.515 87.2927L227.362 98.8831C228.629 98.9087 229.84 99.406 230.759 100.278C231.678 101.149 232.238 102.333 232.331 103.596C232.423 104.859 232.041 106.111 231.259 107.108C230.476 108.104 229.35 108.772 228.101 108.982L228.586 115.664L229.501 123.42L214.697 125.166ZM215.036 116.406L215.89 123.661L227.993 122.233L227.084 114.528H227.152L226.654 107.697H227.379C228.368 107.694 229.316 107.299 230.013 106.598C230.71 105.896 231.101 104.947 231.098 103.958C231.095 102.969 230.7 102.022 229.999 101.324C229.297 100.627 228.348 100.236 227.359 100.239C227.184 100.241 227.01 100.254 226.837 100.28L226.118 100.381L225.257 88.791L209.5 90.486C207.977 90.647 206.567 91.3667 205.544 92.5062C204.52 93.6457 203.955 95.1241 203.958 96.6558V98.5169C203.975 100.807 203.336 103.053 202.117 104.992L202.083 105.046C202.009 105.159 201.959 105.287 201.937 105.421C201.916 105.555 201.923 105.691 201.958 105.822C201.991 105.945 202.05 106.059 202.131 106.157C202.213 106.255 202.314 106.334 202.429 106.389L203.958 107.134V111.918C203.958 112.686 204.124 113.445 204.446 114.143C204.767 114.841 205.235 115.461 205.819 115.961C206.402 116.461 207.087 116.829 207.826 117.039C208.565 117.249 209.341 117.297 210.1 117.179L215.036 116.406Z" fill="#272727"/>
<path d="M207.629 112.606C207.456 112.606 207.284 112.591 207.113 112.562C206.458 112.448 205.851 112.147 205.364 111.694C205.229 111.572 205.148 111.402 205.139 111.221C205.129 111.04 205.192 110.863 205.313 110.728C205.435 110.593 205.605 110.512 205.786 110.502C205.967 110.493 206.145 110.555 206.279 110.677C206.574 110.95 206.939 111.134 207.334 111.209C208.588 111.416 209.575 110.192 209.585 110.192C209.698 110.058 209.858 109.974 210.033 109.956C210.207 109.938 210.381 109.988 210.519 110.096C210.657 110.204 210.748 110.361 210.773 110.534C210.798 110.708 210.755 110.884 210.653 111.026C210.581 111.104 209.385 112.606 207.629 112.606Z" fill="#272727"/>
<path d="M210.405 103.415C210.995 103.415 211.473 102.937 211.473 102.348C211.473 101.758 210.995 101.28 210.405 101.28C209.816 101.28 209.337 101.758 209.337 102.348C209.337 102.937 209.816 103.415 210.405 103.415Z" fill="#272727"/>
<path d="M226.898 106.249C226.537 106.249 226.184 106.142 225.884 105.942C225.584 105.742 225.351 105.457 225.213 105.124C225.075 104.79 225.038 104.424 225.109 104.07C225.179 103.716 225.353 103.391 225.608 103.136C225.863 102.881 226.188 102.707 226.542 102.637C226.896 102.566 227.262 102.603 227.596 102.741C227.929 102.879 228.214 103.112 228.414 103.412C228.614 103.712 228.721 104.065 228.721 104.426C228.721 104.909 228.529 105.373 228.187 105.715C227.845 106.057 227.381 106.249 226.898 106.249ZM226.898 103.958C226.805 103.958 226.715 103.985 226.638 104.037C226.561 104.088 226.501 104.161 226.465 104.247C226.43 104.332 226.421 104.426 226.439 104.517C226.457 104.608 226.501 104.691 226.567 104.756C226.632 104.822 226.716 104.866 226.806 104.884C226.897 104.902 226.991 104.893 227.077 104.858C227.162 104.822 227.235 104.762 227.287 104.686C227.338 104.609 227.365 104.518 227.365 104.426C227.365 104.302 227.316 104.183 227.228 104.095C227.141 104.007 227.022 103.958 226.898 103.958Z" fill="#272727"/>
<path d="M215.982 122.583L236.613 121.647C239.699 121.474 242.728 122.528 245.041 124.579C248.014 127.291 250.339 132.271 247.102 141.322L242.546 149.814L216.782 146.696L212.331 155.354L196.16 157.201C195.76 157.245 194.523 155.116 194.35 154.849C193.063 152.887 192.225 150.666 191.896 148.343C191.048 141.726 195.964 136.41 199.771 131.573C203.812 126.413 209.181 122.891 215.982 122.583Z" fill="#FFDEDC"/>
<path d="M225.793 105.402C225.633 105.405 225.478 105.352 225.354 105.252C225.23 105.153 225.146 105.012 225.115 104.856C225.023 104.4 225.052 103.928 225.199 103.486C225.347 103.045 225.607 102.65 225.955 102.341C226.292 102.06 226.691 101.862 227.119 101.765C227.546 101.668 227.991 101.673 228.416 101.781C228.502 101.805 228.583 101.846 228.653 101.901C228.723 101.956 228.782 102.024 228.826 102.101C228.87 102.179 228.898 102.264 228.909 102.353C228.92 102.441 228.913 102.531 228.889 102.617C228.866 102.703 228.825 102.783 228.77 102.854C228.715 102.924 228.647 102.983 228.569 103.027C228.492 103.071 228.406 103.099 228.318 103.11C228.229 103.121 228.14 103.114 228.054 103.09C227.846 103.04 227.629 103.038 227.421 103.084C227.212 103.13 227.017 103.224 226.85 103.358C226.681 103.51 226.555 103.703 226.483 103.919C226.412 104.135 226.398 104.366 226.443 104.588C226.461 104.676 226.462 104.766 226.445 104.853C226.428 104.94 226.394 105.024 226.345 105.098C226.296 105.172 226.232 105.236 226.159 105.286C226.085 105.336 226.002 105.371 225.915 105.388C225.874 105.396 225.834 105.4 225.793 105.402Z" fill="#272727"/>
<path d="M209.439 89.8079C209.439 89.8079 209.219 103.466 226.867 99.5881L225.891 88.0417L209.439 89.8079Z" fill="#272727"/>
<path d="M210.653 108.28C207.853 108.28 205.568 105.639 205.568 102.388C205.568 99.1374 207.849 96.4966 210.653 96.4966C213.456 96.4966 215.738 99.1408 215.738 102.388C215.738 105.636 213.456 108.28 210.653 108.28ZM210.653 97.8526C208.599 97.8526 206.924 99.8866 206.924 102.388C206.924 104.89 208.595 106.924 210.653 106.924C212.711 106.924 214.382 104.89 214.382 102.388C214.382 99.8866 212.714 97.8526 210.653 97.8526Z" fill="#272727"/>
<path d="M233.881 179.633H207.968V162.432H231.911C233.603 167.999 234.275 173.826 233.894 179.633H233.881Z" fill="#272727"/>
<path d="M168.552 165.829H155.203C154.459 165.83 153.725 165.658 153.059 165.327C152.393 164.996 151.814 164.514 151.366 163.92C150.919 163.326 150.615 162.636 150.48 161.905C150.346 161.174 150.383 160.421 150.589 159.706C150.869 158.746 151.452 157.903 152.253 157.303C153.053 156.703 154.026 156.38 155.026 156.381H168.725C169.69 156.38 170.63 156.682 171.414 157.243C172.199 157.804 172.788 158.597 173.098 159.51C173.342 160.231 173.41 160.999 173.297 161.752C173.184 162.505 172.894 163.22 172.449 163.837C172.005 164.455 171.419 164.958 170.742 165.304C170.064 165.651 169.313 165.83 168.552 165.829Z" fill="white"/>
<path d="M216.382 146.696L211.995 155.354L186.73 157.869C185.785 157.963 184.833 157.781 183.991 157.344L173.051 151.662C173.051 151.662 169.23 149.523 163.708 151.828L154.406 156.049C154.015 156.217 153.688 156.504 153.469 156.869C153.25 157.234 153.151 157.658 153.186 158.083V158.103C153.209 158.277 153.269 158.443 153.362 158.592C153.455 158.74 153.579 158.867 153.725 158.963C153.871 159.059 154.036 159.123 154.209 159.15C154.383 159.177 154.559 159.167 154.728 159.12L164.576 156.357L159.962 160.53C159.283 161.139 158.809 161.943 158.606 162.832C158.294 164.279 158.671 166.242 162.42 167.137C162.42 167.137 164.145 170.036 167.081 168.493C167.098 168.493 167.515 168.863 167.549 168.886C168.007 169.24 168.497 169.55 169.013 169.812C170.629 170.615 172.397 171.065 174.2 171.131C175.319 171.185 176.37 170.697 176.516 169.483L177.458 169.581C180.396 169.882 183.322 170.314 186.235 170.876L208.517 175.185C214.619 176.05 218.985 174.744 221.213 173.863C227.722 171.29 231.939 166.714 235.322 160.9L241.763 149.811L216.382 146.696Z" fill="white"/>
<path d="M212.5 176.155C211.139 176.152 209.78 176.053 208.432 175.86H208.398L186.102 171.534C183.227 170.978 180.295 170.548 177.387 170.246L177.02 170.209C176.607 171.249 175.529 171.87 174.163 171.802C172.263 171.729 170.4 171.255 168.698 170.409C168.147 170.126 167.621 169.794 167.128 169.419L166.996 169.304L166.972 169.283C164.599 170.276 162.776 168.839 161.993 167.72C157.765 166.612 157.633 164.097 157.925 162.679C158.158 161.648 158.711 160.717 159.504 160.018L161.986 157.774L154.887 159.757C154.626 159.831 154.353 159.847 154.085 159.806C153.817 159.765 153.561 159.667 153.334 159.519C153.107 159.371 152.915 159.177 152.769 158.948C152.624 158.72 152.529 158.463 152.49 158.195C152.43 157.624 152.551 157.048 152.838 156.551C153.125 156.054 153.562 155.661 154.087 155.428L163.426 151.201C169.206 148.787 173.213 150.967 173.383 151.062L184.289 156.73C185.018 157.111 185.843 157.269 186.662 157.184L211.554 154.706L215.988 145.957L242.885 149.265L235.911 161.246C232.02 167.927 227.436 172.138 221.467 174.497C218.61 175.612 215.567 176.174 212.5 176.155ZM208.625 174.517C213.066 175.145 217.219 174.714 220.962 173.236C226.704 170.965 230.952 167.056 234.732 160.564L240.671 150.36L216.782 147.428L212.443 155.991L186.807 158.544C185.732 158.651 184.648 158.443 183.689 157.944L172.763 152.265C172.6 152.177 169.115 150.313 163.993 152.455L154.684 156.666C154.425 156.774 154.206 156.96 154.057 157.198C153.908 157.436 153.837 157.714 153.853 157.994C153.863 158.073 153.89 158.149 153.931 158.217C153.973 158.284 154.028 158.342 154.094 158.386C154.16 158.431 154.235 158.46 154.313 158.473C154.391 158.487 154.471 158.483 154.548 158.462L167.172 154.923L160.43 161.025C159.847 161.533 159.439 162.212 159.264 162.964C158.894 164.676 160.006 165.856 162.572 166.466L162.85 166.534L162.996 166.781C163.142 167.019 164.481 169.083 166.762 167.883C167.189 167.659 167.471 167.91 167.898 168.29L167.976 168.361C168.402 168.682 168.856 168.965 169.332 169.205C170.862 169.961 172.535 170.383 174.241 170.446C174.685 170.466 175.729 170.412 175.847 169.395L175.925 168.717L177.536 168.883C180.482 169.185 183.455 169.622 186.37 170.188L208.625 174.517Z" fill="#272727"/>
<path d="M177.858 277.526H149.328C148.575 277.526 147.965 278.136 147.965 278.889V280.079C147.965 280.831 148.575 281.441 149.328 281.441H177.858C178.611 281.441 179.221 280.831 179.221 280.079V278.889C179.221 278.136 178.611 277.526 177.858 277.526Z" fill="#272727"/>
<path d="M144.714 270.58L157.826 268.241H177.007V275.312C177.007 275.959 176.75 276.579 176.293 277.036C175.836 277.493 175.216 277.75 174.57 277.75H149.321L144.714 270.58Z" fill="white"/>
<path d="M174.57 278.428H148.958L143.592 270.091L157.83 267.563H177.688V275.312C177.688 276.139 177.359 276.931 176.774 277.515C176.189 278.099 175.396 278.428 174.57 278.428ZM149.697 277.072H174.57C175.036 277.071 175.483 276.885 175.813 276.555C176.142 276.225 176.328 275.778 176.329 275.312V268.919H157.887L145.833 271.068L149.697 277.072Z" fill="#272727"/>
<path d="M128.449 254.867L120.567 249.104C119.352 248.218 118.323 247.101 117.539 245.818C116.756 244.534 116.233 243.108 116 241.623C115.768 240.137 115.83 238.62 116.184 237.158C116.537 235.696 117.175 234.318 118.062 233.103L152.402 186.009C153.702 184.227 155.34 182.718 157.223 181.568C159.105 180.419 161.196 179.651 163.376 179.31C165.555 178.969 167.78 179.06 169.924 179.579C172.068 180.098 174.089 181.034 175.871 182.335C177.654 183.634 179.163 185.272 180.313 187.155C181.462 189.038 182.229 191.128 182.571 193.308C182.912 195.487 182.82 197.713 182.301 199.857C181.782 202.001 180.846 204.021 179.546 205.804L145.755 252.158C143.819 254.812 140.908 256.589 137.663 257.097C134.417 257.604 131.103 256.803 128.449 254.867Z" fill="#272727"/>
<path d="M210.388 203.739H150.385V191.949C150.386 187.413 152.189 183.062 155.397 179.855C158.605 176.648 162.955 174.846 167.491 174.846H233.881V180.246C233.881 186.477 231.406 192.453 227 196.858C222.594 201.264 216.619 203.739 210.388 203.739Z" fill="#272727"/>
<path d="M171.607 269.898H161.864C158.827 269.898 155.914 268.692 153.765 266.544C151.617 264.397 150.41 261.484 150.409 258.447V202.292H184.004V257.511C184.005 259.139 183.684 260.751 183.061 262.254C182.438 263.758 181.525 265.124 180.373 266.275C179.222 267.425 177.855 268.337 176.351 268.959C174.847 269.581 173.235 269.9 171.607 269.898Z" fill="#272727"/>
<path d="M132.476 255.104C132.352 255.104 132.23 255.07 132.124 255.005C132.019 254.94 131.933 254.848 131.876 254.738C131.819 254.628 131.793 254.504 131.801 254.381C131.81 254.257 131.852 254.138 131.923 254.036L149.843 228.611C149.946 228.464 150.104 228.365 150.282 228.334C150.459 228.304 150.641 228.345 150.788 228.449C150.935 228.553 151.035 228.711 151.066 228.888C151.096 229.065 151.055 229.248 150.951 229.395L133.032 254.82C132.969 254.908 132.885 254.98 132.788 255.03C132.692 255.079 132.584 255.105 132.476 255.104Z" fill="white"/>
<path d="M173.356 270.451C173.176 270.451 173.004 270.38 172.877 270.252C172.75 270.125 172.678 269.953 172.678 269.773V200.895C172.68 198.344 173.694 195.899 175.497 194.095C177.3 192.291 179.745 191.277 182.296 191.274H208.663C211.433 191.271 214.089 190.17 216.048 188.211C218.007 186.252 219.108 183.596 219.111 180.826V174.846C219.111 174.666 219.182 174.494 219.31 174.367C219.437 174.24 219.609 174.168 219.789 174.168C219.969 174.168 220.141 174.24 220.268 174.367C220.396 174.494 220.467 174.666 220.467 174.846V180.826C220.463 183.956 219.219 186.956 217.006 189.169C214.793 191.382 211.793 192.626 208.663 192.63H182.296C180.105 192.633 178.005 193.505 176.456 195.054C174.907 196.603 174.036 198.704 174.034 200.895V269.773C174.034 269.953 173.963 270.125 173.836 270.252C173.708 270.38 173.536 270.451 173.356 270.451Z" fill="white"/>
<path d="M162.413 167.805C162.267 167.804 162.125 167.756 162.008 167.668C161.892 167.581 161.807 167.457 161.766 167.317C160.193 161.93 165.966 158.601 166.027 158.567C166.104 158.523 166.19 158.494 166.278 158.483C166.367 158.471 166.457 158.477 166.543 158.5C166.629 158.524 166.71 158.564 166.781 158.618C166.852 158.673 166.911 158.741 166.956 158.818C167 158.896 167.029 158.981 167.041 159.07C167.052 159.158 167.046 159.248 167.023 159.335C166.999 159.421 166.959 159.502 166.905 159.572C166.85 159.643 166.782 159.703 166.705 159.747C165.821 160.292 165.027 160.972 164.352 161.761C162.996 163.395 162.552 165.134 163.081 166.937C163.131 167.11 163.111 167.295 163.025 167.453C162.938 167.611 162.793 167.728 162.62 167.778C162.553 167.796 162.483 167.806 162.413 167.805Z" fill="#272727"/>
<path d="M167.078 169.161C166.967 169.161 166.859 169.133 166.761 169.081C166.664 169.029 166.58 168.954 166.518 168.863C166.152 168.365 165.898 167.794 165.774 167.189C165.65 166.584 165.659 165.959 165.8 165.358C166.478 162.503 169.925 160.561 170.075 160.479C170.152 160.43 170.24 160.397 170.331 160.382C170.422 160.367 170.516 160.371 170.605 160.394C170.695 160.417 170.779 160.458 170.852 160.514C170.925 160.57 170.986 160.641 171.031 160.722C171.076 160.803 171.104 160.892 171.113 160.984C171.122 161.076 171.113 161.169 171.085 161.257C171.057 161.345 171.011 161.426 170.95 161.496C170.89 161.566 170.815 161.622 170.732 161.662C170.678 161.696 167.654 163.412 167.118 165.673C167.023 166.091 167.019 166.525 167.109 166.944C167.199 167.363 167.379 167.758 167.637 168.1C167.707 168.202 167.747 168.321 167.755 168.444C167.762 168.567 167.735 168.69 167.677 168.799C167.62 168.908 167.534 169 167.428 169.064C167.322 169.127 167.201 169.161 167.078 169.161Z" fill="#272727"/>
<path d="M176.512 170.178C176.345 170.179 176.184 170.119 176.059 170.009C175.934 169.899 175.854 169.747 175.834 169.582C175.702 168.497 173.495 167.209 172.444 166.764L171.508 166.364L174.756 163.222C174.887 163.107 175.057 163.046 175.231 163.053C175.405 163.06 175.57 163.133 175.691 163.259C175.813 163.384 175.881 163.551 175.882 163.725C175.884 163.9 175.818 164.068 175.698 164.195L173.878 165.958C175.068 166.595 176.987 167.856 177.176 169.419C177.197 169.597 177.147 169.776 177.037 169.917C176.926 170.058 176.764 170.149 176.587 170.171L176.512 170.178Z" fill="#272727"/>
<path d="M153.019 281.445H136.873C136.278 281.445 135.708 281.209 135.288 280.788C134.868 280.368 134.632 279.798 134.632 279.204C134.633 276.766 135.602 274.428 137.326 272.704C139.05 270.98 141.387 270.011 143.826 270.01C146.264 270.01 148.602 270.979 150.326 272.703C152.051 274.427 153.019 276.766 153.019 279.204V281.445Z" fill="#272727"/>
<path d="M215.06 102.097C214.88 102.107 214.703 102.045 214.569 101.924C214.435 101.804 214.354 101.636 214.344 101.456C214.334 101.276 214.396 101.1 214.516 100.966C214.637 100.831 214.805 100.751 214.985 100.741L225.677 99.5575C225.857 99.5377 226.037 99.5902 226.178 99.7033C226.319 99.8165 226.41 99.9811 226.43 100.161C226.449 100.341 226.397 100.521 226.284 100.662C226.171 100.803 226.006 100.894 225.826 100.913L215.134 102.093L215.06 102.097Z" fill="#272727"/>
<path d="M214.524 116.491L215.002 120.559L222.08 115.891C222.13 115.859 222.167 115.811 222.186 115.754C222.204 115.698 222.203 115.637 222.182 115.582C222.161 115.527 222.121 115.48 222.07 115.451C222.019 115.421 221.959 115.41 221.901 115.419L214.524 116.491Z" fill="#272727"/>
<path d="M216.382 147.373C216.288 147.374 216.196 147.356 216.11 147.319C215.948 147.245 215.821 147.11 215.758 146.943C215.694 146.776 215.699 146.591 215.771 146.428L218.551 140.027C218.586 139.944 218.637 139.869 218.7 139.806C218.764 139.743 218.84 139.693 218.923 139.66C219.007 139.626 219.096 139.609 219.186 139.61C219.275 139.612 219.364 139.631 219.447 139.666C219.529 139.702 219.603 139.754 219.666 139.818C219.728 139.883 219.777 139.96 219.809 140.043C219.842 140.127 219.857 140.216 219.855 140.306C219.852 140.396 219.832 140.484 219.795 140.566L217.012 146.967C216.959 147.089 216.87 147.193 216.758 147.265C216.646 147.338 216.515 147.375 216.382 147.373Z" fill="#272727"/>
<path d="M150.602 245.134C150.422 245.134 150.25 245.063 150.123 244.936C149.996 244.809 149.924 244.636 149.924 244.456V189.294C149.924 189.115 149.996 188.942 150.123 188.815C150.25 188.688 150.422 188.616 150.602 188.616C150.782 188.616 150.955 188.688 151.082 188.815C151.209 188.942 151.28 189.115 151.28 189.294V244.456C151.28 244.636 151.209 244.809 151.082 244.936C150.955 245.063 150.782 245.134 150.602 245.134Z" fill="white"/>
<path d="M322.336 101.27H260.675C256.534 101.27 253.177 104.627 253.177 108.768V146.424C253.177 150.566 256.534 153.923 260.675 153.923H322.336C326.478 153.923 329.835 150.566 329.835 146.424V108.768C329.835 104.627 326.478 101.27 322.336 101.27Z" fill="white"/>
<path d="M322.336 154.601H260.676C258.508 154.598 256.43 153.736 254.897 152.203C253.364 150.67 252.502 148.592 252.499 146.424V108.768C252.502 106.6 253.364 104.522 254.897 102.989C256.43 101.457 258.508 100.594 260.676 100.592H322.336C324.504 100.594 326.582 101.457 328.115 102.989C329.648 104.522 330.51 106.6 330.513 108.768V146.424C330.51 148.592 329.648 150.67 328.115 152.203C326.582 153.736 324.504 154.598 322.336 154.601ZM260.676 101.948C258.867 101.949 257.133 102.668 255.855 103.947C254.576 105.226 253.857 106.96 253.855 108.768V146.424C253.857 148.233 254.576 149.967 255.855 151.245C257.133 152.524 258.867 153.243 260.676 153.245H322.336C324.145 153.242 325.878 152.523 327.156 151.244C328.435 149.966 329.154 148.232 329.157 146.424V108.768C329.155 106.96 328.436 105.226 327.157 103.947C325.879 102.668 324.145 101.949 322.336 101.948H260.676Z" fill="#272727"/>
<path d="M294.976 120.521C296.24 120.521 297.264 119.497 297.264 118.233C297.264 116.969 296.24 115.945 294.976 115.945C293.712 115.945 292.688 116.969 292.688 118.233C292.688 119.497 293.712 120.521 294.976 120.521Z" fill="#FFDEDC"/>
<path d="M302.902 120.521C304.165 120.521 305.19 119.497 305.19 118.233C305.19 116.969 304.165 115.945 302.902 115.945C301.638 115.945 300.613 116.969 300.613 118.233C300.613 119.497 301.638 120.521 302.902 120.521Z" fill="#FFDEDC"/>
<path d="M310.831 120.521C312.094 120.521 313.119 119.497 313.119 118.233C313.119 116.969 312.094 115.945 310.831 115.945C309.567 115.945 308.542 116.969 308.542 118.233C308.542 119.497 309.567 120.521 310.831 120.521Z" fill="#FFDEDC"/>
<path d="M318.76 120.521C320.024 120.521 321.048 119.497 321.048 118.233C321.048 116.969 320.024 115.945 318.76 115.945C317.496 115.945 316.472 116.969 316.472 118.233C316.472 119.497 317.496 120.521 318.76 120.521Z" fill="#FFDEDC"/>
<path d="M272.859 129.41C275.314 129.41 277.304 127.42 277.304 124.966C277.304 122.511 275.314 120.521 272.859 120.521C270.405 120.521 268.415 122.511 268.415 124.966C268.415 127.42 270.405 129.41 272.859 129.41Z" fill="#3D3BFF"/>
<path d="M272.466 131.681C270.985 131.671 269.526 132.038 268.225 132.745C266.924 133.453 265.824 134.48 265.028 135.729C267.167 137.421 269.795 138.377 272.521 138.453C275.247 138.53 277.925 137.723 280.154 136.153C279.391 134.787 278.275 133.651 276.922 132.864C275.57 132.078 274.031 131.669 272.466 131.681Z" fill="#3D3BFF"/>
<path d="M321.048 127.464H292.233C292.053 127.464 291.881 127.393 291.754 127.266C291.627 127.138 291.555 126.966 291.555 126.786C291.555 126.606 291.627 126.434 291.754 126.307C291.881 126.18 292.053 126.108 292.233 126.108H321.048C321.228 126.108 321.4 126.18 321.528 126.307C321.655 126.434 321.726 126.606 321.726 126.786C321.726 126.966 321.655 127.138 321.528 127.266C321.4 127.393 321.228 127.464 321.048 127.464Z" fill="#272727"/>
<path d="M321.048 132.786H292.233C292.053 132.786 291.881 132.715 291.754 132.588C291.627 132.461 291.555 132.288 291.555 132.108C291.555 131.929 291.627 131.756 291.754 131.629C291.881 131.502 292.053 131.43 292.233 131.43H321.048C321.228 131.43 321.4 131.502 321.528 131.629C321.655 131.756 321.726 131.929 321.726 132.108C321.726 132.288 321.655 132.461 321.528 132.588C321.4 132.715 321.228 132.786 321.048 132.786Z" fill="#272727"/>
<path d="M310.346 138.116H292.247C292.067 138.116 291.895 138.044 291.767 137.917C291.64 137.79 291.569 137.617 291.569 137.438C291.569 137.258 291.64 137.085 291.767 136.958C291.895 136.831 292.067 136.76 292.247 136.76H310.346C310.526 136.76 310.698 136.831 310.825 136.958C310.953 137.085 311.024 137.258 311.024 137.438C311.024 137.617 310.953 137.79 310.825 137.917C310.698 138.044 310.526 138.116 310.346 138.116Z" fill="#272727"/>
<path d="M272.591 138.773C270.227 138.773 267.915 138.072 265.949 136.758C263.982 135.444 262.45 133.577 261.545 131.392C260.64 129.207 260.403 126.803 260.865 124.484C261.326 122.165 262.465 120.034 264.137 118.362C265.809 116.69 267.939 115.551 270.259 115.09C272.578 114.628 274.982 114.865 277.167 115.77C279.352 116.675 281.219 118.208 282.533 120.174C283.847 122.14 284.548 124.452 284.548 126.817C284.544 129.987 283.283 133.026 281.042 135.267C278.8 137.509 275.761 138.769 272.591 138.773ZM272.591 116.219C270.495 116.219 268.445 116.841 266.702 118.006C264.958 119.171 263.6 120.827 262.797 122.764C261.995 124.701 261.785 126.833 262.195 128.889C262.604 130.946 263.614 132.834 265.097 134.317C266.58 135.799 268.469 136.809 270.525 137.217C272.582 137.626 274.713 137.415 276.65 136.613C278.587 135.81 280.243 134.451 281.407 132.707C282.571 130.963 283.193 128.913 283.192 126.817C283.188 124.007 282.07 121.313 280.083 119.326C278.096 117.339 275.401 116.222 272.591 116.219Z" fill="#272727"/>
<path d="M286.863 174.846H264.496C261.658 174.846 259.357 177.147 259.357 179.985V202.353C259.357 205.191 261.658 207.492 264.496 207.492H286.863C289.702 207.492 292.003 205.191 292.003 202.353V179.985C292.003 177.147 289.702 174.846 286.863 174.846Z" fill="white"/>
<path d="M286.864 208.17H264.49C262.947 208.169 261.467 207.556 260.376 206.465C259.285 205.375 258.671 203.895 258.669 202.353V179.979C258.671 178.436 259.285 176.957 260.376 175.866C261.467 174.775 262.947 174.162 264.49 174.161H286.864C288.406 174.162 289.886 174.775 290.977 175.866C292.068 176.957 292.682 178.436 292.684 179.979V202.353C292.682 203.895 292.068 205.375 290.977 206.465C289.886 207.556 288.406 208.169 286.864 208.17ZM264.49 175.524C263.306 175.525 262.172 175.995 261.335 176.832C260.498 177.668 260.027 178.802 260.025 179.985V202.359C260.027 203.543 260.498 204.677 261.335 205.513C262.172 206.35 263.306 206.82 264.49 206.821H286.864C288.047 206.82 289.181 206.35 290.018 205.513C290.855 204.677 291.326 203.543 291.328 202.359V179.985C291.326 178.802 290.855 177.668 290.018 176.832C289.181 175.995 288.047 175.525 286.864 175.524H264.49Z" fill="#272727"/>
<path d="M270.459 198.895V191.223C270.456 191.086 270.491 190.95 270.56 190.83C270.628 190.711 270.728 190.612 270.849 190.545C271.92 189.945 274.866 187.949 275.209 183.904C275.334 182.443 275.975 181.755 276.649 181.589C277.429 181.399 278.232 182.213 278.344 182.321C280.178 184.233 278.263 188.616 278.087 189.01L280.511 188.945C280.985 188.933 281.457 189.015 281.9 189.185C282.343 189.356 282.748 189.612 283.092 189.939C283.436 190.266 283.711 190.658 283.904 191.092C284.096 191.525 284.201 191.993 284.212 192.467L284.297 195.939C284.309 196.42 284.224 196.898 284.048 197.346C283.872 197.794 283.608 198.202 283.272 198.547C282.936 198.891 282.535 199.164 282.091 199.351C281.648 199.538 281.171 199.634 280.69 199.634H271.219C271.021 199.634 270.83 199.557 270.689 199.419C270.547 199.281 270.464 199.093 270.459 198.895Z" fill="#FFDEDC"/>
<path d="M270.544 189.565H268.279C267.819 189.565 267.445 189.939 267.445 190.399V199.485C267.445 199.945 267.819 200.318 268.279 200.318H270.544C271.004 200.318 271.378 199.945 271.378 199.485V190.399C271.378 189.939 271.004 189.565 270.544 189.565Z" fill="#3D3BFF"/>
<path d="M79.4393 88.2452C83.9308 88.2452 87.5719 84.6041 87.5719 80.1126C87.5719 75.621 83.9308 71.9799 79.4393 71.9799C74.9477 71.9799 71.3066 75.621 71.3066 80.1126C71.3066 84.6041 74.9477 88.2452 79.4393 88.2452Z" fill="#F1AFAB"/>
<path d="M79.8931 103.694C83.9869 95.9192 82.7289 87.2068 77.0831 84.2339C71.4374 81.261 63.542 85.1535 59.4481 92.928C55.3543 100.702 56.6124 109.415 62.2581 112.388C67.9039 115.361 75.7993 111.468 79.8931 103.694Z" fill="#F1AFAB"/>
<path d="M78.0691 132.485C79.7309 120.734 73.3353 110.112 63.7841 108.762C54.2329 107.411 45.1429 115.842 43.4811 127.594C41.8193 139.345 48.2149 149.966 57.7661 151.317C67.3174 152.668 76.4073 144.236 78.0691 132.485Z" fill="#F1AFAB"/>
<path d="M17.6841 114.284C21.8367 114.284 25.2031 110.917 25.2031 106.765C25.2031 102.612 21.8367 99.2457 17.6841 99.2457C13.5314 99.2457 10.165 102.612 10.165 106.765C10.165 110.917 13.5314 114.284 17.6841 114.284Z" fill="#F1AFAB"/>
<path d="M25.765 137.36C31.4289 136.034 34.6219 128.987 32.8968 121.621C31.1717 114.254 25.1818 109.358 19.518 110.684C13.8541 112.011 10.6611 119.057 12.3862 126.424C14.1113 133.79 20.1012 138.687 25.765 137.36Z" fill="#F1AFAB"/>
<path d="M32.8526 170.524C41.0761 169.108 46.33 159.756 44.5874 149.636C42.8447 139.515 34.7655 132.459 26.542 133.875C18.3184 135.291 13.0645 144.643 14.8072 154.764C16.5498 164.884 24.629 171.94 32.8526 170.524Z" fill="#F1AFAB"/>
<path d="M42.6106 204.031C42.4446 204.032 42.2838 203.972 42.1588 203.863C42.0339 203.754 41.9534 203.602 41.9326 203.437C37.929 171.677 26.898 144.075 26.7861 143.814C26.7496 143.731 26.7302 143.641 26.7291 143.55C26.7279 143.46 26.745 143.37 26.7793 143.285C26.8137 143.201 26.8646 143.125 26.929 143.061C26.9934 142.997 27.07 142.947 27.1543 142.913C27.2386 142.879 27.3288 142.862 27.4197 142.864C27.5105 142.866 27.6 142.886 27.683 142.923C27.7659 142.96 27.8406 143.013 27.9026 143.079C27.9646 143.146 28.0126 143.224 28.0438 143.309C28.1557 143.584 39.2511 171.327 43.2988 203.268C43.3102 203.357 43.3039 203.447 43.2804 203.533C43.2569 203.619 43.2166 203.7 43.1618 203.77C43.1069 203.841 43.0387 203.9 42.961 203.944C42.8833 203.988 42.7976 204.016 42.7089 204.027L42.6106 204.031Z" fill="#272727"/>
<path d="M50.8008 204.38C50.6209 204.38 50.4485 204.308 50.3213 204.181C50.1942 204.054 50.1228 203.882 50.1228 203.702C50.038 171.836 54.5298 146.285 58.3096 130.447C62.4115 113.27 66.6049 103.487 66.6388 103.395C66.7119 103.232 66.8461 103.105 67.0122 103.041C67.1784 102.976 67.3632 102.98 67.5268 103.051C67.6903 103.122 67.8193 103.254 67.886 103.419C67.9527 103.585 67.9516 103.77 67.883 103.934C67.8423 104.029 63.6929 113.731 59.6182 130.81C55.8586 146.567 51.394 172.009 51.4822 203.695C51.4822 203.875 51.4107 204.047 51.2836 204.174C51.1564 204.301 50.984 204.373 50.8042 204.373L50.8008 204.38Z" fill="#272727"/>
<path d="M54.6959 203.702H37.5967C32.4349 203.702 28.2505 207.886 28.2505 213.048V277.662C28.2505 282.823 32.4349 287.008 37.5967 287.008H54.6959C59.8577 287.008 64.0421 282.823 64.0421 277.662V213.048C64.0421 207.886 59.8577 203.702 54.6959 203.702Z" fill="white"/>
<path d="M29.9929 282.557C29.8601 282.557 29.7303 282.518 29.6194 282.445C29.5086 282.372 29.4215 282.268 29.3691 282.146C29.2968 281.983 29.2918 281.798 29.3553 281.631C29.4188 281.464 29.5456 281.329 29.7081 281.255C35.0127 278.957 40.7207 277.736 46.501 277.662C52.2813 277.587 58.0189 278.661 63.381 280.821C63.5423 280.892 63.6697 281.022 63.7363 281.185C63.8029 281.348 63.8034 281.531 63.7378 281.694C63.6722 281.858 63.5455 281.989 63.3846 282.061C63.2237 282.133 63.0413 282.139 62.8759 282.079C57.6794 279.986 52.1192 278.945 46.5176 279.017C40.9161 279.09 35.3845 280.273 30.2437 282.499C30.1645 282.534 30.0794 282.554 29.9929 282.557Z" fill="#272727"/>
<path d="M59.0791 217.523H33.7219C33.5421 217.523 33.3697 217.451 33.2425 217.324C33.1154 217.197 33.0439 217.025 33.0439 216.845C33.0439 216.665 33.1154 216.492 33.2425 216.365C33.3697 216.238 33.5421 216.167 33.7219 216.167H59.0791C59.259 216.167 59.4314 216.238 59.5586 216.365C59.6857 216.492 59.7571 216.665 59.7571 216.845C59.7571 217.025 59.6857 217.197 59.5586 217.324C59.4314 217.451 59.259 217.523 59.0791 217.523Z" fill="#272727"/>
<path d="M52.5735 279.014C52.3937 279.014 52.2212 278.943 52.0941 278.816C51.9669 278.688 51.8955 278.516 51.8955 278.336V217.045C51.8955 216.865 51.9669 216.693 52.0941 216.565C52.2212 216.438 52.3937 216.367 52.5735 216.367C52.7533 216.367 52.9258 216.438 53.0529 216.565C53.1801 216.693 53.2515 216.865 53.2515 217.045V278.336C53.2515 278.516 53.1801 278.688 53.0529 278.816C52.9258 278.943 52.7533 279.014 52.5735 279.014Z" fill="#272727"/>
<path d="M40.2102 279.014C40.0304 279.014 39.858 278.943 39.7308 278.816C39.6037 278.688 39.5322 278.516 39.5322 278.336V217.045C39.5322 216.865 39.6037 216.693 39.7308 216.565C39.858 216.438 40.0304 216.367 40.2102 216.367C40.39 216.367 40.5625 216.438 40.6896 216.565C40.8168 216.693 40.8882 216.865 40.8882 217.045V278.336C40.8882 278.516 40.8168 278.688 40.6896 278.816C40.5625 278.943 40.39 279.014 40.2102 279.014Z" fill="#272727"/>
</svg>
