<svg width="284" height="284" viewBox="0 0 284 284" fill="none" xmlns="http://www.w3.org/2000/svg">
<path d="M178.548 120.052L145.805 118.539C145.805 118.539 137.814 117.031 131.921 128.692C131.921 128.692 131.069 130.853 133.556 131.64C133.556 131.64 134.016 134.98 137.226 133.21C137.226 133.21 139.191 136.144 142.008 133.727C142.008 133.727 144.564 135.431 150.914 130.918C157.551 133.828 164.519 135.912 171.664 137.124C173.048 137.357 174.406 137.553 175.739 137.712L180.851 138.524C182.578 138.799 184.343 138.731 186.043 138.324C187.744 137.917 189.348 137.179 190.764 136.152C192.18 135.125 193.379 133.829 194.294 132.339C195.209 130.848 195.821 129.192 196.096 127.465L178.548 120.052Z" fill="white"/>
<path d="M182.973 139.262C182.232 139.261 181.492 139.202 180.76 139.086L175.648 138.271C174.305 138.112 172.925 137.913 171.567 137.683C164.484 136.481 157.573 134.427 150.983 131.566C145.811 135.167 143.065 134.761 142.085 134.406C141.194 135.079 140.282 135.357 139.367 135.232C138.476 135.078 137.665 134.619 137.073 133.934C136.087 134.383 135.224 134.429 134.517 134.068C133.599 133.605 133.222 132.611 133.083 132.08C132.386 131.837 131.81 131.335 131.475 130.677C131.176 129.984 131.151 129.204 131.404 128.493L131.427 128.447C137.289 116.855 145.158 117.863 145.882 117.985L178.69 119.501L196.741 127.127L196.673 127.567C196.153 130.826 194.491 133.793 191.983 135.937C189.476 138.082 186.287 139.265 182.987 139.274L182.973 139.262ZM150.85 130.268L151.134 130.399C157.728 133.287 164.652 135.357 171.749 136.564C173.087 136.789 174.45 136.985 175.796 137.146L180.931 137.964C184.198 138.486 187.54 137.717 190.25 135.821C192.961 133.924 194.828 131.048 195.457 127.8L178.417 120.606L145.738 119.093H145.698C145.391 119.036 138.05 117.846 132.441 128.913C132.301 129.328 132.317 129.779 132.486 130.183C132.619 130.412 132.797 130.611 133.01 130.768C133.223 130.924 133.466 131.036 133.724 131.094L134.068 131.202L134.116 131.557C134.116 131.557 134.287 132.676 135.014 133.04C135.482 133.27 136.133 133.162 136.948 132.71L137.405 132.458L137.689 132.892C137.689 132.892 138.419 133.949 139.521 134.093C140.197 134.187 140.907 133.914 141.628 133.293L141.958 133.009L142.315 133.25C142.315 133.25 144.724 134.613 150.577 130.45L150.85 130.268Z" fill="#272727"/>
<path d="M133.557 132.344C133.422 132.343 133.29 132.305 133.176 132.233C133.017 132.132 132.905 131.972 132.864 131.789C132.823 131.605 132.856 131.412 132.957 131.253L136.533 125.605C136.584 125.525 136.65 125.457 136.727 125.403C136.804 125.35 136.892 125.312 136.984 125.292C137.076 125.271 137.171 125.27 137.264 125.286C137.356 125.303 137.445 125.338 137.524 125.389C137.603 125.44 137.672 125.506 137.725 125.583C137.779 125.661 137.817 125.748 137.837 125.84C137.857 125.932 137.859 126.027 137.842 126.12C137.826 126.212 137.791 126.301 137.74 126.38L134.164 132.029C134.098 132.129 134.008 132.21 133.901 132.266C133.795 132.321 133.676 132.348 133.557 132.344Z" fill="#272727"/>
<path d="M137.226 133.92C137.097 133.921 136.97 133.887 136.859 133.82C136.748 133.754 136.657 133.659 136.596 133.545C136.536 133.43 136.507 133.302 136.515 133.173C136.522 133.044 136.565 132.919 136.638 132.813L140.123 127.701C140.175 127.624 140.242 127.558 140.321 127.507C140.399 127.456 140.486 127.42 140.578 127.403C140.669 127.386 140.763 127.387 140.855 127.406C140.946 127.425 141.033 127.462 141.11 127.515C141.187 127.567 141.252 127.634 141.304 127.712C141.355 127.791 141.39 127.878 141.407 127.97C141.424 128.061 141.423 128.155 141.404 128.247C141.385 128.338 141.348 128.424 141.296 128.502L137.811 133.614C137.746 133.709 137.659 133.787 137.557 133.84C137.455 133.894 137.341 133.921 137.226 133.92Z" fill="#272727"/>
<path d="M142 134.437C141.852 134.437 141.708 134.391 141.588 134.304C141.512 134.249 141.448 134.181 141.398 134.101C141.349 134.022 141.316 133.934 141.301 133.842C141.286 133.75 141.289 133.655 141.311 133.565C141.332 133.474 141.371 133.388 141.426 133.312L144.641 128.839C144.696 128.764 144.764 128.699 144.844 128.65C144.923 128.601 145.011 128.568 145.103 128.553C145.195 128.538 145.289 128.541 145.38 128.563C145.471 128.584 145.557 128.623 145.632 128.678C145.708 128.732 145.772 128.801 145.821 128.88C145.871 128.959 145.904 129.048 145.919 129.14C145.934 129.232 145.93 129.326 145.909 129.417C145.888 129.507 145.849 129.593 145.794 129.669L142.577 134.142C142.511 134.233 142.425 134.308 142.324 134.36C142.224 134.411 142.113 134.438 142 134.437Z" fill="#272727"/>
<path d="M154.212 230.517L127.712 241.4C127.343 241.552 127.029 241.812 126.812 242.147C126.596 242.482 126.486 242.876 126.5 243.274C126.516 243.788 126.734 244.274 127.106 244.629C127.477 244.983 127.974 245.177 128.488 245.169L160.012 244.601L159.645 248.208C159.623 248.415 159.643 248.624 159.702 248.824C159.762 249.024 159.861 249.21 159.993 249.371C160.125 249.532 160.288 249.665 160.472 249.763C160.656 249.861 160.858 249.921 161.065 249.94L168.049 250.57C168.445 250.608 168.84 250.494 169.156 250.253C169.472 250.011 169.685 249.659 169.753 249.267L172.496 233.511L154.212 230.517Z" fill="#FFDEDC"/>
<path d="M228.62 227.598L217.572 254.01C217.419 254.378 217.381 254.784 217.465 255.175C217.549 255.565 217.75 255.92 218.041 256.193C218.417 256.544 218.915 256.733 219.429 256.72C219.942 256.707 220.43 256.492 220.787 256.122L242.655 233.434L244.944 236.245C245.076 236.407 245.239 236.542 245.423 236.64C245.607 236.739 245.809 236.8 246.017 236.819C246.225 236.839 246.435 236.818 246.635 236.756C246.834 236.694 247.019 236.593 247.179 236.458L252.575 231.965C252.88 231.712 253.078 231.354 253.13 230.961C253.183 230.569 253.086 230.171 252.859 229.847L243.658 216.766L228.62 227.598Z" fill="#FFDEDC"/>
<path d="M154.496 153.883C154.364 153.884 154.234 153.848 154.121 153.779C154.008 153.709 153.917 153.61 153.858 153.492C153.799 153.373 153.774 153.241 153.786 153.109C153.799 152.977 153.848 152.852 153.928 152.747L167.594 134.747C167.872 134.374 168.04 133.932 168.081 133.469C168.121 133.006 168.032 132.541 167.824 132.125C167.615 131.71 167.295 131.361 166.899 131.117C166.504 130.874 166.048 130.745 165.583 130.745H145.042C144.853 130.745 144.673 130.67 144.539 130.537C144.406 130.404 144.332 130.223 144.332 130.035C144.332 129.847 144.406 129.666 144.539 129.533C144.673 129.4 144.853 129.325 145.042 129.325H165.595C166.323 129.325 167.037 129.528 167.657 129.911C168.277 130.294 168.778 130.841 169.104 131.493C169.431 132.144 169.57 132.873 169.506 133.599C169.442 134.324 169.177 135.018 168.741 135.602L155.064 153.604C154.997 153.691 154.911 153.761 154.812 153.809C154.714 153.858 154.606 153.883 154.496 153.883Z" fill="#272727"/>
<path d="M188.678 145.567C185.23 147.555 182.69 150.806 181.595 154.632C180.499 158.458 180.934 162.56 182.808 166.072L217.004 230.04C217.384 230.769 217.916 231.408 218.565 231.914C219.213 232.421 219.962 232.782 220.762 232.974C223.318 233.567 227.109 233.195 229.932 227.555C230.173 227.657 234.439 229.404 238.219 226.734C241.513 224.405 241.749 220.62 241.769 220.16C242.15 220.29 244.717 221.122 247.179 219.648C247.281 219.586 247.384 219.523 247.48 219.455C250.053 217.706 250.644 214.15 248.94 211.546C236.529 192.558 222.221 170.511 209.157 150.486C207.016 147.208 203.702 144.873 199.894 143.96C196.086 143.047 192.073 143.625 188.678 145.576V145.567Z" fill="#272727"/>
<path d="M199.084 79.52L192.91 82.0419C190.381 83.0726 187.547 83.0569 185.03 81.9981C182.513 80.9393 180.52 78.9243 179.488 76.396L176.08 68.0777C175.498 66.6518 175.506 65.0532 176.103 63.6333C176.699 62.2134 177.835 61.0886 179.261 60.5062L188.258 56.8313C190.787 55.8007 193.622 55.8169 196.139 56.8762C198.656 57.9355 200.649 59.9513 201.68 62.48L203.926 67.9754C204.814 70.1486 204.802 72.5851 203.894 74.7497C202.986 76.9143 201.256 78.63 199.084 79.52Z" fill="#272727"/>
<path d="M182.044 70.7757C180.9 70.7731 179.781 70.4416 178.82 69.8208C177.86 69.1999 177.098 68.3158 176.625 67.2739L176.518 67.0382L176.625 66.8053C177.179 65.5921 178.131 64.605 179.323 64.0079L185.452 60.9493C186.192 60.5811 186.997 60.3655 187.822 60.315C188.646 60.2646 189.472 60.3805 190.251 60.6558C191.03 60.9311 191.745 61.3601 192.355 61.9175C192.964 62.4748 193.455 63.149 193.799 63.9L195.159 66.882L194.995 67.1405C194.561 67.8289 193.991 68.4209 193.319 68.8796C192.647 69.3383 191.888 69.6539 191.089 69.8068C190.29 69.9597 189.468 69.9466 188.674 69.7683C187.88 69.5901 187.132 69.2505 186.475 68.7706C185.918 69.3973 185.236 69.8997 184.473 70.2452C183.71 70.5907 182.882 70.7714 182.044 70.7757ZM177.784 67.0411C178.162 67.7704 178.72 68.3908 179.405 68.8433C180.09 69.2958 180.88 69.5652 181.699 69.6258C182.518 69.6865 183.339 69.5364 184.083 69.1898C184.828 68.8432 185.471 68.3117 185.952 67.646L186.304 67.1376L186.776 67.5551C187.277 68.005 187.867 68.3443 188.508 68.551C189.15 68.7577 189.827 68.8271 190.497 68.7548C191.166 68.6825 191.813 68.47 192.395 68.1312C192.978 67.7924 193.482 67.3348 193.876 66.7883L192.774 64.3771C192.494 63.7629 192.094 63.2113 191.596 62.7553C191.099 62.2993 190.514 61.9483 189.878 61.7232C189.242 61.4981 188.567 61.4036 187.893 61.4453C187.22 61.487 186.561 61.6641 185.958 61.966L179.82 65.036C178.944 65.4744 178.226 66.1753 177.767 67.0411H177.784Z" fill="#272727"/>
<path d="M199.686 77.7819L197.343 73.0363C198.178 72.7241 198.855 72.093 199.225 71.2818C199.594 70.4707 199.627 69.5459 199.314 68.711C199.002 67.876 198.371 67.1993 197.56 66.8297C196.749 66.4601 195.824 66.4278 194.989 66.74C194.841 66.7943 194.698 66.8598 194.56 66.936L194.515 66.8394C194.098 67.5 193.543 68.0619 192.887 68.4857C192.231 68.9095 191.491 69.1851 190.717 69.2933C189.944 69.4014 189.156 69.3395 188.409 69.1119C187.662 68.8843 186.974 68.4965 186.392 67.9754C185.841 68.7404 185.098 69.3467 184.238 69.7335C183.378 70.1202 182.431 70.2738 181.493 70.1789C180.554 70.0839 179.658 69.7437 178.893 69.1924C178.127 68.6411 177.521 67.8982 177.134 67.0382C176.846 67.6644 176.685 68.3411 176.659 69.0297C176.633 69.7183 176.743 70.4052 176.983 71.0511L177.529 72.5223C178.064 73.9669 178.192 75.5311 177.898 77.0435C177.831 77.3583 177.886 77.6867 178.05 77.9631C178.215 78.2395 178.478 78.4436 178.787 78.5345L179.883 78.8469L181.042 81.9709C181.272 82.5908 181.634 83.1535 182.102 83.6204C182.57 84.0874 183.134 84.4474 183.755 84.6759C184.375 84.9045 185.038 84.996 185.697 84.9443C186.356 84.8926 186.996 84.6989 187.574 84.3764L190.414 82.7832L192.956 87.756L202.166 83.0445L199.686 77.7819Z" fill="white"/>
<path d="M192.708 88.5086L190.186 83.5784L187.855 84.8848C187.205 85.2477 186.485 85.4659 185.743 85.5243C185.002 85.5827 184.256 85.4799 183.558 85.2231C182.86 84.9663 182.225 84.5614 181.698 84.0363C181.171 83.5112 180.764 82.8783 180.505 82.1811L179.448 79.3269L178.636 79.094C178.191 78.9679 177.811 78.6783 177.57 78.2833C177.33 77.8882 177.248 77.4169 177.341 76.964V76.9271C177.472 76.2568 177.514 75.5721 177.466 74.8908C177.413 74.15 177.255 73.4204 176.997 72.7239L176.449 71.2499C176.183 70.5346 176.06 69.7737 176.089 69.0109C176.118 68.2481 176.297 67.4985 176.617 66.8053L177.137 65.6693L177.651 66.8053C177.996 67.5749 178.538 68.2401 179.222 68.7342C179.906 69.2282 180.708 69.5337 181.547 69.62C182.386 69.7063 183.234 69.5704 184.004 69.2259C184.774 68.8814 185.44 68.3405 185.935 67.6573L186.304 67.1376L186.775 67.5551C187.296 68.0208 187.912 68.3674 188.58 68.5708C189.248 68.7742 189.952 68.8294 190.644 68.7326C191.335 68.6358 191.998 68.3893 192.584 68.0104C193.171 67.6314 193.668 67.1291 194.04 66.5384L194.608 65.6523L194.855 66.1919C195.828 65.8461 196.897 65.8972 197.832 66.3341C198.767 66.771 199.492 67.5586 199.851 68.5264C200.172 69.399 200.175 70.3572 199.858 71.2315C199.541 72.1057 198.925 72.8396 198.118 73.3032L200.2 77.532L202.915 83.2802L192.708 88.5086ZM190.661 82.0107L193.202 86.9807L201.416 82.7775L199.175 78.029L196.556 72.7267L197.141 72.5052C197.835 72.2457 198.397 71.7213 198.704 71.0473C199.012 70.3733 199.038 69.6049 198.779 68.9112C198.519 68.2175 197.995 67.6553 197.321 67.3482C196.647 67.0412 195.878 67.0144 195.185 67.2739C195.063 67.3208 194.944 67.3758 194.83 67.4386L194.776 67.4699C194.317 68.1009 193.739 68.6354 193.074 69.0427C192.408 69.45 191.669 69.7221 190.899 69.8434C190.128 69.9647 189.341 69.9329 188.583 69.7498C187.825 69.5667 187.11 69.2359 186.48 68.7763C185.897 69.4344 185.174 69.9547 184.365 70.2996C183.556 70.6445 182.681 70.8053 181.802 70.7705C180.923 70.7358 180.063 70.5062 179.283 70.0984C178.504 69.6907 177.825 69.1149 177.296 68.4128C177.148 69.2318 177.223 70.0755 177.514 70.8552L178.062 72.3291C178.636 73.8715 178.771 75.5424 178.454 77.1571C178.412 77.3343 178.438 77.5211 178.528 77.6794C178.618 77.8377 178.766 77.9556 178.94 78.0091L180.312 78.384L181.57 81.792C181.772 82.3355 182.089 82.8289 182.5 83.2382C182.911 83.6476 183.405 83.9632 183.949 84.1634C184.493 84.3636 185.074 84.4436 185.653 84.3981C186.231 84.3525 186.792 84.1823 187.298 83.8993L190.661 82.0107Z" fill="#272727"/>
<path d="M202.165 59.9268C206.822 59.9268 210.597 56.1517 210.597 51.4948C210.597 46.838 206.822 43.0629 202.165 43.0629C197.509 43.0629 193.733 46.838 193.733 51.4948C193.733 56.1517 197.509 59.9268 202.165 59.9268Z" fill="#272727"/>
<path d="M215.164 49.2427C221.966 49.2427 227.481 43.7282 227.481 36.9256C227.481 30.1231 221.966 24.6086 215.164 24.6086C208.361 24.6086 202.847 30.1231 202.847 36.9256C202.847 43.7282 208.361 49.2427 215.164 49.2427Z" fill="#272727"/>
<path d="M177.443 133.974L143.721 225.32C142.696 227.876 143.335 230.739 145.227 232.374C147.555 234.388 151.415 234.229 153.854 231.704C154.002 232.008 155.664 235.234 159.381 235.805C160.707 235.999 162.06 235.832 163.3 235.322C164.539 234.812 165.618 233.979 166.424 232.908C166.989 234.066 167.844 235.057 168.906 235.785C169.968 236.513 171.201 236.953 172.484 237.061C173.767 237.17 175.056 236.944 176.226 236.405C177.395 235.867 178.405 235.034 179.156 233.988C179.692 233.247 180.095 232.419 180.346 231.54L200.51 164.232C200.51 164.232 210.973 156.129 208.553 138.973L177.443 133.974Z" fill="#272727"/>
<path d="M183.595 74.6551C184.045 74.6551 184.41 74.2901 184.41 73.84C184.41 73.3898 184.045 73.0249 183.595 73.0249C183.145 73.0249 182.78 73.3898 182.78 73.84C182.78 74.2901 183.145 74.6551 183.595 74.6551Z" fill="#272727"/>
<path d="M190.303 82.1782L191.723 84.9586L195.551 79.7358C195.574 79.6992 195.584 79.6562 195.58 79.6132C195.577 79.5702 195.559 79.5297 195.53 79.4976C195.501 79.4655 195.463 79.4437 195.42 79.4355C195.378 79.4272 195.334 79.4329 195.295 79.4518L190.303 82.1782Z" fill="#272727"/>
<path d="M184.163 80.7781C183.92 80.7814 183.677 80.7528 183.441 80.6929C183.304 80.6464 183.19 80.5491 183.122 80.4211C183.054 80.2931 183.038 80.1439 183.076 80.0042C183.115 79.8644 183.205 79.7447 183.329 79.6695C183.453 79.5942 183.601 79.5692 183.742 79.5995C184.185 79.6973 184.648 79.6318 185.046 79.4149C185.472 79.1536 185.767 78.6651 185.924 77.9608C185.957 77.8136 186.047 77.6855 186.175 77.6048C186.302 77.5241 186.456 77.4974 186.604 77.5306C186.751 77.5637 186.879 77.654 186.96 77.7815C187.04 77.9091 187.067 78.0635 187.034 78.2107C186.804 79.2331 186.33 79.9687 185.614 80.3947C185.174 80.6512 184.672 80.7837 184.163 80.7781Z" fill="#272727"/>
<path d="M196.199 71.2471C195.99 71.2487 195.786 71.1931 195.607 71.0862C195.428 70.9793 195.282 70.8253 195.185 70.6411C195.088 70.4568 195.043 70.2494 195.056 70.0415C195.069 69.8336 195.138 69.6332 195.257 69.4622C195.376 69.2912 195.54 69.1563 195.73 69.0721C195.921 68.9878 196.131 68.9577 196.338 68.9848C196.544 69.0119 196.739 69.0952 196.902 69.2258C197.064 69.3563 197.187 69.5289 197.258 69.7248C197.36 70.0059 197.347 70.3159 197.222 70.5876C197.098 70.8592 196.87 71.0707 196.591 71.1761C196.465 71.2232 196.333 71.2472 196.199 71.2471ZM196.199 69.8271C196.138 69.8263 196.078 69.845 196.029 69.8805C195.98 69.916 195.943 69.9664 195.925 70.0243C195.906 70.0822 195.907 70.1445 195.926 70.2021C195.945 70.2597 195.983 70.3095 196.033 70.3442C196.083 70.3789 196.142 70.3967 196.203 70.3949C196.264 70.3932 196.323 70.372 196.37 70.3344C196.418 70.2969 196.453 70.245 196.469 70.1864C196.485 70.1278 196.482 70.0655 196.46 70.0088C196.438 69.958 196.401 69.9148 196.355 69.8845C196.308 69.8543 196.254 69.8382 196.199 69.8384V69.8271Z" fill="#272727"/>
<path d="M195.582 70.9205C195.51 70.9205 195.438 70.902 195.375 70.8667C195.311 70.8314 195.257 70.7806 195.219 70.7189C195.049 70.4437 194.954 70.1287 194.943 69.8053C194.933 69.4819 195.007 69.1614 195.159 68.8757C195.31 68.6106 195.522 68.3852 195.777 68.2183C196.033 68.0513 196.324 67.9476 196.628 67.9158C196.74 67.9086 196.85 67.9451 196.936 68.0177C197.022 68.0902 197.076 68.1931 197.088 68.3049C197.092 68.3606 197.086 68.4168 197.069 68.4701C197.052 68.5234 197.025 68.5728 196.988 68.6155C196.952 68.6583 196.908 68.6934 196.858 68.7191C196.809 68.7447 196.754 68.7603 196.699 68.765C196.536 68.7842 196.381 68.8405 196.244 68.9297C196.107 69.0188 195.992 69.1384 195.909 69.279C195.828 69.4328 195.788 69.6052 195.794 69.7791C195.8 69.953 195.851 70.1223 195.943 70.2702C195.973 70.3175 195.993 70.3702 196.002 70.4253C196.011 70.4803 196.009 70.5367 195.997 70.5911C195.984 70.6455 195.961 70.6968 195.928 70.7421C195.896 70.7875 195.854 70.8259 195.807 70.8552C195.74 70.8982 195.662 70.9209 195.582 70.9205Z" fill="#272727"/>
<path d="M190.95 88.892C190.225 89.2426 189.475 89.5397 188.707 89.7809C187.791 90.0564 186.942 90.5151 186.209 91.1293C185.477 91.7435 184.877 92.5003 184.447 93.3536L177.409 107.29C177.409 107.29 172.794 116.125 179.178 120.055L213.111 122.273L219.339 88.324C219.339 88.324 214.471 83.0217 204.003 83.6153L202.424 81.17C202.282 80.9483 202.063 80.7869 201.809 80.7166C201.556 80.6464 201.285 80.6723 201.049 80.7895L191.745 85.4158C191.511 85.5321 191.328 85.7301 191.23 85.9724C191.132 86.2148 191.127 86.4846 191.214 86.7308L191.836 88.4944L190.95 88.892Z" fill="#F1AFAB"/>
<path d="M214.812 86.2394C212.392 85.854 209.917 86.4451 207.933 87.8829C205.948 89.3207 204.615 91.4876 204.227 93.9074L199.91 121.029L167.168 119.513C167.168 119.513 159.176 118.005 153.283 129.666C153.283 129.666 152.431 131.827 154.919 132.614C154.919 132.614 155.379 135.954 158.588 134.184C158.588 134.184 160.554 137.118 163.371 134.701C163.371 134.701 165.927 136.405 172.277 131.892C178.913 134.804 185.882 136.888 193.026 138.098C194.408 138.331 195.767 138.527 197.102 138.686L202.214 139.498C203.941 139.773 205.705 139.705 207.406 139.298C209.107 138.891 210.711 138.153 212.127 137.126C213.543 136.099 214.742 134.803 215.657 133.313C216.572 131.822 217.184 130.166 217.459 128.439L222.491 96.8156C222.873 94.3951 222.279 91.9219 220.839 89.939C219.4 87.9561 217.232 86.6255 214.812 86.2394Z" fill="white"/>
<path d="M204.335 140.248C203.595 140.247 202.855 140.188 202.123 140.072L197.011 139.257C195.665 139.098 194.285 138.899 192.93 138.669C185.847 137.467 178.935 135.413 172.346 132.551C167.174 136.152 164.428 135.746 163.448 135.391C162.556 136.064 161.645 136.343 160.73 136.218C159.838 136.063 159.027 135.605 158.435 134.92C157.45 135.369 156.587 135.414 155.879 135.053C154.962 134.59 154.587 133.596 154.445 133.065C153.748 132.823 153.172 132.32 152.838 131.662C152.537 130.97 152.513 130.188 152.77 129.478L152.789 129.433C158.651 117.84 166.518 118.848 167.245 118.97L199.445 120.461L203.679 93.8421C204.088 91.271 205.502 88.9677 207.609 87.4389C209.717 85.9101 212.345 85.2809 214.916 85.6899C217.487 86.0989 219.79 87.5125 221.319 89.6198C222.848 91.727 223.477 94.3553 223.068 96.9264L218.021 128.541C217.501 131.8 215.839 134.767 213.332 136.912C210.824 139.056 207.635 140.239 204.335 140.248ZM172.212 131.253L172.496 131.384C179.094 134.273 186.02 136.344 193.12 137.55C194.455 137.774 195.818 137.97 197.167 138.132L202.302 138.95C205.641 139.481 209.054 138.665 211.791 136.68C214.528 134.696 216.366 131.706 216.9 128.368L221.932 96.7418C222.293 94.468 221.736 92.1441 220.385 90.2803C219.033 88.4165 216.997 87.1654 214.724 86.8018C212.451 86.4425 210.127 86.9996 208.264 88.3508C206.401 89.702 205.149 91.7371 204.784 94.0097L200.391 121.632L167.06 120.081C166.751 120.024 159.412 118.834 153.803 129.902C153.665 130.316 153.681 130.767 153.849 131.171C153.981 131.4 154.16 131.599 154.373 131.756C154.586 131.913 154.829 132.024 155.087 132.083L155.431 132.191L155.479 132.546C155.479 132.546 155.649 133.682 156.376 134.028C156.842 134.258 157.495 134.15 158.31 133.699L158.768 133.449L159.052 133.88C159.052 133.88 159.784 134.937 160.883 135.082C161.559 135.17 162.269 134.903 162.991 134.281L163.32 133.997L163.678 134.238C163.678 134.238 166.086 135.601 171.94 131.438L172.212 131.253Z" fill="#272727"/>
<path d="M154.919 133.335C154.792 133.334 154.668 133.299 154.559 133.235C154.45 133.17 154.361 133.077 154.3 132.966C154.238 132.854 154.208 132.729 154.212 132.602C154.215 132.476 154.253 132.352 154.32 132.245L157.904 126.596C157.951 126.512 158.015 126.439 158.092 126.38C158.168 126.322 158.256 126.28 158.349 126.256C158.442 126.233 158.539 126.229 158.634 126.244C158.729 126.259 158.82 126.293 158.902 126.345C158.983 126.396 159.053 126.464 159.107 126.543C159.162 126.623 159.2 126.712 159.218 126.806C159.237 126.901 159.237 126.998 159.217 127.092C159.197 127.186 159.158 127.275 159.102 127.354L155.518 133.003C155.455 133.105 155.367 133.189 155.262 133.247C155.157 133.305 155.039 133.336 154.919 133.335Z" fill="#272727"/>
<path d="M158.589 134.9C158.459 134.901 158.332 134.866 158.221 134.8C158.11 134.734 158.02 134.639 157.959 134.524C157.898 134.41 157.87 134.282 157.878 134.153C157.885 134.023 157.928 133.899 158.001 133.792L161.485 128.68C161.536 128.599 161.602 128.528 161.681 128.473C161.759 128.418 161.848 128.379 161.941 128.359C162.035 128.34 162.132 128.339 162.226 128.357C162.32 128.376 162.409 128.413 162.489 128.467C162.568 128.521 162.635 128.59 162.687 128.671C162.739 128.752 162.774 128.842 162.789 128.936C162.805 129.031 162.802 129.128 162.779 129.221C162.757 129.314 162.716 129.402 162.658 129.478L159.177 134.59C159.111 134.686 159.023 134.764 158.921 134.818C158.818 134.872 158.704 134.9 158.589 134.9Z" fill="#272727"/>
<path d="M163.368 135.423C163.221 135.423 163.076 135.376 162.957 135.289C162.881 135.235 162.817 135.166 162.768 135.086C162.718 135.007 162.685 134.919 162.67 134.827C162.655 134.735 162.659 134.641 162.68 134.55C162.701 134.459 162.74 134.374 162.795 134.298L166.01 129.825C166.12 129.672 166.286 129.569 166.472 129.539C166.658 129.508 166.848 129.553 167.001 129.663C167.154 129.773 167.257 129.939 167.287 130.125C167.317 130.311 167.273 130.501 167.163 130.654L163.948 135.127C163.882 135.219 163.795 135.293 163.694 135.345C163.593 135.396 163.482 135.423 163.368 135.423Z" fill="#272727"/>
<path d="M193.972 186.645C193.916 186.645 193.861 186.636 193.807 186.619C193.663 186.576 193.542 186.477 193.471 186.344C193.399 186.212 193.384 186.056 193.427 185.912L200.018 163.899L200.163 163.788C206.454 158.96 207.857 149.588 207.868 149.483C207.89 149.333 207.97 149.197 208.092 149.105C208.213 149.014 208.366 148.975 208.517 148.996C208.668 149.018 208.804 149.098 208.895 149.22C208.986 149.342 209.026 149.495 209.004 149.645C208.947 150.046 207.55 159.449 201.012 164.578L194.526 186.239C194.491 186.358 194.417 186.462 194.317 186.535C194.217 186.608 194.096 186.647 193.972 186.645Z" fill="white"/>
<path d="M206.272 122.194H206.224L199.862 121.748C199.769 121.741 199.678 121.717 199.594 121.675C199.511 121.633 199.436 121.575 199.375 121.505C199.251 121.362 199.189 121.177 199.202 120.988C199.215 120.8 199.303 120.625 199.445 120.501C199.588 120.377 199.773 120.315 199.962 120.328L206.323 120.774C206.416 120.777 206.508 120.799 206.593 120.838C206.678 120.876 206.754 120.932 206.818 121C206.881 121.068 206.931 121.148 206.963 121.236C206.996 121.323 207.011 121.416 207.008 121.509C207.004 121.603 206.983 121.694 206.944 121.779C206.905 121.864 206.85 121.94 206.782 122.004C206.713 122.068 206.633 122.117 206.546 122.15C206.458 122.182 206.365 122.197 206.272 122.194Z" fill="#272727"/>
<path d="M124.758 47.0333H82.4283C79.1156 47.0333 76.4302 49.7187 76.4302 53.0313V70.9858C76.4302 74.2985 79.1156 76.9839 82.4283 76.9839H124.758C128.071 76.9839 130.757 74.2985 130.757 70.9858V53.0313C130.757 49.7187 128.071 47.0333 124.758 47.0333Z" fill="white"/>
<path d="M124.759 77.5519H82.4425C80.7013 77.5497 79.0321 76.8568 77.8011 75.6253C76.5701 74.3938 75.878 72.7242 75.8765 70.983V53.0342C75.878 51.293 76.5701 49.6234 77.8011 48.3919C79.0321 47.1604 80.7013 46.4675 82.4425 46.4653H124.759C126.5 46.4675 128.169 47.1604 129.4 48.3919C130.631 49.6234 131.323 51.293 131.325 53.0342V70.983C131.323 72.7242 130.631 74.3938 129.4 75.6253C128.169 76.8568 126.5 77.5497 124.759 77.5519ZM82.4425 47.6013C81.0026 47.6035 79.6223 48.1767 78.6044 49.1952C77.5865 50.2137 77.014 51.5942 77.0125 53.0342V70.983C77.014 72.4229 77.5865 73.8035 78.6044 74.822C79.6223 75.8404 81.0026 76.4137 82.4425 76.4159H124.759C126.198 76.4137 127.579 75.8404 128.597 74.822C129.615 73.8035 130.187 72.4229 130.189 70.983V53.0342C130.187 51.5942 129.615 50.2137 128.597 49.1952C127.579 48.1767 126.198 47.6035 124.759 47.6013H82.4425Z" fill="#272727"/>
<path d="M86.3357 57.3282C86.1851 57.3282 86.0406 57.2684 85.9341 57.1619C85.8276 57.0554 85.7677 56.9109 85.7677 56.7602C85.7308 55.15 86.3357 54.1844 86.8412 53.659C87.1199 53.3617 87.4545 53.1224 87.8259 52.9548C88.1973 52.7871 88.5981 52.6944 89.0053 52.682C89.4028 52.6872 89.7954 52.7709 90.1605 52.9283C90.5255 53.0857 90.8559 53.3138 91.1325 53.5993C91.655 54.1247 92.2685 55.096 92.2514 56.7546C92.2514 56.9052 92.1916 57.0497 92.0851 57.1562C91.9786 57.2627 91.8341 57.3226 91.6834 57.3226C91.5328 57.3226 91.3883 57.2627 91.2818 57.1562C91.1753 57.0497 91.1154 56.9052 91.1154 56.7546C91.1154 55.7549 90.857 54.9455 90.3288 54.4172C89.9862 54.061 89.519 53.8514 89.0252 53.8322C88.5078 53.8575 88.0208 54.0837 87.6677 54.4627C87.1536 54.9938 86.8924 55.7833 86.9151 56.7347C86.917 56.8093 86.9041 56.8835 86.8773 56.9532C86.8505 57.0228 86.8102 57.0865 86.7588 57.1405C86.7074 57.1946 86.6458 57.238 86.5776 57.2683C86.5094 57.2985 86.4359 57.315 86.3613 57.3169L86.3357 57.3282Z" fill="#272727"/>
<path d="M94.4045 71.7072H83.6863C83.4226 71.7056 83.1623 71.6477 82.9228 71.5375C82.6832 71.4273 82.4699 71.2673 82.2971 71.0682C82.1243 70.869 81.9959 70.6353 81.9206 70.3826C81.8452 70.1299 81.8246 69.864 81.8602 69.6028L83.354 58.3706C83.4112 57.9263 83.628 57.518 83.964 57.2217C84.3 56.9254 84.7322 56.7614 85.1801 56.7603H92.6579C93.0986 56.7626 93.524 56.922 93.8576 57.2099C94.1913 57.4978 94.4114 57.8952 94.4783 58.3308L96.2249 69.563C96.2671 69.8269 96.2517 70.0968 96.1798 70.3541C96.1078 70.6115 95.981 70.8502 95.808 71.054C95.6351 71.2577 95.4201 71.4215 95.1778 71.5343C94.9355 71.6471 94.6717 71.7061 94.4045 71.7072Z" fill="#F1AFAB"/>
<path d="M122.947 55.0477H103.802C102.673 55.0477 101.757 55.9626 101.757 57.0911C101.757 58.2196 102.673 59.1345 103.802 59.1345H122.947C124.076 59.1345 124.991 58.2196 124.991 57.0911C124.991 55.9626 124.076 55.0477 122.947 55.0477Z" fill="white"/>
<path d="M124.023 64.4993H102.723C102.572 64.4993 102.428 64.4394 102.321 64.3329C102.215 64.2264 102.155 64.0819 102.155 63.9313C102.155 63.7806 102.215 63.6362 102.321 63.5296C102.428 63.4231 102.572 63.3633 102.723 63.3633H124.023C124.173 63.3633 124.318 63.4231 124.424 63.5296C124.531 63.6362 124.591 63.7806 124.591 63.9313C124.591 64.0819 124.531 64.2264 124.424 64.3329C124.318 64.4394 124.173 64.4993 124.023 64.4993Z" fill="#272727"/>
<path d="M121.024 69.3556H102.729C102.578 69.3556 102.434 69.2958 102.327 69.1893C102.22 69.0827 102.161 68.9383 102.161 68.7876C102.161 68.637 102.22 68.4925 102.327 68.386C102.434 68.2795 102.578 68.2196 102.729 68.2196H121.024C121.175 68.2196 121.319 68.2795 121.426 68.386C121.532 68.4925 121.592 68.637 121.592 68.7876C121.592 68.9383 121.532 69.0827 121.426 69.1893C121.319 69.2958 121.175 69.3556 121.024 69.3556Z" fill="#272727"/>
<path d="M158.296 34.2476H143.514C141.291 34.2476 139.489 36.0493 139.489 38.2718V53.054C139.489 55.2766 141.291 57.0783 143.514 57.0783H158.296C160.518 57.0783 162.32 55.2766 162.32 53.054V38.2718C162.32 36.0493 160.518 34.2476 158.296 34.2476Z" fill="white"/>
<path d="M158.296 57.652H143.514C142.296 57.6513 141.128 57.1672 140.267 56.3061C139.406 55.4451 138.922 54.2774 138.921 53.0597V38.2718C138.922 37.0541 139.406 35.8865 140.267 35.0254C141.128 34.1644 142.296 33.6803 143.514 33.6796H158.296C159.514 33.6803 160.681 34.1644 161.542 35.0254C162.403 35.8865 162.887 37.0541 162.888 38.2718V53.054C162.889 53.6575 162.77 54.2551 162.539 54.8127C162.309 55.3704 161.971 55.8772 161.544 56.3041C161.118 56.7311 160.611 57.0699 160.054 57.3011C159.497 57.5324 158.899 57.6516 158.296 57.652ZM143.514 34.8212C142.597 34.822 141.719 35.1864 141.071 35.8344C140.423 36.4824 140.058 37.3611 140.057 38.2775V53.0597C140.058 53.9762 140.423 54.8548 141.071 55.5029C141.719 56.1509 142.597 56.5153 143.514 56.516H158.296C159.212 56.5153 160.091 56.1509 160.739 55.5029C161.387 54.8548 161.751 53.9762 161.752 53.0597V38.2718C161.751 37.3554 161.387 36.4767 160.739 35.8287C160.091 35.1807 159.212 34.8163 158.296 34.8156L143.514 34.8212Z" fill="#272727"/>
<path d="M155.124 41.2169H146.689C145.321 41.2169 144.212 42.3256 144.212 43.6934V50.5605C144.212 51.9282 145.321 53.037 146.689 53.037H155.124C156.491 53.037 157.6 51.9282 157.6 50.5605V43.6934C157.6 42.3256 156.491 41.2169 155.124 41.2169Z" fill="#F1AFAB"/>
<path d="M157.597 45.6502H144.213C144.062 45.6502 143.917 45.5903 143.811 45.4838C143.704 45.3773 143.645 45.2328 143.645 45.0822C143.645 44.9315 143.704 44.787 143.811 44.6805C143.917 44.574 144.062 44.5142 144.213 44.5142H157.597C157.748 44.5142 157.893 44.574 157.999 44.6805C158.106 44.787 158.165 44.9315 158.165 45.0822C158.165 45.2328 158.106 45.3773 157.999 45.4838C157.893 45.5903 157.748 45.6502 157.597 45.6502Z" fill="#F1AFAB"/>
<path d="M151.786 41.7849H150.903C147.467 41.7849 146.473 40.5467 146.243 39.5129C146.197 39.3061 146.197 39.092 146.242 38.8851C146.287 38.6782 146.377 38.4836 146.504 38.3145C146.629 38.1458 146.789 38.0064 146.974 37.9058C147.158 37.8053 147.362 37.7461 147.572 37.7322C149.844 37.5732 151.358 40.8562 151.42 40.984L151.786 41.7849ZM147.728 38.8597H147.649C147.602 38.8633 147.557 38.8768 147.516 38.8994C147.476 38.9219 147.44 38.9529 147.413 38.9904C147.384 39.0283 147.364 39.0721 147.353 39.1187C147.343 39.1653 147.343 39.2136 147.353 39.2602C147.518 40.0043 148.415 40.4672 149.909 40.6035C149.401 39.7998 148.589 38.8597 147.728 38.8597Z" fill="#F1AFAB"/>
<path d="M150.858 41.7849H149.978L150.341 40.9812C150.406 40.842 151.917 37.5732 154.189 37.7294C154.4 37.7439 154.605 37.8038 154.79 37.9048C154.975 38.0058 155.136 38.1457 155.262 38.3147C155.389 38.4838 155.477 38.6781 155.521 38.8844C155.565 39.0907 155.564 39.3041 155.518 39.51C155.291 40.5466 154.297 41.7849 150.858 41.7849ZM154.036 38.8597C153.184 38.8597 152.366 39.8082 151.849 40.6063C153.349 40.47 154.246 40.007 154.405 39.263C154.415 39.2164 154.415 39.1681 154.405 39.1215C154.395 39.0749 154.374 39.0311 154.345 38.9932C154.318 38.9554 154.282 38.9241 154.241 38.9016C154.199 38.879 154.154 38.8657 154.107 38.8625L154.036 38.8597Z" fill="#F1AFAB"/>
<path d="M154.473 48.0727C154.373 48.0731 154.275 48.047 154.188 47.9972C154.101 47.9473 154.029 47.8754 153.979 47.7887L150.827 42.3529L147.831 47.5785C147.793 47.6432 147.744 47.7 147.684 47.7455C147.625 47.791 147.557 47.8244 147.485 47.8438C147.413 47.8632 147.338 47.8681 147.264 47.8584C147.19 47.8488 147.118 47.8246 147.054 47.7873C146.989 47.75 146.932 47.7003 146.887 47.6411C146.841 47.5819 146.808 47.5143 146.789 47.4421C146.769 47.37 146.764 47.2948 146.774 47.2207C146.784 47.1467 146.808 47.0752 146.845 47.0105L150.821 40.0753L154.962 47.2179C155.037 47.3478 155.058 47.5024 155.02 47.6478C154.981 47.7931 154.887 47.9173 154.757 47.9932C154.671 48.0442 154.573 48.0717 154.473 48.0727Z" fill="#F1AFAB"/>
<path d="M150.963 53.6022C150.812 53.6022 150.668 53.5423 150.561 53.4358C150.455 53.3293 150.395 53.1848 150.395 53.0342V41.5918C150.395 41.4412 150.455 41.2967 150.561 41.1902C150.668 41.0836 150.812 41.0238 150.963 41.0238C151.114 41.0238 151.258 41.0836 151.365 41.1902C151.471 41.2967 151.531 41.4412 151.531 41.5918V53.0342C151.531 53.1088 151.516 53.1826 151.488 53.2515C151.459 53.3204 151.417 53.3831 151.365 53.4358C151.312 53.4885 151.249 53.5304 151.18 53.5589C151.111 53.5875 151.038 53.6022 150.963 53.6022Z" fill="#F1AFAB"/>
<path d="M175.66 67.0779C174.711 67.0779 173.825 66.5099 173.155 65.4904C172.511 64.3854 172.152 63.137 172.113 61.8584C172.073 60.5799 172.353 59.3117 172.928 58.1689C173.547 57.0726 174.424 56.4648 175.404 56.4222C176.384 56.3796 177.299 56.9562 177.983 58.0126C178.652 59.1065 179.013 60.3603 179.028 61.6422C179.119 64.6298 177.673 67.0183 175.737 67.0779H175.66ZM175.475 57.5582H175.438C174.87 57.5753 174.334 57.9928 173.916 58.7283C173.445 59.6902 173.215 60.7527 173.249 61.8234C173.282 62.8941 173.576 63.9404 174.106 64.8712C174.569 65.5784 175.134 65.9533 175.7 65.9419C176.961 65.9022 177.972 63.9539 177.892 61.6819C177.885 60.6083 177.591 59.5562 177.04 58.6346C176.58 57.936 176.029 57.5582 175.475 57.5582Z" fill="#F1AFAB"/>
<path d="M184.183 65.0729C181.942 65.0729 180.119 62.6817 180.119 59.7451C180.119 56.8085 181.942 54.4144 184.183 54.4144C186.423 54.4144 188.252 56.8057 188.252 59.7451C188.252 62.6845 186.426 65.0729 184.183 65.0729ZM184.183 55.5504C182.567 55.5504 181.255 57.4305 181.255 59.7451C181.255 62.0597 182.567 63.9369 184.183 63.9369C185.799 63.9369 187.116 62.0569 187.116 59.7451C187.116 57.4333 185.802 55.5504 184.183 55.5504Z" fill="#F1AFAB"/>
<path d="M178.411 61.628C178.274 61.6264 178.142 61.5752 178.04 61.484C177.938 61.3928 177.872 61.2677 177.855 61.1317C177.837 60.9958 177.87 60.8581 177.946 60.7442C178.022 60.6303 178.137 60.5478 178.269 60.5119L180.317 59.9808C180.39 59.9589 180.467 59.952 180.543 59.9605C180.619 59.9689 180.692 59.9927 180.759 60.0302C180.825 60.0677 180.884 60.1183 180.93 60.1789C180.977 60.2395 181.011 60.3089 181.03 60.3828C181.049 60.4568 181.053 60.5339 181.042 60.6094C181.03 60.685 181.004 60.7575 180.964 60.8226C180.924 60.8876 180.871 60.944 180.809 60.9882C180.746 61.0324 180.676 61.0636 180.601 61.0799L178.553 61.611C178.507 61.6221 178.459 61.6278 178.411 61.628Z" fill="#F1AFAB"/>
<path d="M194.23 60.3131H187.698C187.548 60.3131 187.403 60.2533 187.297 60.1468C187.19 60.0402 187.13 59.8958 187.13 59.7451C187.13 59.5945 187.19 59.45 187.297 59.3435C187.403 59.237 187.548 59.1771 187.698 59.1771H194.23C194.381 59.1771 194.525 59.237 194.632 59.3435C194.739 59.45 194.798 59.5945 194.798 59.7451C194.798 59.8958 194.739 60.0402 194.632 60.1468C194.525 60.2533 194.381 60.3131 194.23 60.3131Z" fill="#F1AFAB"/>
<path d="M192.316 89.105C192.154 89.1034 191.998 89.0465 191.873 88.9439C191.748 88.8412 191.661 88.6989 191.628 88.5405C191.595 88.3821 191.617 88.2171 191.691 88.0729C191.764 87.9287 191.885 87.8139 192.032 87.7475L199.626 84.3111C199.798 84.2335 199.994 84.2274 200.17 84.2939C200.346 84.3605 200.489 84.4944 200.566 84.6661C200.644 84.8378 200.65 85.0334 200.584 85.2097C200.517 85.3859 200.383 85.5286 200.211 85.6062L192.617 89.0426C192.523 89.0853 192.42 89.1066 192.316 89.105Z" fill="#272727"/>
<path d="M98.7667 153.817C98.6271 153.818 98.4903 153.778 98.3736 153.701C98.2568 153.625 98.1653 153.515 98.1107 153.387C98.056 153.258 98.0406 153.117 98.0664 152.979C98.0921 152.842 98.158 152.716 98.2555 152.616L116.343 133.727C116.735 133.315 117.099 132.875 117.479 132.432L117.593 132.296C118.384 131.363 119.369 130.615 120.479 130.101C121.589 129.588 122.797 129.322 124.02 129.322H131.833C132.021 129.322 132.202 129.397 132.335 129.53C132.468 129.663 132.543 129.844 132.543 130.032C132.543 130.221 132.468 130.401 132.335 130.534C132.202 130.667 132.021 130.742 131.833 130.742H124.026C123.009 130.742 122.004 130.962 121.082 131.39C120.159 131.817 119.341 132.44 118.684 133.216L118.567 133.352C118.187 133.801 117.792 134.267 117.369 134.707L99.2808 153.599C99.2142 153.668 99.1344 153.723 99.0461 153.76C98.9577 153.798 98.8627 153.817 98.7667 153.817Z" fill="#272727"/>
<path d="M103.126 185.938L86.3532 183.12C85.2069 182.927 84.1176 182.482 83.1637 181.818C82.2098 181.153 81.4149 180.286 80.8362 179.278C80.2576 178.269 79.9095 177.145 79.817 175.986C79.7244 174.828 79.8898 173.663 80.3012 172.575L112.331 88.0116C112.948 86.3817 114.09 85.0031 115.576 84.0923C117.062 83.1814 118.808 82.7899 120.541 82.9791L137.445 84.8251C138.638 84.9549 139.786 85.3562 140.801 85.9982C141.815 86.6401 142.669 87.5058 143.298 88.5288C143.926 89.5519 144.312 90.7051 144.426 91.9003C144.539 93.0954 144.378 94.3008 143.954 95.424L111.794 180.951C111.152 182.658 109.936 184.089 108.355 184.999C106.774 185.909 104.925 186.241 103.126 185.938Z" fill="#F1AFAB"/>
<path d="M93.2287 184.844C93.1616 184.845 93.0951 184.832 93.0327 184.807C92.8917 184.756 92.7769 184.65 92.7136 184.514C92.6502 184.377 92.6435 184.222 92.6948 184.08L129.547 83.8283C129.57 83.7551 129.608 83.6874 129.658 83.6292C129.708 83.5711 129.769 83.5237 129.838 83.4899C129.907 83.4562 129.982 83.4367 130.059 83.4328C130.135 83.4288 130.212 83.4404 130.284 83.467C130.356 83.4935 130.422 83.5343 130.478 83.587C130.534 83.6397 130.578 83.7032 130.609 83.7736C130.64 83.844 130.656 83.9199 130.656 83.9966C130.656 84.0734 130.641 84.1494 130.612 84.2202L93.7598 184.472C93.7198 184.581 93.6475 184.675 93.5525 184.741C93.4576 184.808 93.3446 184.844 93.2287 184.844Z" fill="#F1AFAB"/>
<path d="M132.912 125.383H132.846L99.7803 121.552C99.7058 121.543 99.6336 121.52 99.568 121.484C99.5023 121.447 99.4445 121.398 99.3978 121.339C99.3512 121.281 99.3165 121.213 99.2959 121.141C99.2753 121.069 99.2691 120.993 99.2777 120.919C99.2862 120.844 99.3094 120.772 99.3459 120.706C99.3824 120.641 99.4314 120.583 99.4902 120.536C99.549 120.489 99.6165 120.455 99.6887 120.434C99.7608 120.414 99.8364 120.407 99.911 120.416L132.963 124.256C133.037 124.26 133.111 124.279 133.178 124.311C133.245 124.344 133.305 124.389 133.355 124.445C133.405 124.501 133.443 124.566 133.468 124.636C133.492 124.707 133.503 124.782 133.498 124.856C133.494 124.931 133.475 125.004 133.443 125.071C133.41 125.138 133.365 125.199 133.309 125.248C133.253 125.298 133.188 125.336 133.117 125.361C133.047 125.386 132.972 125.396 132.898 125.392L132.912 125.383Z" fill="#F1AFAB"/>
<path d="M115.895 123.256C115.644 123.256 115.402 123.167 115.21 123.006C110.124 118.746 107.085 115.17 106.176 112.39C106.036 111.965 106.019 111.509 106.126 111.075C106.232 110.64 106.46 110.245 106.781 109.933C107.102 109.622 107.504 109.407 107.942 109.314C108.38 109.22 108.835 109.252 109.255 109.405C113.822 111.03 116.142 118.718 116.923 121.944C116.979 122.161 116.963 122.39 116.878 122.597C116.793 122.804 116.644 122.979 116.452 123.094C116.285 123.199 116.092 123.255 115.895 123.256ZM108.437 110.396C108.117 110.401 107.812 110.529 107.585 110.754C107.416 110.916 107.297 111.122 107.242 111.349C107.187 111.576 107.199 111.814 107.276 112.035C107.844 113.79 109.789 116.937 115.796 121.989C113.569 113.023 110.238 110.95 108.903 110.476C108.752 110.418 108.593 110.387 108.431 110.385L108.437 110.396Z" fill="#F1AFAB"/>
<path d="M100.723 139.265C100.617 139.265 100.514 139.235 100.424 139.179C100.334 139.123 100.261 139.042 100.215 138.947C100.168 138.852 100.149 138.746 100.16 138.64C100.17 138.535 100.21 138.435 100.275 138.351C100.641 137.873 109.294 126.707 115.003 122.484C115.71 121.612 122.767 113.112 128.601 114.006C129.044 114.07 129.46 114.257 129.801 114.546C130.143 114.836 130.396 115.215 130.532 115.642C130.668 116.068 130.68 116.524 130.569 116.958C130.457 117.391 130.226 117.785 129.902 118.093C127.644 120.248 122.844 122.046 115.633 123.432C110.047 127.584 101.263 138.93 101.172 139.052C101.118 139.119 101.05 139.173 100.972 139.21C100.895 139.247 100.809 139.266 100.723 139.265ZM127.703 115.077C123.71 115.077 118.987 119.729 116.911 122.012C124.534 120.407 127.754 118.567 129.123 117.269C129.295 117.111 129.418 116.907 129.477 116.681C129.537 116.455 129.53 116.216 129.458 115.994C129.386 115.77 129.252 115.571 129.071 115.42C128.89 115.269 128.67 115.173 128.436 115.142C128.197 115.101 127.955 115.08 127.712 115.077H127.703Z" fill="#F1AFAB"/>
<path d="M118.712 142.568H118.683C118.609 142.564 118.536 142.546 118.468 142.514C118.401 142.482 118.34 142.437 118.29 142.382C118.24 142.326 118.201 142.262 118.176 142.191C118.151 142.121 118.14 142.046 118.144 141.972C118.502 134.843 114.903 123.182 114.867 123.066C114.822 122.922 114.836 122.766 114.906 122.633C114.976 122.499 115.096 122.399 115.24 122.354C115.384 122.309 115.54 122.324 115.673 122.394C115.806 122.464 115.907 122.584 115.951 122.728C116.102 123.213 119.643 134.701 119.28 142.04C119.27 142.183 119.206 142.318 119.1 142.416C118.995 142.514 118.856 142.568 118.712 142.568Z" fill="#F1AFAB"/>
<path d="M60.2166 170.562H105.384C107.42 170.562 109.07 168.911 109.07 166.876V134.355C109.07 132.319 107.42 130.668 105.384 130.668H60.2166C58.1807 130.668 56.5303 132.319 56.5303 134.355L56.5303 166.876C56.5303 168.911 58.1807 170.562 60.2166 170.562Z" fill="#BEBEBE"/>
<path d="M66.2286 171.127C66.078 171.127 65.9335 171.067 65.827 170.961C65.7205 170.854 65.6606 170.71 65.6606 170.559V149.233C65.6606 149.083 65.7205 148.938 65.827 148.832C65.9335 148.725 66.078 148.665 66.2286 148.665C66.3793 148.665 66.5238 148.725 66.6303 148.832C66.7368 148.938 66.7966 149.083 66.7966 149.233V170.559C66.7966 170.71 66.7368 170.854 66.6303 170.961C66.5238 171.067 66.3793 171.127 66.2286 171.127Z" fill="#272727"/>
<path d="M103.87 134.664H96.2049C95.3485 134.664 94.6543 135.358 94.6543 136.215V140.469C94.6543 141.326 95.3485 142.02 96.2049 142.02H103.87C104.726 142.02 105.421 141.326 105.421 140.469V136.215C105.421 135.358 104.726 134.664 103.87 134.664Z" fill="white"/>
<path d="M104.535 146.621H95.8585C95.7079 146.621 95.5634 146.561 95.4569 146.454C95.3504 146.348 95.2905 146.203 95.2905 146.053C95.2905 145.902 95.3504 145.758 95.4569 145.651C95.5634 145.545 95.7079 145.485 95.8585 145.485H104.535C104.685 145.485 104.83 145.545 104.936 145.651C105.043 145.758 105.103 145.902 105.103 146.053C105.103 146.203 105.043 146.348 104.936 146.454C104.83 146.561 104.685 146.621 104.535 146.621Z" fill="#272727"/>
<path d="M104.535 150.074H98.1505C97.9999 150.074 97.8554 150.014 97.7489 149.908C97.6424 149.801 97.5825 149.657 97.5825 149.506C97.5825 149.355 97.6424 149.211 97.7489 149.104C97.8554 148.998 97.9999 148.938 98.1505 148.938H104.535C104.685 148.938 104.83 148.998 104.936 149.104C105.043 149.211 105.103 149.355 105.103 149.506C105.103 149.657 105.043 149.801 104.936 149.908C104.83 150.014 104.685 150.074 104.535 150.074Z" fill="#272727"/>
<path d="M66.28 149.801H66.209C65.073 149.773 64.0534 149.026 63.4854 147.813L57.1579 132.989C57.0987 132.85 57.0971 132.694 57.1533 132.554C57.2095 132.414 57.3189 132.302 57.4575 132.243C57.5961 132.184 57.7525 132.182 57.8923 132.239C58.0321 132.295 58.1439 132.404 58.203 132.543L64.522 147.351C64.8969 148.154 65.5416 148.654 66.2402 148.674H66.28C66.9502 148.674 67.5636 148.242 67.9669 147.481L76.5494 132.429C76.5867 132.364 76.6364 132.308 76.6956 132.262C76.7548 132.217 76.8224 132.183 76.8945 132.164C76.9667 132.145 77.0419 132.14 77.116 132.149C77.19 132.159 77.2614 132.183 77.3261 132.22C77.3908 132.258 77.4476 132.307 77.4931 132.367C77.5386 132.426 77.572 132.493 77.5914 132.566C77.6108 132.638 77.6157 132.713 77.6061 132.787C77.5964 132.861 77.5722 132.932 77.5349 132.997L68.9609 148.049C68.3674 149.134 67.3677 149.801 66.28 149.801Z" fill="#272727"/>
<path d="M78.1 170.988C77.9494 170.988 77.8049 170.928 77.6984 170.822C77.5919 170.715 77.532 170.571 77.532 170.42V136.831C77.6343 132.495 75.686 131.597 75.6037 131.56C75.4653 131.502 75.3557 131.391 75.2988 131.252C75.2419 131.113 75.2422 130.958 75.2998 130.819C75.3571 130.682 75.4654 130.574 75.6018 130.516C75.7381 130.458 75.8917 130.456 76.0297 130.509C76.1433 130.555 78.7901 131.668 78.668 136.845V170.42C78.668 170.571 78.6082 170.715 78.5017 170.822C78.3951 170.928 78.2507 170.988 78.1 170.988Z" fill="#272727"/>
<path d="M103.527 109.084H63.4088C62.2074 109.084 61.2334 110.058 61.2334 111.26V128.493C61.2334 129.694 62.2074 130.668 63.4088 130.668H103.527C104.728 130.668 105.702 129.694 105.702 128.493V111.26C105.702 110.058 104.728 109.084 103.527 109.084Z" fill="white"/>
<path d="M80.3722 131.072C80.2216 131.072 80.0771 131.012 79.9706 130.905C79.864 130.799 79.8042 130.654 79.8042 130.504V109.584C79.8042 109.434 79.864 109.289 79.9706 109.183C80.0771 109.076 80.2216 109.016 80.3722 109.016C80.5228 109.016 80.6673 109.076 80.7738 109.183C80.8804 109.289 80.9402 109.434 80.9402 109.584V130.504C80.9402 130.654 80.8804 130.799 80.7738 130.905C80.6673 131.012 80.5228 131.072 80.3722 131.072Z" fill="#272727"/>
<path d="M73.1586 122.154H66.3909L61.1284 111.629C61.095 111.562 61.0751 111.49 61.0698 111.415C61.0645 111.341 61.0739 111.266 61.0975 111.195C61.1211 111.124 61.1584 111.059 61.2074 111.002C61.2563 110.946 61.3158 110.9 61.3825 110.866C61.4493 110.833 61.522 110.813 61.5964 110.808C61.6709 110.803 61.7456 110.812 61.8165 110.836C61.8873 110.859 61.9527 110.897 62.0091 110.945C62.0655 110.994 62.1117 111.054 62.1451 111.121L67.0924 121.018H72.5168L79.3044 109.794C79.3823 109.665 79.5084 109.572 79.6549 109.536C79.8013 109.5 79.9562 109.523 80.0854 109.601C80.2145 109.679 80.3075 109.805 80.3437 109.952C80.3799 110.098 80.3564 110.253 80.2785 110.382L73.1586 122.154Z" fill="#272727"/>
<path d="M79.358 131.072C79.2684 131.072 79.18 131.051 79.1 131.011C79.02 130.97 78.9508 130.911 78.8979 130.839L72.5477 122.154H67.0523L62.4628 129.271C62.4222 129.334 62.3697 129.388 62.3081 129.43C62.2466 129.473 62.1773 129.503 62.1043 129.518C62.0312 129.534 61.9557 129.535 61.8823 129.521C61.8088 129.507 61.7388 129.479 61.6761 129.439C61.5502 129.357 61.4619 129.228 61.4305 129.081C61.3991 128.935 61.4272 128.781 61.5086 128.655L66.4331 121.018H73.1242L79.8039 130.166C79.848 130.226 79.8798 130.295 79.8975 130.367C79.9151 130.44 79.9182 130.515 79.9066 130.589C79.895 130.663 79.8689 130.734 79.8298 130.798C79.7907 130.862 79.7395 130.917 79.6789 130.961C79.5857 131.03 79.4737 131.068 79.358 131.072Z" fill="#272727"/>
<path d="M133.94 242.672H49.2313L44.8208 215.173H140.165L133.94 242.672ZM50.444 241.252H132.804L138.387 216.593H46.485L50.444 241.252Z" fill="#272727"/>
<path d="M90.5137 243.039C90.3254 243.039 90.1448 242.964 90.0117 242.831C89.8785 242.698 89.8037 242.517 89.8037 242.329V216.499C89.8037 216.311 89.8785 216.13 90.0117 215.997C90.1448 215.864 90.3254 215.789 90.5137 215.789C90.702 215.789 90.8826 215.864 91.0158 215.997C91.1489 216.13 91.2237 216.311 91.2237 216.499V242.329C91.2237 242.517 91.1489 242.698 91.0158 242.831C90.8826 242.964 90.702 243.039 90.5137 243.039Z" fill="#272727"/>
<path d="M54.1502 248.994C57.8001 248.994 60.7589 246.01 60.7589 242.329C60.7589 238.647 57.8001 235.663 54.1502 235.663C50.5003 235.663 47.5415 238.647 47.5415 242.329C47.5415 246.01 50.5003 248.994 54.1502 248.994Z" fill="#272727"/>
<path d="M90.5649 248.994C94.2461 248.994 97.2304 246.01 97.2304 242.329C97.2304 238.647 94.2461 235.663 90.5649 235.663C86.8837 235.663 83.8994 238.647 83.8994 242.329C83.8994 246.01 86.8837 248.994 90.5649 248.994Z" fill="#272727"/>
<path d="M128.672 248.994C132.317 248.994 135.272 246.01 135.272 242.329C135.272 238.647 132.317 235.663 128.672 235.663C125.027 235.663 122.072 238.647 122.072 242.329C122.072 246.01 125.027 248.994 128.672 248.994Z" fill="#272727"/>
<path d="M151.264 152.59H39.2315C35.6872 152.59 33.0517 156.282 33.8128 160.176L45.1359 218.072H139.668L156.66 161.122C157.904 156.933 155.163 152.59 151.264 152.59Z" fill="#FFDEDC"/>
<path d="M90.5137 201.586C90.3254 201.586 90.1448 201.511 90.0117 201.378C89.8785 201.245 89.8037 201.064 89.8037 200.876V158.821C89.8037 158.633 89.8785 158.452 90.0117 158.319C90.1448 158.186 90.3254 158.111 90.5137 158.111C90.702 158.111 90.8826 158.186 91.0158 158.319C91.1489 158.452 91.2237 158.633 91.2237 158.821V200.876C91.2237 200.969 91.2053 201.062 91.1697 201.148C91.134 201.234 91.0817 201.312 91.0158 201.378C90.9498 201.444 90.8716 201.496 90.7854 201.532C90.6993 201.568 90.6069 201.586 90.5137 201.586Z" fill="#272727"/>
<path d="M73.3599 163.118H48.1066C46.273 163.118 44.7866 164.605 44.7866 166.438C44.7866 168.272 46.273 169.758 48.1066 169.758H73.3599C75.1934 169.758 76.6798 168.272 76.6798 166.438C76.6798 164.605 75.1934 163.118 73.3599 163.118Z" fill="white"/>
<path d="M257.588 114.529H232.823C231.509 114.527 230.249 114.004 229.319 113.075C228.39 112.145 227.868 110.884 227.867 109.57V62.426C227.869 61.1119 228.391 59.8519 229.32 58.9224C230.249 57.9929 231.509 57.4697 232.823 57.4674H257.588C258.902 57.4689 260.163 57.9918 261.092 58.9214C262.022 59.851 262.545 61.1114 262.546 62.426V109.57C262.545 110.885 262.022 112.145 261.092 113.075C260.163 114.004 258.902 114.527 257.588 114.529ZM232.823 58.6062C231.81 58.6077 230.839 59.0111 230.123 59.7277C229.407 60.4443 229.004 61.4158 229.003 62.4289V109.573C229.004 110.586 229.407 111.557 230.123 112.274C230.839 112.991 231.81 113.394 232.823 113.396H257.588C258.601 113.394 259.573 112.991 260.289 112.274C261.006 111.558 261.409 110.586 261.41 109.573V62.4289C261.409 61.4155 261.006 60.4441 260.289 59.7275C259.573 59.011 258.601 58.6077 257.588 58.6062H232.823Z" fill="#272727"/>
<path d="M252.351 90.3972H238.072C236.831 90.3972 235.825 91.403 235.825 92.6437V101.448C235.825 102.688 236.831 103.694 238.072 103.694H252.351C253.592 103.694 254.598 102.688 254.598 101.448V92.6437C254.598 91.403 253.592 90.3972 252.351 90.3972Z" fill="#FFDEDC"/>
<path d="M254.089 95.7336H236.288C236.138 95.7336 235.993 95.6737 235.887 95.5672C235.78 95.4607 235.72 95.3162 235.72 95.1656C235.72 95.0149 235.78 94.8704 235.887 94.7639C235.993 94.6574 236.138 94.5976 236.288 94.5976H254.095C254.246 94.5976 254.39 94.6574 254.497 94.7639C254.603 94.8704 254.663 95.0149 254.663 95.1656C254.663 95.3162 254.603 95.4607 254.497 95.5672C254.39 95.6737 254.246 95.7336 254.095 95.7336H254.089Z" fill="#272727"/>
<path d="M241.772 102.095H239.5C239.006 102.076 238.538 101.866 238.194 101.51C237.851 101.153 237.66 100.677 237.66 100.182C237.66 99.6875 237.851 99.2118 238.194 98.8552C238.538 98.4986 239.006 98.2887 239.5 98.2696H241.772C242.029 98.2597 242.286 98.3019 242.527 98.3935C242.768 98.4852 242.987 98.6245 243.173 98.803C243.359 98.9816 243.506 99.1959 243.607 99.4329C243.708 99.6699 243.76 99.9248 243.76 100.182C243.76 100.44 243.708 100.695 243.607 100.932C243.506 101.169 243.359 101.383 243.173 101.562C242.987 101.74 242.768 101.88 242.527 101.971C242.286 102.063 242.029 102.105 241.772 102.095ZM239.5 99.4056C239.302 99.4176 239.116 99.5047 238.98 99.649C238.845 99.7934 238.769 99.9841 238.769 100.182C238.769 100.381 238.845 100.571 238.98 100.716C239.116 100.86 239.302 100.947 239.5 100.959H241.772C241.878 100.966 241.984 100.95 242.084 100.914C242.184 100.878 242.275 100.822 242.352 100.749C242.43 100.676 242.491 100.588 242.533 100.491C242.576 100.394 242.597 100.289 242.597 100.182C242.597 100.076 242.576 99.9712 242.533 99.8738C242.491 99.7763 242.43 99.6885 242.352 99.6158C242.275 99.543 242.184 99.4868 242.084 99.4507C241.984 99.4146 241.878 99.3992 241.772 99.4056H239.5Z" fill="#272727"/>
<path d="M252.786 66.811H237.606C236.153 66.811 234.976 67.9885 234.976 69.4409V77.4781C234.976 78.9305 236.153 80.1079 237.606 80.1079H252.786C254.238 80.1079 255.416 78.9305 255.416 77.4781V69.4409C255.416 67.9885 254.238 66.811 252.786 66.811Z" fill="#BEBEBE"/>
<path d="M245.194 76.8646C244.52 76.8646 243.861 76.6647 243.301 76.2902C242.74 75.9158 242.303 75.3835 242.046 74.7608C241.788 74.138 241.72 73.4528 241.852 72.7917C241.983 72.1306 242.308 71.5234 242.784 71.0468C243.261 70.5701 243.868 70.2456 244.529 70.1141C245.19 69.9826 245.876 70.0501 246.498 70.308C247.121 70.5659 247.653 71.0028 248.028 71.5632C248.402 72.1236 248.602 72.7825 248.602 73.4566C248.602 74.3604 248.243 75.2273 247.604 75.8664C246.965 76.5055 246.098 76.8646 245.194 76.8646ZM245.194 71.1846C244.745 71.1846 244.306 71.3178 243.932 71.5675C243.558 71.8171 243.267 72.172 243.095 72.5871C242.923 73.0023 242.878 73.4591 242.966 73.8998C243.053 74.3406 243.27 74.7454 243.588 75.0631C243.905 75.3809 244.31 75.5973 244.751 75.6849C245.192 75.7726 245.648 75.7276 246.064 75.5556C246.479 75.3837 246.834 75.0925 247.083 74.7188C247.333 74.3452 247.466 73.9059 247.466 73.4566C247.467 73.1575 247.409 72.8611 247.296 72.5845C247.182 72.3079 247.015 72.0564 246.804 71.8445C246.593 71.6327 246.342 71.4645 246.066 71.3498C245.789 71.2351 245.493 71.1761 245.194 71.1761V71.1846Z" fill="#272727"/>
<path d="M255.447 76.8788H253.521C252.677 76.8788 251.867 76.5434 251.27 75.9463C250.673 75.3493 250.337 74.5395 250.337 73.6952C250.337 72.8508 250.673 72.0411 251.27 71.444C251.867 70.847 252.677 70.5115 253.521 70.5115H255.447V71.6475H253.521C252.978 71.6475 252.457 71.8633 252.073 72.2473C251.689 72.6313 251.473 73.1521 251.473 73.6952C251.473 74.2382 251.689 74.7591 252.073 75.1431C252.457 75.5271 252.978 75.7428 253.521 75.7428H255.447V76.8788Z" fill="#272727"/>
<path d="M236.93 76.8788H235.001V75.7428H236.93C237.473 75.7428 237.994 75.5271 238.378 75.1431C238.762 74.7591 238.977 74.2382 238.977 73.6952C238.977 73.1521 238.762 72.6313 238.378 72.2473C237.994 71.8633 237.473 71.6475 236.93 71.6475H235.001V70.5115H236.93C237.774 70.5115 238.584 70.847 239.181 71.444C239.778 72.0411 240.113 72.8508 240.113 73.6952C240.113 74.5395 239.778 75.3493 239.181 75.9463C238.584 76.5434 237.774 76.8788 236.93 76.8788Z" fill="#272727"/>
<path d="M231.315 235.606C231.262 235.607 231.21 235.6 231.159 235.587L226.535 234.533C226.352 234.491 226.192 234.378 226.092 234.218C225.991 234.059 225.958 233.866 226 233.682C226.042 233.499 226.155 233.339 226.315 233.238C226.474 233.138 226.667 233.105 226.851 233.147L231.474 234.203C231.645 234.242 231.796 234.342 231.898 234.484C232 234.627 232.045 234.802 232.025 234.976C232.005 235.151 231.922 235.311 231.791 235.427C231.66 235.544 231.49 235.608 231.315 235.606Z" fill="#272727"/>
<path d="M229.679 239.486C229.626 239.486 229.572 239.479 229.52 239.466L224.897 238.409C224.802 238.392 224.712 238.356 224.632 238.303C224.552 238.251 224.484 238.182 224.431 238.102C224.378 238.022 224.342 237.932 224.324 237.838C224.307 237.743 224.309 237.646 224.331 237.553C224.352 237.459 224.392 237.371 224.448 237.294C224.505 237.216 224.576 237.151 224.659 237.101C224.741 237.052 224.833 237.02 224.928 237.007C225.023 236.994 225.119 237.001 225.212 237.026L229.835 238.083C230.006 238.121 230.157 238.221 230.259 238.364C230.361 238.506 230.406 238.682 230.386 238.856C230.367 239.03 230.283 239.191 230.152 239.307C230.021 239.423 229.852 239.487 229.676 239.486H229.679Z" fill="#272727"/>
<path d="M148.512 238.662C148.412 238.662 148.312 238.641 148.221 238.599C148.129 238.557 148.047 238.497 147.981 238.421L144.84 234.868C144.725 234.725 144.67 234.544 144.686 234.362C144.701 234.18 144.787 234.01 144.924 233.89C145.061 233.769 145.24 233.706 145.423 233.713C145.606 233.721 145.778 233.799 145.905 233.931L149.029 237.489C149.153 237.631 149.216 237.816 149.204 238.003C149.193 238.191 149.107 238.367 148.967 238.492C148.839 238.599 148.679 238.659 148.512 238.662Z" fill="#272727"/>
<path d="M143.897 240.687C143.796 240.688 143.696 240.667 143.604 240.625C143.512 240.583 143.429 240.522 143.363 240.446L140.239 236.89C140.178 236.82 140.13 236.739 140.1 236.65C140.07 236.562 140.057 236.469 140.063 236.376C140.069 236.283 140.093 236.192 140.134 236.108C140.175 236.024 140.232 235.949 140.302 235.887C140.372 235.826 140.453 235.778 140.541 235.748C140.63 235.718 140.723 235.705 140.816 235.711C140.909 235.717 141 235.741 141.084 235.782C141.168 235.823 141.243 235.88 141.304 235.95L144.428 239.508C144.52 239.61 144.579 239.737 144.6 239.872C144.621 240.007 144.602 240.146 144.546 240.27C144.49 240.395 144.398 240.501 144.283 240.575C144.168 240.649 144.034 240.688 143.897 240.687Z" fill="#272727"/>
</svg>
