<svg width="304" height="304" viewBox="0 0 304 304" fill="none" xmlns="http://www.w3.org/2000/svg">
<path d="M205.781 40.7998L53.8081 107.394C40.5446 113.207 38.5443 131.2 50.2118 139.779L183.862 238.108C195.527 246.69 212.11 239.424 213.706 225.036L232.028 60.116C233.627 45.7155 219.044 34.9873 205.781 40.7998Z" fill="#F1AFAB"/>
<path d="M255.457 245.462H33.3458C33.1845 245.462 33.0299 245.398 32.9159 245.284C32.8018 245.17 32.7378 245.015 32.7378 244.854C32.7378 244.692 32.8018 244.538 32.9159 244.424C33.0299 244.31 33.1845 244.246 33.3458 244.246H255.457C255.619 244.246 255.773 244.31 255.887 244.424C256.001 244.538 256.065 244.692 256.065 244.854C256.065 245.015 256.001 245.17 255.887 245.284C255.773 245.398 255.619 245.462 255.457 245.462Z" fill="#272727"/>
<path d="M172.134 124.588L179.716 99.5327C179.821 99.1829 180.003 98.8608 180.247 98.5892C180.492 98.3177 180.793 98.1034 181.13 97.9618C181.467 97.8201 181.831 97.7544 182.196 97.7695C182.561 97.7847 182.918 97.8801 183.242 98.0491L191.426 102.305C191.779 102.489 192.084 102.756 192.313 103.083C192.542 103.409 192.689 103.786 192.741 104.182C192.794 104.577 192.75 104.979 192.614 105.354C192.478 105.729 192.254 106.066 191.961 106.336L172.134 124.588Z" fill="#3D3BFF"/>
<path d="M170.191 123.606L191.824 110.139C192.16 109.93 192.538 109.8 192.932 109.757C193.325 109.714 193.723 109.761 194.096 109.893C194.468 110.025 194.807 110.239 195.086 110.519C195.364 110.8 195.576 111.14 195.706 111.513L198.576 119.822C198.712 120.216 198.753 120.637 198.694 121.05C198.636 121.464 198.48 121.857 198.24 122.199C198 122.54 197.682 122.819 197.313 123.014C196.944 123.208 196.534 123.313 196.117 123.318L170.191 123.606Z" fill="#3D3BFF"/>
<path d="M139.603 169.969C149.675 169.969 157.84 161.804 157.84 151.733C157.84 141.661 149.675 133.496 139.603 133.496C129.531 133.496 121.366 141.661 121.366 151.733C121.366 161.804 129.531 169.969 139.603 169.969Z" fill="#272727"/>
<path d="M100.353 72.4554H28.7369C24.187 72.4554 20.4985 76.1438 20.4985 80.6938V112.401C20.4985 116.951 24.187 120.639 28.7369 120.639H100.353C104.903 120.639 108.592 116.951 108.592 112.401V80.6938C108.592 76.1438 104.903 72.4554 100.353 72.4554Z" fill="white"/>
<path d="M100.353 121.247H28.7401C26.3938 121.245 24.1443 120.312 22.4852 118.653C20.8262 116.994 19.893 114.744 19.8906 112.398V80.6968C19.893 78.3505 20.8262 76.101 22.4852 74.4419C24.1443 72.7829 26.3938 71.8497 28.7401 71.8473H100.353C102.699 71.8505 104.948 72.784 106.606 74.443C108.265 76.102 109.197 78.351 109.2 80.6968V112.398C109.197 114.744 108.265 116.993 106.606 118.652C104.948 120.311 102.699 121.244 100.353 121.247ZM28.7401 73.0633C26.716 73.0649 24.7754 73.8697 23.3442 75.3009C21.913 76.7321 21.1082 78.6727 21.1066 80.6968V112.398C21.1082 114.422 21.913 116.363 23.3442 117.794C24.7754 119.225 26.716 120.03 28.7401 120.031H100.353C102.377 120.029 104.317 119.224 105.747 117.793C107.178 116.362 107.982 114.421 107.984 112.398V80.6968C107.982 78.6733 107.178 76.7331 105.747 75.302C104.317 73.8708 102.377 73.0657 100.353 73.0633H28.7401Z" fill="#272727"/>
<path d="M36.5774 88.7133C36.4187 88.7133 36.2664 88.6514 36.1528 88.5406C36.0392 88.4299 35.9734 88.2791 35.9694 88.1205C35.9116 85.6459 36.8267 84.1685 37.608 83.3629C38.4698 82.4516 39.6559 81.9164 40.9094 81.8733H40.9428C42.1535 81.8989 43.305 82.4015 44.147 83.2717C44.9435 84.0712 45.8889 85.5608 45.8585 88.1114C45.8585 88.2726 45.7945 88.4273 45.6804 88.5413C45.5664 88.6553 45.4118 88.7194 45.2505 88.7194C45.0893 88.7194 44.9346 88.6553 44.8206 88.5413C44.7066 88.4273 44.6425 88.2726 44.6425 88.1114C44.6668 85.9834 43.919 84.7674 43.2867 84.1442C42.6685 83.5068 41.8272 83.1341 40.9398 83.1045H40.9185C39.9929 83.1458 39.1202 83.5473 38.4865 84.2232C37.6019 85.1352 37.152 86.4789 37.1915 88.1053C37.1935 88.1851 37.1798 88.2646 37.1511 88.3391C37.1224 88.4137 37.0793 88.4818 37.0242 88.5397C36.9692 88.5976 36.9032 88.6441 36.8302 88.6764C36.7572 88.7088 36.6785 88.7265 36.5987 88.7285L36.5774 88.7133Z" fill="#272727"/>
<path d="M49.6492 112.149H32.2665C31.8408 112.148 31.42 112.057 31.0324 111.881C30.6447 111.705 30.2992 111.449 30.0188 111.128C29.7384 110.808 29.5298 110.431 29.4068 110.024C29.2838 109.616 29.2492 109.187 29.3055 108.765L31.7375 90.6954C31.8333 89.9781 32.1864 89.3201 32.7311 88.8436C33.2757 88.3672 33.9749 88.1048 34.6985 88.1053H46.8159C47.5279 88.1053 48.2164 88.3595 48.7576 88.8221C49.2987 89.2846 49.657 89.9252 49.7678 90.6285L52.5919 108.701C52.6591 109.127 52.6333 109.562 52.5164 109.976C52.3994 110.391 52.1941 110.775 51.9144 111.103C51.6348 111.43 51.2875 111.693 50.8965 111.874C50.5054 112.054 50.0799 112.148 49.6492 112.149Z" fill="#BEBEBE"/>
<path d="M96.8759 85.348H63.9375C62.6296 85.348 61.5693 86.4083 61.5693 87.7162V89.5554C61.5693 90.8633 62.6296 91.9235 63.9375 91.9235H96.8759C98.1838 91.9235 99.2441 90.8633 99.2441 89.5554V87.7162C99.2441 86.4083 98.1838 85.348 96.8759 85.348Z" fill="#FFDEDC"/>
<path d="M97.672 100.247H63.1436C62.9824 100.247 62.8277 100.183 62.7137 100.069C62.5997 99.9549 62.5356 99.8003 62.5356 99.639C62.5356 99.4778 62.5997 99.3231 62.7137 99.2091C62.8277 99.0951 62.9824 99.031 63.1436 99.031H97.672C97.8332 99.031 97.9879 99.0951 98.1019 99.2091C98.2159 99.3231 98.28 99.4778 98.28 99.639C98.28 99.8003 98.2159 99.9549 98.1019 100.069C97.9879 100.183 97.8332 100.247 97.672 100.247Z" fill="#272727"/>
<path d="M92.811 108.06H63.1436C62.9824 108.06 62.8277 107.996 62.7137 107.882C62.5997 107.768 62.5356 107.613 62.5356 107.452C62.5356 107.291 62.5997 107.136 62.7137 107.022C62.8277 106.908 62.9824 106.844 63.1436 106.844H92.811C92.9723 106.844 93.1269 106.908 93.2409 107.022C93.3549 107.136 93.419 107.291 93.419 107.452C93.419 107.613 93.3549 107.768 93.2409 107.882C93.1269 107.996 92.9723 108.06 92.811 108.06Z" fill="#272727"/>
<path d="M194.141 185.704C204.671 185.704 213.207 177.222 213.207 166.759C213.207 156.296 204.671 147.814 194.141 147.814C183.61 147.814 175.074 156.296 175.074 166.759C175.074 177.222 183.61 185.704 194.141 185.704Z" fill="#272727"/>
<path d="M175.074 160.144C185.604 160.144 194.141 151.662 194.141 141.199C194.141 130.736 185.604 122.254 175.074 122.254C164.543 122.254 156.007 130.736 156.007 141.199C156.007 151.662 164.543 160.144 175.074 160.144Z" fill="#272727"/>
<path d="M158.323 138.156H146.734C143.882 138.156 141.057 137.594 138.422 136.502C135.786 135.41 133.391 133.81 131.374 131.793C129.357 129.776 127.758 127.381 126.666 124.745C125.575 122.109 125.013 119.285 125.014 116.432V101.609C125.018 98.2014 126.374 94.9348 128.786 92.527C131.197 90.1192 134.465 88.7672 137.873 88.768H153.52C158.822 88.768 163.906 90.8742 167.656 94.6232C171.405 98.3723 173.511 103.457 173.511 108.759V122.995C173.509 124.988 173.115 126.961 172.351 128.801C171.587 130.642 170.468 132.314 169.057 133.722C167.647 135.129 165.973 136.246 164.131 137.006C162.289 137.767 160.316 138.158 158.323 138.156Z" fill="#272727"/>
<path d="M129.808 93.8448C129.808 93.8448 122.932 94.8601 121.126 109.404C120.912 111.18 120.145 112.844 118.934 114.161L117.827 115.359C117.548 115.66 117.39 116.054 117.381 116.464C117.373 116.875 117.515 117.275 117.782 117.587L119.28 119.35L118.524 128.653C118.524 128.653 117.004 138.566 128.674 138.259H136.098V148.544H159.43V130.866C159.43 130.866 164.747 129.954 165.713 124.719C165.958 123.41 165.902 122.064 165.552 120.779C165.201 119.495 164.564 118.307 163.689 117.304C161.947 115.332 158.876 113.656 153.821 116.016C153.824 116.016 133.742 120.047 129.808 93.8448Z" fill="white"/>
<path d="M157.84 126.966C157.359 126.966 156.889 126.823 156.489 126.556C156.089 126.288 155.777 125.909 155.593 125.464C155.409 125.02 155.361 124.531 155.454 124.059C155.548 123.587 155.78 123.154 156.12 122.814C156.46 122.474 156.894 122.242 157.365 122.148C157.837 122.054 158.326 122.103 158.77 122.287C159.215 122.471 159.595 122.782 159.862 123.182C160.129 123.582 160.272 124.053 160.272 124.534C160.272 125.179 160.015 125.797 159.559 126.253C159.103 126.709 158.485 126.966 157.84 126.966ZM157.84 123.299C157.599 123.299 157.364 123.371 157.164 123.504C156.964 123.638 156.808 123.828 156.716 124.05C156.624 124.272 156.6 124.517 156.647 124.753C156.694 124.988 156.81 125.205 156.98 125.375C157.15 125.545 157.367 125.661 157.602 125.708C157.838 125.755 158.083 125.731 158.305 125.639C158.527 125.547 158.717 125.391 158.851 125.191C158.984 124.991 159.056 124.756 159.056 124.515C159.056 124.193 158.928 123.884 158.7 123.655C158.472 123.427 158.162 123.299 157.84 123.299Z" fill="#272727"/>
<path d="M156.007 125.132C155.849 125.133 155.697 125.071 155.583 124.961C155.47 124.851 155.404 124.701 155.399 124.543C155.356 123.287 155.73 122.272 156.514 121.524C158.071 120.04 160.67 120.229 160.77 120.238C160.932 120.251 161.081 120.327 161.187 120.449C161.292 120.572 161.344 120.732 161.331 120.893C161.319 121.054 161.243 121.204 161.12 121.309C160.997 121.414 160.837 121.467 160.676 121.454C160.655 121.454 158.5 121.302 157.332 122.415C156.806 122.919 156.566 123.603 156.597 124.509C156.599 124.589 156.586 124.669 156.558 124.744C156.53 124.819 156.487 124.888 156.433 124.947C156.378 125.005 156.312 125.052 156.239 125.085C156.166 125.118 156.087 125.136 156.007 125.139V125.132Z" fill="#272727"/>
<path d="M132.255 115.997C133.049 115.997 133.693 115.353 133.693 114.559C133.693 113.765 133.049 113.121 132.255 113.121C131.461 113.121 130.817 113.765 130.817 114.559C130.817 115.353 131.461 115.997 132.255 115.997Z" fill="#272727"/>
<path d="M127.206 128.124C126.62 128.126 126.04 128.01 125.5 127.783C123.752 127.045 122.579 125.096 122.582 122.938C122.583 122.757 122.623 122.578 122.7 122.414C122.777 122.25 122.889 122.105 123.028 121.99C123.167 121.874 123.33 121.79 123.505 121.743C123.68 121.697 123.863 121.69 124.041 121.722L131.292 123.017C131.477 123.051 131.652 123.127 131.804 123.238C131.956 123.35 132.08 123.495 132.168 123.662C132.256 123.829 132.305 124.013 132.311 124.202C132.317 124.39 132.28 124.577 132.204 124.749C131.273 126.817 129.215 128.124 127.206 128.124ZM123.822 122.904C123.819 122.913 123.819 122.923 123.822 122.932C123.822 124.61 124.695 126.105 125.999 126.659C127.999 127.504 130.304 126.051 131.121 124.227L131.103 124.19L123.85 122.895L123.822 122.904Z" fill="#272727"/>
<path d="M135.906 138.271H147.054C147.153 138.272 147.248 138.307 147.325 138.369C147.401 138.432 147.453 138.519 147.473 138.616C147.493 138.713 147.479 138.813 147.434 138.901C147.389 138.989 147.315 139.059 147.224 139.098L135.906 143.932V138.271Z" fill="#272727"/>
<path d="M135.906 148.306C135.904 147.752 136.08 147.211 136.408 146.765C136.737 146.318 137.2 145.989 137.73 145.826C138.136 145.703 138.552 145.62 138.974 145.576C140.566 145.429 142.161 145.824 143.5 146.698C144.618 145.832 145.992 145.36 147.407 145.357C148.821 145.354 150.197 145.819 151.319 146.68C152.451 145.92 153.774 145.492 155.137 145.446C155.992 145.422 156.845 145.552 157.654 145.829C158.159 146.005 158.596 146.334 158.905 146.77C159.213 147.205 159.379 147.727 159.378 148.261V153.581H135.906V148.306Z" fill="#BEBEBE"/>
<path d="M226.41 225.051L92.27 224.939L98.2163 170.501C98.7801 165.342 101.226 160.572 105.085 157.103C108.945 153.634 113.948 151.709 119.138 151.696L174.59 151.556C181.06 151.54 187.387 153.458 192.759 157.063C198.132 160.667 202.305 165.795 204.744 171.787C215.992 197.652 224.13 216.536 225.018 218.777C225.44 219.875 225.779 221.004 226.03 222.154C226.227 223.109 226.354 224.077 226.41 225.051Z" fill="#BEBEBE"/>
<path d="M185.826 224.981H117.067V178.381H168.957C169.666 178.381 170.356 178.608 170.927 179.029C171.497 179.449 171.918 180.042 172.128 180.719L185.826 224.981Z" fill="#272727"/>
<path d="M168.948 178.989C168.803 178.991 168.662 178.942 168.551 178.849C168.439 178.757 168.365 178.627 168.34 178.485C168.17 177.478 164.257 153.827 172.42 150.985C172.572 150.931 172.739 150.941 172.885 151.011C173.03 151.081 173.142 151.206 173.195 151.359C173.248 151.511 173.239 151.678 173.169 151.824C173.098 151.969 172.973 152.081 172.821 152.134C166.841 154.213 168.425 171.714 169.541 178.278C169.554 178.357 169.552 178.437 169.534 178.515C169.517 178.593 169.484 178.667 169.437 178.732C169.391 178.798 169.332 178.853 169.265 178.896C169.197 178.938 169.121 178.967 169.042 178.98C169.011 178.986 168.98 178.989 168.948 178.989Z" fill="#272727"/>
<path d="M118.587 178.989C118.45 178.989 118.317 178.943 118.209 178.858C118.102 178.773 118.026 178.654 117.995 178.521C116.407 171.903 116.364 165.009 117.87 158.372C118.416 156.009 119.16 153.696 120.095 151.459C120.16 151.314 120.279 151.201 120.426 151.143C120.574 151.085 120.738 151.086 120.884 151.147C121.03 151.208 121.146 151.324 121.209 151.47C121.271 151.615 121.274 151.779 121.217 151.927C120.309 154.102 119.586 156.349 119.056 158.645C117.591 165.101 117.634 171.808 119.18 178.244C119.198 178.322 119.201 178.403 119.188 178.482C119.174 178.56 119.146 178.636 119.103 178.704C119.061 178.771 119.006 178.83 118.941 178.877C118.876 178.923 118.802 178.956 118.724 178.974C118.679 178.985 118.633 178.99 118.587 178.989Z" fill="#272727"/>
<path d="M109.896 140.971C109.264 140.154 108.539 139.413 107.735 138.764L107.701 138.733C106.198 137.399 104.892 135.857 103.822 134.155C102.874 132.635 102.302 131.079 101.372 128.683C100.907 127.492 100.579 126.555 100.396 126.032C98.2286 119.806 96.8059 114.225 94.605 113.422C94.2736 113.31 93.9294 113.24 93.5805 113.213C93.116 113.169 92.6476 113.219 92.2027 113.359C91.7579 113.5 91.3457 113.728 90.9904 114.03C90.7548 114.231 90.5499 114.466 90.3824 114.727C89.5312 116.079 89.9538 118.04 90.8262 121.904C90.9661 122.512 91.0907 123.014 91.1728 123.348L92.939 131.447C92.939 131.447 88.5979 132.428 88.8411 135.87C88.8411 135.87 84.8283 133.492 83.2719 138.162C83.2719 138.162 78.1951 138.572 79.6695 144.142C79.6695 144.142 81.7154 151.596 84.7462 151.842C84.7462 151.842 84.1747 163.473 93.8389 168.562L109.647 166.574L110.687 162.068C113.423 150.212 112.188 146.367 111.729 144.944C111.286 143.549 110.67 142.214 109.896 140.971Z" fill="white"/>
<path d="M95.8877 161.968C95.7918 161.968 95.6972 161.946 95.6116 161.903C95.526 161.859 95.4518 161.796 95.3952 161.719C93.5701 159.241 92.4369 156.322 92.112 153.262C91.422 146.27 95.4165 141.102 97.052 139.323L95.7843 136.052C95.6597 135.721 95.4986 135.298 95.3192 134.879C94.313 132.541 93.86 130.577 93.9756 129.039C94.0083 128.574 94.1348 128.121 94.3474 127.707C94.5601 127.293 94.8545 126.926 95.2128 126.628C95.5638 126.335 95.9706 126.117 96.4085 125.986C96.8465 125.856 97.3064 125.816 97.7603 125.868C100.515 126.172 102.162 129.322 102.232 129.452C102.269 129.523 102.291 129.601 102.298 129.681C102.305 129.76 102.296 129.841 102.271 129.917C102.247 129.993 102.208 130.064 102.157 130.125C102.105 130.186 102.042 130.236 101.971 130.273C101.9 130.31 101.822 130.332 101.742 130.339C101.663 130.346 101.582 130.337 101.506 130.312C101.43 130.288 101.359 130.249 101.298 130.197C101.237 130.146 101.187 130.083 101.15 130.012C101.15 129.984 99.7303 127.309 97.6266 127.078C97.3348 127.044 97.039 127.069 96.7573 127.153C96.4757 127.237 96.2139 127.377 95.988 127.564C95.7557 127.758 95.565 127.996 95.4276 128.265C95.2902 128.534 95.2088 128.829 95.1885 129.13C95.0882 130.471 95.5077 132.243 96.4349 134.398C96.6264 134.839 96.7936 135.283 96.9213 135.614L98.4656 139.597L98.1951 139.876C96.8788 141.241 92.641 146.23 93.3311 153.137C93.6306 155.979 94.6797 158.691 96.3711 160.995C96.4659 161.125 96.5054 161.287 96.4809 161.446C96.4564 161.605 96.3699 161.748 96.2403 161.843C96.1388 161.921 96.0154 161.965 95.8877 161.968Z" fill="#272727"/>
<path d="M130.325 222.011C126.208 221.74 122.077 222.23 118.138 223.458C103.482 228.076 96.9793 241.61 95.5991 244.674L130.325 244.854V222.011Z" fill="white"/>
<path d="M130.933 245.465L94.6597 245.276L95.0427 244.425C97.3106 239.403 104.078 227.252 117.955 222.878C121.965 221.627 126.171 221.127 130.361 221.403L130.933 221.44V245.465ZM96.5505 244.072L129.717 244.243V222.586C125.861 222.398 122.003 222.893 118.32 224.048C105.64 228.033 99.0829 238.792 96.5505 244.072Z" fill="#272727"/>
<path d="M90.4492 153.52C89.8555 153.526 89.2683 153.397 88.7316 153.143C88.0633 152.816 87.4968 152.312 87.0931 151.687C86.8847 151.941 86.6246 152.149 86.33 152.295C85.7713 152.56 85.1318 152.598 84.5455 152.401C84.4705 152.374 84.4016 152.332 84.3427 152.278C84.2838 152.224 84.2361 152.159 84.2024 152.087C84.1687 152.014 84.1495 151.936 84.1461 151.856C84.1426 151.776 84.1549 151.697 84.1823 151.622C84.2096 151.546 84.2515 151.478 84.3055 151.419C84.3594 151.36 84.4245 151.312 84.4969 151.278C84.5693 151.245 84.6477 151.226 84.7275 151.222C84.8073 151.219 84.887 151.231 84.962 151.258C85.2394 151.342 85.5377 151.321 85.8011 151.201C85.9848 151.082 86.1431 150.929 86.2668 150.749C86.3905 150.569 86.4771 150.366 86.5215 150.152L87.1295 148.173L87.698 150.161C87.698 150.161 88.1023 151.489 89.2758 152.043C90.1087 152.438 91.1667 152.368 92.4191 151.839C92.4932 151.804 92.5735 151.785 92.6553 151.781C92.737 151.778 92.8186 151.792 92.895 151.821C92.9714 151.85 93.0412 151.895 93.1001 151.952C93.159 152.008 93.2058 152.076 93.2377 152.152C93.2697 152.227 93.2861 152.308 93.2859 152.39C93.2858 152.472 93.2692 152.553 93.237 152.628C93.2049 152.703 93.1579 152.771 93.0988 152.828C93.0398 152.884 92.9699 152.929 92.8934 152.958C92.1244 153.307 91.2933 153.498 90.4492 153.52Z" fill="#272727"/>
<path d="M87.1022 150.942C86.9732 150.942 86.8478 150.9 86.7439 150.824C86.6401 150.747 86.5633 150.64 86.5246 150.516L82.6881 138.338C82.6398 138.184 82.6545 138.017 82.7292 137.874C82.8039 137.731 82.9324 137.624 83.0864 137.575C83.2404 137.527 83.4073 137.542 83.5504 137.616C83.6935 137.691 83.801 137.819 83.8494 137.973L87.6707 150.152C87.6947 150.228 87.7035 150.308 87.6965 150.388C87.6895 150.467 87.6668 150.545 87.6298 150.616C87.5928 150.687 87.5422 150.75 87.4809 150.801C87.4196 150.852 87.3487 150.891 87.2724 150.915C87.2173 150.932 87.16 150.941 87.1022 150.942Z" fill="#272727"/>
<path d="M93.121 148.422C92.9957 148.422 92.8735 148.383 92.7712 148.31C92.6689 148.238 92.5915 148.136 92.5495 148.018L88.2783 136.067C88.2514 135.992 88.2395 135.912 88.2434 135.832C88.2473 135.753 88.2669 135.674 88.3011 135.602C88.3352 135.53 88.3833 135.465 88.4425 135.411C88.5017 135.358 88.5709 135.316 88.6461 135.289C88.7214 135.262 88.8012 135.25 88.8811 135.254C88.9609 135.258 89.0392 135.278 89.1114 135.312C89.1837 135.346 89.2485 135.394 89.3022 135.453C89.3559 135.512 89.3974 135.582 89.4244 135.657L93.6804 147.61C93.7131 147.702 93.7231 147.8 93.7098 147.897C93.6965 147.994 93.6601 148.086 93.6038 148.165C93.5474 148.245 93.4728 148.31 93.3861 148.354C93.2995 148.399 93.2033 148.422 93.1058 148.422H93.121Z" fill="#272727"/>
<path d="M252.305 81.2014H212.526C206.758 81.2014 202.081 85.8773 202.081 91.6453C202.081 97.4134 206.758 102.089 212.526 102.089H252.305C258.074 102.089 262.75 97.4134 262.75 91.6453C262.75 85.8773 258.074 81.2014 252.305 81.2014Z" fill="white"/>
<path d="M252.32 102.7H212.523C209.592 102.7 206.78 101.536 204.707 99.4628C202.634 97.3899 201.47 94.5784 201.47 91.6469C201.47 88.7153 202.634 85.9039 204.707 83.8309C206.78 81.758 209.592 80.5934 212.523 80.5934H252.32C255.251 80.5934 258.063 81.758 260.136 83.8309C262.209 85.9038 263.373 88.7153 263.373 91.6469C263.373 94.5784 262.209 97.3899 260.136 99.4628C258.063 101.536 255.251 102.7 252.32 102.7ZM212.523 81.8094C209.914 81.8094 207.412 82.8459 205.567 84.6908C203.722 86.5356 202.686 89.0378 202.686 91.6469C202.686 94.2559 203.722 96.7581 205.567 98.603C207.412 100.448 209.914 101.484 212.523 101.484H252.32C254.929 101.484 257.431 100.448 259.276 98.603C261.121 96.7581 262.157 94.2559 262.157 91.6469C262.157 89.0378 261.121 86.5356 259.276 84.6908C257.431 82.8459 254.929 81.8094 252.32 81.8094H212.523Z" fill="#272727"/>
<path d="M215.886 95.0486C217.764 95.0486 219.287 93.5256 219.287 91.6469C219.287 89.7681 217.764 88.2451 215.886 88.2451C214.007 88.2451 212.484 89.7681 212.484 91.6469C212.484 93.5256 214.007 95.0486 215.886 95.0486Z" fill="#3D3BFF"/>
<path d="M232.414 95.0486C234.293 95.0486 235.816 93.5256 235.816 91.6469C235.816 89.7681 234.293 88.2451 232.414 88.2451C230.535 88.2451 229.012 89.7681 229.012 91.6469C229.012 93.5256 230.535 95.0486 232.414 95.0486Z" fill="#3D3BFF"/>
<path d="M248.943 95.0486C250.822 95.0486 252.345 93.5256 252.345 91.6469C252.345 89.7681 250.822 88.2451 248.943 88.2451C247.064 88.2451 245.541 89.7681 245.541 91.6469C245.541 93.5256 247.064 95.0486 248.943 95.0486Z" fill="#3D3BFF"/>
<path d="M53.5801 138.46H34.2609C30.3053 138.46 27.0986 141.666 27.0986 145.622V164.941C27.0986 168.897 30.3053 172.104 34.2609 172.104H53.5801C57.5357 172.104 60.7423 168.897 60.7423 164.941V145.622C60.7423 141.666 57.5357 138.46 53.5801 138.46Z" fill="white"/>
<path d="M53.5771 172.712H34.261C32.2006 172.708 30.2256 171.888 28.7691 170.431C27.3125 168.974 26.4931 166.999 26.4907 164.938V145.616C26.4931 143.556 27.3125 141.58 28.7691 140.123C30.2256 138.666 32.2006 137.846 34.261 137.843H53.5771C55.638 137.845 57.6137 138.665 59.071 140.122C60.5282 141.579 61.348 143.555 61.3504 145.616V164.929C61.3504 166.992 60.5317 168.97 59.0742 170.429C57.6167 171.888 55.6396 172.709 53.5771 172.712ZM34.261 139.068C32.5242 139.069 30.859 139.76 29.6303 140.987C28.4017 142.215 27.7099 143.879 27.7067 145.616V164.929C27.7083 166.667 28.3993 168.334 29.628 169.563C30.8567 170.792 32.5229 171.484 34.261 171.486H53.5771C55.3155 171.484 56.9819 170.792 58.2112 169.563C59.4404 168.334 60.132 166.667 60.1344 164.929V145.616C60.1328 143.877 59.4414 142.21 58.212 140.981C56.9827 139.752 55.3157 139.06 53.5771 139.059L34.261 139.068Z" fill="#272727"/>
<path d="M53.3034 149.784C52.9316 149.101 52.3768 148.536 51.7013 148.151C48.5975 146.416 45.4632 147.492 43.928 149.747C42.3715 147.464 39.1765 146.385 36.024 148.227C35.452 148.56 34.9739 149.033 34.6347 149.601C33.209 151.997 33.4887 154.402 34.6864 156.113C34.708 156.144 34.7314 156.173 34.7563 156.201V156.216C34.7807 156.25 36.3067 158.019 37.2613 158.986C39.0835 160.761 40.9941 162.443 42.9856 164.026C43.2432 164.236 43.5653 164.351 43.8976 164.351C44.2299 164.351 44.552 164.236 44.8096 164.026C46.5272 162.655 47.9226 161.467 48.9592 160.558C49.7511 159.898 50.4986 159.187 51.1967 158.43C52.6863 156.785 55.9664 154.63 53.3034 149.784Z" fill="#3D3BFF"/>
<path d="M273.244 125.826H213.949C208.304 125.826 203.729 130.401 203.729 136.046V200.959C203.729 206.604 208.304 211.18 213.949 211.18H273.244C278.889 211.18 283.465 206.604 283.465 200.959V136.046C283.465 130.401 278.889 125.826 273.244 125.826Z" fill="white"/>
<path d="M273.244 211.788H213.949C211.078 211.784 208.326 210.643 206.296 208.613C204.266 206.583 203.124 203.83 203.121 200.959V136.046C203.124 133.175 204.266 130.423 206.296 128.393C208.326 126.363 211.078 125.221 213.949 125.218H273.244C276.115 125.221 278.868 126.363 280.898 128.393C282.928 130.423 284.07 133.175 284.073 136.046V200.959C284.07 203.83 282.928 206.583 280.898 208.613C278.868 210.643 276.115 211.784 273.244 211.788ZM213.949 126.434C211.401 126.437 208.958 127.451 207.156 129.253C205.354 131.055 204.34 133.498 204.337 136.046V200.959C204.34 203.508 205.354 205.951 207.156 207.753C208.958 209.555 211.401 210.568 213.949 210.572H273.244C275.793 210.568 278.236 209.555 280.038 207.753C281.84 205.951 282.854 203.508 282.857 200.959V136.046C282.854 133.497 281.841 131.054 280.039 129.252C278.237 127.45 275.793 126.436 273.244 126.434H213.949Z" fill="#272727"/>
<path d="M223.649 157.925H215.718C213.416 157.925 211.55 159.791 211.55 162.093V170.024C211.55 172.326 213.416 174.192 215.718 174.192H223.649C225.951 174.192 227.817 172.326 227.817 170.024V162.093C227.817 159.791 225.951 157.925 223.649 157.925Z" fill="#F1AFAB"/>
<path d="M223.649 182.619H215.718C213.416 182.619 211.55 184.485 211.55 186.787V194.718C211.55 197.02 213.416 198.886 215.718 198.886H223.649C225.951 198.886 227.817 197.02 227.817 194.718V186.787C227.817 184.485 225.951 182.619 223.649 182.619Z" fill="#F1AFAB"/>
<path d="M274.576 162.102H237.859C237.698 162.102 237.543 162.038 237.429 161.924C237.315 161.81 237.251 161.655 237.251 161.494C237.251 161.333 237.315 161.178 237.429 161.064C237.543 160.95 237.698 160.886 237.859 160.886H274.576C274.737 160.886 274.892 160.95 275.006 161.064C275.12 161.178 275.184 161.333 275.184 161.494C275.184 161.655 275.12 161.81 275.006 161.924C274.892 162.038 274.737 162.102 274.576 162.102Z" fill="#272727"/>
<path d="M260.492 171.055H237.859C237.698 171.055 237.543 170.991 237.429 170.877C237.315 170.763 237.251 170.608 237.251 170.447C237.251 170.285 237.315 170.131 237.429 170.017C237.543 169.903 237.698 169.839 237.859 169.839H260.492C260.653 169.839 260.808 169.903 260.922 170.017C261.036 170.131 261.1 170.285 261.1 170.447C261.1 170.608 261.036 170.763 260.922 170.877C260.808 170.991 260.653 171.055 260.492 171.055Z" fill="#272727"/>
<path d="M274.576 186.884H237.859C237.698 186.884 237.543 186.82 237.429 186.706C237.315 186.592 237.251 186.437 237.251 186.276C237.251 186.115 237.315 185.96 237.429 185.846C237.543 185.732 237.698 185.668 237.859 185.668H274.576C274.737 185.668 274.892 185.732 275.006 185.846C275.12 185.96 275.184 186.115 275.184 186.276C275.184 186.437 275.12 186.592 275.006 186.706C274.892 186.82 274.737 186.884 274.576 186.884Z" fill="#272727"/>
<path d="M260.492 195.837H237.859C237.698 195.837 237.543 195.773 237.429 195.659C237.315 195.545 237.251 195.39 237.251 195.229C237.251 195.068 237.315 194.913 237.429 194.799C237.543 194.685 237.698 194.621 237.859 194.621H260.492C260.653 194.621 260.808 194.685 260.922 194.799C261.036 194.913 261.1 195.068 261.1 195.229C261.1 195.39 261.036 195.545 260.922 195.659C260.808 195.773 260.653 195.837 260.492 195.837Z" fill="#272727"/>
<path d="M226.057 137.265C225.804 136.797 225.423 136.411 224.96 136.149C222.832 134.958 220.686 135.696 219.634 137.244C218.567 135.678 216.378 134.94 214.223 136.195C213.832 136.425 213.505 136.75 213.274 137.14C212.295 138.779 212.487 140.427 213.307 141.6C213.322 141.622 213.338 141.642 213.356 141.661C213.374 141.685 214.42 142.898 215.074 143.561C215.633 144.123 217.013 145.412 218.995 147.011C219.171 147.153 219.391 147.231 219.617 147.231C219.843 147.231 220.063 147.153 220.239 147.011C221.415 146.069 222.367 145.254 223.081 144.634C223.618 144.182 224.126 143.697 224.601 143.181C225.635 142.065 227.884 140.588 226.057 137.265Z" fill="#3D3BFF"/>
<path d="M200.391 251.071H134.544C133.54 251.071 132.545 250.873 131.616 250.489C130.688 250.105 129.844 249.542 129.134 248.831C128.423 248.121 127.86 247.278 127.475 246.35C127.091 245.421 126.893 244.427 126.893 243.422V230.797C126.893 226.292 128.683 221.973 131.868 218.788C135.053 215.603 139.373 213.813 143.877 213.812H215.171C218.154 213.812 221.015 214.997 223.125 217.107C225.234 219.216 226.419 222.077 226.419 225.06C226.418 228.477 225.744 231.86 224.435 235.017C223.126 238.173 221.209 241.041 218.792 243.456C216.375 245.871 213.506 247.787 210.349 249.093C207.191 250.4 203.808 251.072 200.391 251.071Z" fill="#BEBEBE"/>
<path d="M98.5658 252.277C95.8399 252.221 93.1518 251.628 90.655 250.533C88.1583 249.437 85.9017 247.861 84.0143 245.893C82.1269 243.925 80.6455 241.605 79.6548 239.065C78.6641 236.525 78.1835 233.815 78.2404 231.089L79.3743 176.536C79.4405 173.403 80.7481 170.425 83.0095 168.256C85.2709 166.087 88.3011 164.904 91.434 164.969L109.324 165.343C112.455 165.41 115.43 166.719 117.596 168.979C119.763 171.24 120.942 174.269 120.876 177.399L119.755 231.952C119.698 234.678 119.105 237.366 118.01 239.863C116.914 242.36 115.338 244.616 113.37 246.504C111.403 248.391 109.082 249.872 106.542 250.863C104.002 251.854 101.292 252.334 98.5658 252.277Z" fill="#BEBEBE"/>
<path d="M195.928 213.809H179.42C179.259 213.809 179.105 213.745 178.991 213.631C178.877 213.517 178.812 213.363 178.812 213.201C178.812 213.04 178.877 212.885 178.991 212.771C179.105 212.657 179.259 212.593 179.42 212.593H195.928C196.089 212.593 196.244 212.657 196.358 212.771C196.472 212.885 196.536 213.04 196.536 213.201C196.536 213.363 196.472 213.517 196.358 213.631C196.244 213.745 196.089 213.809 195.928 213.809Z" fill="#272727"/>
<path d="M176.867 125.421C175.994 125.421 175.139 125.162 174.413 124.677C173.686 124.192 173.119 123.502 172.785 122.695C172.45 121.888 172.362 120.999 172.532 120.142C172.701 119.285 173.121 118.497 173.739 117.879C174.356 117.26 175.143 116.839 176 116.667C176.856 116.495 177.745 116.582 178.553 116.915C179.36 117.248 180.051 117.813 180.538 118.539C181.025 119.264 181.286 120.118 181.288 120.992C181.288 121.573 181.175 122.149 180.953 122.686C180.731 123.223 180.406 123.711 179.995 124.123C179.585 124.534 179.097 124.86 178.561 125.083C178.024 125.306 177.449 125.421 176.867 125.421ZM176.867 117.797C176.233 117.797 175.613 117.985 175.086 118.338C174.559 118.69 174.149 119.191 173.906 119.777C173.664 120.363 173.601 121.008 173.726 121.63C173.85 122.251 174.156 122.822 174.605 123.27C175.054 123.718 175.626 124.022 176.248 124.145C176.87 124.267 177.515 124.203 178.1 123.959C178.685 123.715 179.185 123.303 179.536 122.775C179.887 122.247 180.073 121.626 180.072 120.992C180.068 120.144 179.729 119.332 179.129 118.733C178.529 118.134 177.715 117.798 176.867 117.797Z" fill="#272727"/>
<path d="M120.962 178.989C120.8 178.989 120.646 178.925 120.532 178.811C120.418 178.697 120.354 178.542 120.354 178.381C120.275 166.248 110.352 165.984 109.936 165.984C109.774 165.984 109.62 165.92 109.506 165.806C109.392 165.692 109.328 165.537 109.328 165.376C109.328 165.215 109.392 165.06 109.506 164.946C109.62 164.832 109.774 164.768 109.936 164.768C110.051 164.768 121.469 165.032 121.558 178.384C121.558 178.545 121.493 178.7 121.379 178.814C121.265 178.928 121.111 178.992 120.95 178.992L120.962 178.989Z" fill="#272727"/>
<path d="M156.505 152.34H137.657C137.496 152.34 137.341 152.276 137.227 152.162C137.113 152.048 137.049 151.894 137.049 151.732C137.049 151.571 137.113 151.417 137.227 151.303C137.341 151.189 137.496 151.124 137.657 151.124H156.505C156.667 151.124 156.821 151.189 156.935 151.303C157.049 151.417 157.113 151.571 157.113 151.732C157.113 151.894 157.049 152.048 156.935 152.162C156.821 152.276 156.667 152.34 156.505 152.34Z" fill="#272727"/>
<path d="M138.642 248.709C138.481 248.709 138.326 248.644 138.212 248.53C138.098 248.416 138.034 248.262 138.034 248.101V220.522C138.034 220.36 138.098 220.206 138.212 220.092C138.326 219.978 138.481 219.914 138.642 219.914C138.803 219.914 138.958 219.978 139.072 220.092C139.186 220.206 139.25 220.36 139.25 220.522V248.101C139.25 248.262 139.186 248.416 139.072 248.53C138.958 248.644 138.803 248.709 138.642 248.709Z" fill="#272727"/>
<path d="M113.59 176.405H86.0138C85.8525 176.405 85.6979 176.341 85.5838 176.227C85.4698 176.113 85.4058 175.958 85.4058 175.797C85.4058 175.636 85.4698 175.481 85.5838 175.367C85.6979 175.253 85.8525 175.189 86.0138 175.189H113.59C113.751 175.189 113.905 175.253 114.02 175.367C114.134 175.481 114.198 175.636 114.198 175.797C114.198 175.958 114.134 176.113 114.02 176.227C113.905 176.341 113.751 176.405 113.59 176.405Z" fill="#272727"/>
<path d="M47.3693 217.631C47.2447 217.631 47.123 217.593 47.0208 217.521C46.9186 217.45 46.8407 217.349 46.7977 217.232C43.2713 207.614 35.9814 199.804 35.9084 199.728C35.7976 199.611 35.7379 199.454 35.7424 199.293C35.747 199.131 35.8155 198.979 35.9328 198.868C36.0501 198.757 36.2066 198.697 36.368 198.702C36.5293 198.706 36.6822 198.775 36.7931 198.892C36.866 198.971 44.3262 206.954 47.9408 216.828C47.9957 216.979 47.9884 217.146 47.9206 217.292C47.8528 217.438 47.73 217.551 47.579 217.606C47.5112 217.627 47.4401 217.636 47.3693 217.631Z" fill="#272727"/>
<path d="M50.8106 218.622C50.6494 218.622 50.4947 218.558 50.3807 218.444C50.2667 218.329 50.2026 218.175 50.2026 218.014V209.687C50.2026 209.526 50.2667 209.371 50.3807 209.257C50.4947 209.143 50.6494 209.079 50.8106 209.079C50.9719 209.079 51.1265 209.143 51.2406 209.257C51.3546 209.371 51.4186 209.526 51.4186 209.687V218.014C51.4186 218.175 51.3546 218.329 51.2406 218.444C51.1265 218.558 50.9719 218.622 50.8106 218.622Z" fill="#272727"/>
<path d="M68.7255 230.535C68.7246 228.545 67.9336 226.636 66.5262 225.229C65.1187 223.821 63.2101 223.03 61.2197 223.03H59.5477V217.36H38.8574V223.033H37.1854C35.1948 223.033 33.2857 223.823 31.8781 225.231C30.4705 226.639 29.6797 228.548 29.6797 230.538C29.6821 232.527 30.4741 234.434 31.8815 235.839C33.2889 237.244 35.1967 238.033 37.1854 238.032C36.1999 238.032 35.224 238.225 34.3133 238.602C33.4027 238.979 32.5753 239.532 31.8783 240.228C31.1812 240.925 30.6283 241.752 30.2511 242.663C29.8739 243.573 29.6797 244.549 29.6797 245.535C29.6793 246.52 29.8732 247.497 30.2502 248.408C30.6273 249.318 31.1801 250.146 31.8772 250.843C32.5742 251.54 33.4018 252.093 34.3126 252.47C35.2235 252.847 36.1997 253.041 37.1854 253.04H61.2197C63.2103 253.04 65.1195 252.25 66.5271 250.842C67.9347 249.434 68.7255 247.525 68.7255 245.535C68.7246 243.545 67.9335 241.636 66.526 240.229C65.1185 238.822 63.2098 238.032 61.2197 238.032C63.2088 238.032 65.1165 237.242 66.5238 235.837C67.9312 234.431 68.723 232.524 68.7255 230.535Z" fill="#3D3BFF"/>
<path d="M61.5358 238.683H53.0572C52.896 238.683 52.7413 238.618 52.6273 238.504C52.5133 238.39 52.4492 238.236 52.4492 238.075C52.4492 237.913 52.5133 237.759 52.6273 237.645C52.7413 237.531 52.896 237.467 53.0572 237.467H61.5358C61.697 237.467 61.8517 237.531 61.9657 237.645C62.0797 237.759 62.1438 237.913 62.1438 238.075C62.1438 238.236 62.0797 238.39 61.9657 238.504C61.8517 238.618 61.697 238.683 61.5358 238.683Z" fill="#272727"/>
<path d="M41.1738 238.64H36.7354C36.5742 238.64 36.4195 238.576 36.3055 238.462C36.1915 238.348 36.1274 238.193 36.1274 238.032C36.1274 237.871 36.1915 237.716 36.3055 237.602C36.4195 237.488 36.5742 237.424 36.7354 237.424H41.1738C41.3351 237.424 41.4897 237.488 41.6038 237.602C41.7178 237.716 41.7818 237.871 41.7818 238.032C41.7818 238.193 41.7178 238.348 41.6038 238.462C41.4897 238.576 41.3351 238.64 41.1738 238.64Z" fill="#272727"/>
<path d="M49.2055 219.123C55.023 219.123 59.7391 218.14 59.7391 216.928C59.7391 215.716 55.023 214.733 49.2055 214.733C43.3879 214.733 38.6719 215.716 38.6719 216.928C38.6719 218.14 43.3879 219.123 49.2055 219.123Z" fill="#272727"/>
<path d="M50.8107 209.687C53.5558 209.687 55.7811 207.462 55.7811 204.717C55.7811 201.972 53.5558 199.746 50.8107 199.746C48.0657 199.746 45.8403 201.972 45.8403 204.717C45.8403 207.462 48.0657 209.687 50.8107 209.687Z" fill="#FFDEDC"/>
<path d="M34.5619 202.604C37.5034 202.604 39.888 200.219 39.888 197.278C39.888 194.336 37.5034 191.952 34.5619 191.952C31.6204 191.952 29.2358 194.336 29.2358 197.278C29.2358 200.219 31.6204 202.604 34.5619 202.604Z" fill="#FFDEDC"/>
<path d="M98.6815 120.852C98.0735 119.192 97.1949 117.061 95.9607 115.28C94.9149 113.76 93.7202 113.121 92.4069 113.349C92.0272 113.395 91.6621 113.523 91.3378 113.726C91.0136 113.929 90.7382 114.201 90.5312 114.523C89.4946 116.186 90.1847 119.119 90.5312 120.299L90.5769 120.451L89.4186 120.819L89.3639 120.639C88.8805 118.973 88.2513 115.882 89.5007 113.878C89.7968 113.41 90.192 113.013 90.6584 112.714C91.1248 112.415 91.6511 112.222 92.2002 112.149C93.9969 111.845 95.6445 112.678 96.9639 114.581C98.2833 116.484 99.1801 118.697 99.8245 120.42L98.6815 120.852Z" fill="#272727"/>
</svg>
