<svg width="36" height="36" viewBox="0 0 36 36" fill="none" xmlns="http://www.w3.org/2000/svg">
<path fill-rule="evenodd" clip-rule="evenodd" d="M10.0305 5.23956C9.17716 5.23956 8.38032 5.66602 7.907 6.376L2.67271 14.2274C2.35227 14.7081 2.31395 15.3236 2.5723 15.8403C5.43662 21.569 9.41722 26.6672 14.2801 30.8354L16.8333 33.0238C17.5046 33.5993 18.4953 33.5993 19.1667 33.0238L21.7198 30.8354C26.5827 26.6672 30.5633 21.569 33.4277 15.8403C33.686 15.3236 33.6477 14.7081 33.3272 14.2274L28.093 6.37601C27.6196 5.66602 26.8228 5.23956 25.9695 5.23956H10.0305ZM9.72711 7.58941C9.79472 7.48799 9.90856 7.42706 10.0305 7.42706H13.4427L10.6498 14.13C10.5855 14.2844 10.5369 14.4436 10.5042 14.6053C9.47776 14.5289 8.45222 14.4368 7.42791 14.329L5.37791 14.1132L9.72711 7.58941ZM5.28135 16.3026C7.89673 21.1005 11.3503 25.3957 15.4818 28.983L10.9238 16.8285C9.68079 16.743 8.43896 16.635 7.19891 16.5045L5.28135 16.3026ZM13.3112 16.9648L18 29.4683L22.6888 16.9648C19.5645 17.1069 16.4354 17.1069 13.3112 16.9648ZM25.0762 16.8285L20.5182 28.983C24.6497 25.3957 28.1032 21.1005 30.7186 16.3026L28.801 16.5045C27.561 16.635 26.3192 16.743 25.0762 16.8285ZM30.6221 14.1132L28.572 14.329C27.5477 14.4368 26.5222 14.5289 25.4958 14.6053C25.4631 14.4436 25.4145 14.2844 25.3502 14.13L22.5573 7.42706H25.9695C26.0914 7.42706 26.2052 7.48799 26.2729 7.58941L30.6221 14.1132ZM23.2379 14.748C19.7483 14.9292 16.2517 14.9292 12.7621 14.748L15.8125 7.42706H20.1875L23.2379 14.748Z" fill="white"/>
</svg>
