<svg width="350" height="350" viewBox="0 0 350 350" fill="none" xmlns="http://www.w3.org/2000/svg">
<path d="M308.882 262.598H42.2412V325.511H308.882V262.598Z" fill="#2A29C2"/>
<path d="M228.742 305.011C228.707 305.015 228.672 305.015 228.637 305.011C228.546 304.997 228.459 304.966 228.38 304.918C228.301 304.871 228.232 304.808 228.178 304.734C228.123 304.66 228.084 304.576 228.062 304.486C228.04 304.397 228.035 304.304 228.049 304.213L260.05 92.6591C260.193 91.7088 260.13 90.7386 259.864 89.815C259.599 88.8914 259.137 88.036 258.51 87.3073C257.883 86.5786 257.107 85.9937 256.233 85.5927C255.36 85.1917 254.41 84.9839 253.449 84.9836H214.497C212.931 84.9828 211.415 85.5328 210.213 86.5373C209.011 87.5419 208.201 88.937 207.924 90.4786L169.974 301.588C169.962 301.683 169.931 301.774 169.883 301.856C169.835 301.938 169.771 302.01 169.694 302.066C169.618 302.123 169.53 302.163 169.437 302.185C169.345 302.206 169.248 302.209 169.155 302.192C169.061 302.175 168.972 302.139 168.892 302.086C168.813 302.034 168.745 301.965 168.693 301.885C168.641 301.806 168.606 301.716 168.589 301.622C168.573 301.528 168.576 301.432 168.598 301.34L206.549 90.2301C206.882 88.3647 207.861 86.676 209.314 85.46C210.767 84.2441 212.602 83.5786 214.497 83.5801H253.431C254.594 83.5801 255.743 83.8313 256.8 84.3163C257.857 84.8013 258.797 85.5088 259.555 86.3904C260.314 87.272 260.873 88.3069 261.194 89.4245C261.516 90.542 261.592 91.7158 261.418 92.8656L229.435 304.416C229.41 304.582 229.326 304.733 229.199 304.842C229.072 304.951 228.91 305.011 228.742 305.011Z" fill="black"/>
<path d="M251.52 152.513H196.189C196.003 152.513 195.825 152.439 195.694 152.308C195.563 152.176 195.489 151.998 195.489 151.813C195.489 151.627 195.563 151.449 195.694 151.318C195.825 151.186 196.003 151.113 196.189 151.113H251.52C251.706 151.113 251.884 151.186 252.015 151.318C252.147 151.449 252.22 151.627 252.22 151.813C252.22 151.998 252.147 152.176 252.015 152.308C251.884 152.439 251.706 152.513 251.52 152.513Z" fill="black"/>
<path d="M241.332 221.75H183.932C183.746 221.75 183.568 221.676 183.437 221.545C183.306 221.413 183.232 221.235 183.232 221.05C183.232 220.864 183.306 220.686 183.437 220.555C183.568 220.423 183.746 220.35 183.932 220.35H241.332C241.518 220.35 241.696 220.423 241.827 220.555C241.958 220.686 242.032 220.864 242.032 221.05C242.032 221.235 241.958 221.413 241.827 221.545C241.696 221.676 241.518 221.75 241.332 221.75Z" fill="black"/>
<path d="M283.927 305.011C283.755 305.012 283.588 304.95 283.459 304.837C283.33 304.723 283.247 304.566 283.227 304.395L258.951 99.925C258.929 99.7394 258.981 99.5525 259.096 99.4055C259.212 99.2584 259.381 99.1633 259.567 99.141C259.752 99.1188 259.939 99.1711 260.086 99.2867C260.233 99.4022 260.329 99.5714 260.351 99.757L284.634 304.231C284.656 304.415 284.603 304.6 284.488 304.746C284.374 304.891 284.206 304.986 284.021 305.008L283.927 305.011Z" fill="black"/>
<path d="M207.949 126.858C210.041 126.858 211.736 125.162 211.736 123.071C211.736 120.979 210.041 119.284 207.949 119.284C205.858 119.284 204.162 120.979 204.162 123.071C204.162 125.162 205.858 126.858 207.949 126.858Z" fill="#FFDEDC"/>
<path d="M234.552 142.636C237.261 142.636 239.456 140.44 239.456 137.732C239.456 135.024 237.261 132.829 234.552 132.829C231.844 132.829 229.649 135.024 229.649 137.732C229.649 140.44 231.844 142.636 234.552 142.636Z" fill="#2A29C2"/>
<path d="M212.195 151.725C215.976 151.725 219.041 148.66 219.041 144.879C219.041 141.098 215.976 138.033 212.195 138.033C208.414 138.033 205.349 141.098 205.349 144.879C205.349 148.66 208.414 151.725 212.195 151.725Z" fill="white"/>
<path d="M210.847 138.807C210.385 138.803 209.937 138.647 209.573 138.363C209.208 138.079 208.947 137.682 208.831 137.235L206.885 129.535C206.788 129.153 206.803 128.75 206.926 128.376C207.049 128.001 207.277 127.669 207.582 127.419C207.887 127.168 208.257 127.01 208.648 126.962C209.04 126.914 209.437 126.979 209.794 127.148L218.939 131.492C219.296 131.66 219.598 131.926 219.81 132.259C220.021 132.592 220.133 132.978 220.133 133.373C220.133 133.767 220.021 134.154 219.81 134.487C219.598 134.82 219.296 135.086 218.939 135.254L211.726 138.6C211.451 138.732 211.152 138.802 210.847 138.807ZM208.901 128.342C208.744 128.344 208.592 128.4 208.471 128.499C208.368 128.581 208.292 128.691 208.252 128.815C208.211 128.939 208.208 129.073 208.243 129.199L210.189 136.899C210.213 136.996 210.259 137.087 210.322 137.164C210.385 137.242 210.465 137.304 210.555 137.348C210.646 137.391 210.744 137.413 210.844 137.414C210.944 137.414 211.043 137.393 211.134 137.351L218.334 133.994C218.45 133.939 218.548 133.851 218.617 133.742C218.686 133.633 218.722 133.507 218.722 133.378C218.722 133.249 218.686 133.123 218.617 133.014C218.548 132.905 218.45 132.818 218.334 132.762L209.188 128.419C209.099 128.373 209.001 128.346 208.901 128.342Z" fill="black"/>
<path d="M222.576 151.116H246.292C245.444 148.645 243.845 146.501 241.719 144.983C239.593 143.465 237.046 142.649 234.434 142.649C231.821 142.649 229.274 143.465 227.148 144.983C225.022 146.501 223.424 148.645 222.576 151.116Z" fill="#3D3BFF"/>
<mask id="mask0_3_596" style="mask-type:luminance" maskUnits="userSpaceOnUse" x="222" y="142" width="25" height="10">
<path d="M222.576 151.116H246.292C245.444 148.645 243.845 146.501 241.719 144.983C239.593 143.465 237.046 142.649 234.434 142.649C231.821 142.649 229.274 143.465 227.148 144.983C225.022 146.501 223.424 148.645 222.576 151.116Z" fill="white"/>
</mask>
<g mask="url(#mask0_3_596)">
<path d="M238.001 147.886C236.673 147.886 235.376 147.492 234.273 146.755C233.17 146.018 232.31 144.97 231.802 143.744C231.294 142.518 231.161 141.169 231.42 139.867C231.679 138.566 232.318 137.37 233.256 136.432C234.195 135.493 235.39 134.854 236.692 134.595C237.993 134.337 239.342 134.469 240.568 134.977C241.794 135.485 242.842 136.345 243.579 137.448C244.317 138.552 244.71 139.849 244.71 141.176C244.708 142.955 244.001 144.66 242.743 145.918C241.485 147.176 239.779 147.884 238.001 147.886ZM238.001 135.867C236.95 135.867 235.924 136.178 235.051 136.761C234.178 137.345 233.497 138.174 233.095 139.144C232.693 140.114 232.588 141.182 232.793 142.212C232.998 143.242 233.504 144.188 234.246 144.93C234.989 145.673 235.935 146.179 236.965 146.384C237.995 146.588 239.062 146.483 240.032 146.081C241.003 145.679 241.832 144.999 242.415 144.126C242.999 143.253 243.31 142.226 243.31 141.176C243.308 139.768 242.748 138.419 241.753 137.424C240.758 136.428 239.408 135.868 238.001 135.867Z" fill="white"/>
<path d="M227.151 158.827C226.479 158.822 225.811 158.74 225.159 158.582C222.863 158.046 220.466 156.671 218.411 154.707C216.357 152.744 214.866 150.413 214.211 148.145C213.532 145.744 213.861 143.682 215.152 142.335C216.444 140.987 218.484 140.557 220.91 141.124C223.206 141.659 225.604 143.035 227.662 145.002C229.72 146.969 231.207 149.296 231.862 151.564C232.541 153.962 232.212 156.023 230.917 157.371C230.007 158.333 228.705 158.827 227.151 158.827ZM218.939 142.279C218.434 142.25 217.929 142.327 217.454 142.503C216.98 142.678 216.546 142.95 216.181 143.301C215.25 144.277 215.033 145.859 215.572 147.763C216.146 149.793 217.497 151.9 219.377 153.692C221.256 155.484 223.423 156.741 225.477 157.22C227.402 157.668 228.978 157.381 229.905 156.405C230.833 155.428 231.053 153.846 230.514 151.946C229.94 149.912 228.589 147.805 226.709 146.013C224.83 144.218 222.663 142.965 220.605 142.485C220.061 142.354 219.503 142.285 218.943 142.279H218.939Z" fill="white"/>
</g>
<path d="M211.505 194.74C211.361 194.74 211.221 194.696 211.104 194.614C210.986 194.532 210.896 194.416 210.847 194.282C208.281 187.282 202.979 181.608 202.926 181.552C202.819 181.414 202.768 181.241 202.782 181.067C202.795 180.893 202.874 180.731 203.001 180.611C203.129 180.492 203.296 180.425 203.471 180.423C203.645 180.421 203.815 180.484 203.945 180.6C204.172 180.838 209.496 186.55 212.163 193.806C212.195 193.892 212.209 193.984 212.206 194.076C212.202 194.168 212.18 194.258 212.141 194.342C212.103 194.425 212.048 194.5 211.98 194.563C211.912 194.625 211.833 194.673 211.746 194.705C211.668 194.73 211.587 194.742 211.505 194.74Z" fill="black"/>
<path d="M214.025 195.465C213.84 195.465 213.662 195.391 213.53 195.26C213.399 195.128 213.325 194.95 213.325 194.765V188.668C213.325 188.482 213.399 188.304 213.53 188.173C213.662 188.041 213.84 187.968 214.025 187.968C214.211 187.968 214.389 188.041 214.52 188.173C214.651 188.304 214.725 188.482 214.725 188.668V194.765C214.725 194.857 214.707 194.948 214.672 195.032C214.637 195.117 214.585 195.195 214.52 195.26C214.455 195.325 214.378 195.376 214.293 195.411C214.208 195.446 214.117 195.465 214.025 195.465Z" fill="black"/>
<path d="M227.15 203.935C227.15 202.477 226.571 201.08 225.541 200.049C224.51 199.019 223.113 198.44 221.655 198.44H220.43V194.285H205.272V198.45H204.05C203.329 198.45 202.614 198.592 201.947 198.868C201.281 199.145 200.675 199.549 200.165 200.06C199.654 200.57 199.25 201.176 198.973 201.842C198.697 202.509 198.555 203.224 198.555 203.945C198.555 205.403 199.134 206.8 200.165 207.831C201.195 208.861 202.593 209.44 204.05 209.44C202.593 209.44 201.196 210.019 200.166 211.048C199.135 212.078 198.556 213.475 198.555 214.932C198.555 215.653 198.697 216.368 198.973 217.035C199.25 217.701 199.654 218.307 200.165 218.817C200.675 219.327 201.281 219.732 201.947 220.008C202.614 220.285 203.329 220.427 204.05 220.427H221.648C222.37 220.427 223.084 220.285 223.751 220.008C224.418 219.732 225.023 219.327 225.534 218.817C226.044 218.307 226.449 217.701 226.725 217.035C227.001 216.368 227.143 215.653 227.143 214.932C227.142 213.475 226.563 212.078 225.532 211.048C224.502 210.019 223.105 209.44 221.648 209.44C222.371 209.441 223.087 209.299 223.756 209.023C224.424 208.747 225.031 208.341 225.542 207.829C226.053 207.318 226.458 206.711 226.734 206.042C227.01 205.374 227.152 204.658 227.15 203.935Z" fill="#FFDEDC"/>
<path d="M221.875 208.754H215.67V210.154H221.875V208.754Z" fill="black"/>
<path d="M206.969 208.719H203.717V210.119H206.969V208.719Z" fill="black"/>
<path d="M212.849 195.577C217.109 195.577 220.563 194.857 220.563 193.97C220.563 193.083 217.109 192.364 212.849 192.364C208.588 192.364 205.135 193.083 205.135 193.97C205.135 194.857 208.588 195.577 212.849 195.577Z" fill="black"/>
<path d="M214.025 188.671C216.036 188.671 217.665 187.041 217.665 185.031C217.665 183.021 216.036 181.391 214.025 181.391C212.015 181.391 210.385 183.021 210.385 185.031C210.385 187.041 212.015 188.671 214.025 188.671Z" fill="white"/>
<path d="M202.125 183.484C204.278 183.484 206.024 181.738 206.024 179.585C206.024 177.432 204.278 175.686 202.125 175.686C199.972 175.686 198.226 177.432 198.226 179.585C198.226 181.738 199.972 183.484 202.125 183.484Z" fill="white"/>
<path d="M196.297 279.046L169.57 291.429C168.865 291.756 168.558 292.592 168.885 293.297L169.401 294.412C169.728 295.117 170.565 295.423 171.27 295.097L197.996 282.713C198.701 282.387 199.008 281.55 198.681 280.845L198.165 279.731C197.838 279.026 197.002 278.719 196.297 279.046Z" fill="black"/>
<path d="M197.603 270.55L184.303 274.05L166.334 282.373L169.4 288.992C169.681 289.597 170.19 290.065 170.816 290.295C171.442 290.525 172.134 290.497 172.739 290.217L196.388 279.258L197.603 270.55Z" fill="white"/>
<path d="M194.537 284.323L209.664 277.323C210.219 277.063 210.648 276.595 210.859 276.02C211.07 275.445 211.044 274.809 210.787 274.253C209.729 271.969 207.807 270.199 205.445 269.332C203.082 268.465 200.471 268.572 198.187 269.63C195.904 270.688 194.134 272.609 193.267 274.972C192.4 277.335 192.506 279.946 193.564 282.23L194.537 284.323Z" fill="black"/>
<path d="M115.024 309.915C114.853 309.916 114.688 309.856 114.559 309.744C114.431 309.633 114.347 309.478 114.324 309.309L104.905 239.722C104.893 239.63 104.899 239.537 104.922 239.447C104.946 239.357 104.987 239.273 105.043 239.199C105.1 239.126 105.17 239.064 105.25 239.017C105.33 238.97 105.419 238.94 105.511 238.928C105.603 238.915 105.696 238.921 105.786 238.945C105.876 238.968 105.96 239.01 106.033 239.066C106.107 239.122 106.169 239.192 106.216 239.272C106.262 239.353 106.293 239.441 106.305 239.533L115.717 309.12C115.742 309.304 115.693 309.49 115.58 309.638C115.468 309.785 115.302 309.882 115.118 309.908L115.024 309.915Z" fill="black"/>
<path d="M63.9343 309.915H63.8363C63.6525 309.889 63.4866 309.791 63.375 309.642C63.2634 309.494 63.2153 309.307 63.2413 309.124L73.0798 239.53C73.1058 239.344 73.2044 239.176 73.3541 239.063C73.5037 238.95 73.6921 238.902 73.8778 238.928C74.0634 238.954 74.2311 239.052 74.344 239.202C74.4569 239.352 74.5058 239.54 74.4798 239.726L64.6273 309.313C64.6036 309.48 64.5205 309.632 64.3932 309.743C64.2659 309.854 64.1029 309.915 63.9343 309.915Z" fill="black"/>
<path d="M111.541 286.85H67.8123C67.6267 286.85 67.4486 286.776 67.3173 286.645C67.1861 286.513 67.1123 286.335 67.1123 286.15C67.1123 285.964 67.1861 285.786 67.3173 285.655C67.4486 285.523 67.6267 285.45 67.8123 285.45H111.541C111.727 285.45 111.905 285.523 112.036 285.655C112.168 285.786 112.241 285.964 112.241 286.15C112.241 286.335 112.168 286.513 112.036 286.645C111.905 286.776 111.727 286.85 111.541 286.85Z" fill="black"/>
<path d="M67.8159 239.628H110.187C112.858 239.628 115.024 237.462 115.024 234.791V228.042C115.024 225.371 112.858 223.205 110.187 223.205H67.8159C65.1445 223.205 62.9789 225.371 62.9789 228.042V234.791C62.9789 237.462 65.1445 239.628 67.8159 239.628Z" fill="#3D3BFF"/>
<path d="M66.3216 204.306H109.746V186.55H69.3246C67.9606 189.588 67.0185 192.798 66.5246 196.091C66.1257 198.811 66.0575 201.569 66.3216 204.306Z" fill="black"/>
<path d="M153.57 305.375H124.114C123.336 305.375 122.707 306.005 122.707 306.782V308.011C122.707 308.788 123.336 309.418 124.114 309.418H153.57C154.347 309.418 154.977 308.788 154.977 308.011V306.782C154.977 306.005 154.347 305.375 153.57 305.375Z" fill="black"/>
<path d="M158.333 298.2L144.791 295.785H124.988V303.1C124.988 303.768 125.253 304.408 125.725 304.88C126.197 305.352 126.837 305.617 127.505 305.617H153.569L158.333 298.2Z" fill="white"/>
<path d="M175.123 281.981L183.264 276.031C185.793 274.183 187.485 271.407 187.97 268.313C188.455 265.218 187.693 262.058 185.85 259.525L150.203 210.644C147.493 206.928 143.417 204.44 138.873 203.729C134.329 203.017 129.689 204.14 125.972 206.85C122.256 209.56 119.768 213.635 119.057 218.18C118.345 222.724 119.468 227.364 122.178 231.081L157.255 279.185C159.254 281.925 162.259 283.758 165.61 284.283C168.961 284.807 172.382 283.979 175.123 281.981Z" fill="black"/>
<path d="M90.5275 229.194H152.477V217.021C152.477 212.338 150.617 207.847 147.306 204.535C143.994 201.224 139.503 199.364 134.82 199.364H66.2725V204.939C66.2725 208.124 66.8998 211.278 68.1188 214.221C69.3377 217.164 71.1243 219.838 73.3766 222.09C75.6289 224.342 78.3027 226.129 81.2455 227.348C84.1882 228.567 87.3422 229.194 90.5275 229.194Z" fill="black"/>
<path d="M130.567 297.5H140.64C143.776 297.5 146.783 296.254 149 294.037C151.218 291.82 152.463 288.813 152.463 285.677V227.7H117.778V284.711C117.778 286.391 118.108 288.054 118.751 289.606C119.393 291.158 120.335 292.568 121.523 293.755C122.711 294.943 124.121 295.885 125.673 296.528C127.224 297.17 128.888 297.501 130.567 297.5Z" fill="black"/>
<path d="M170.965 282.223C170.852 282.223 170.742 282.197 170.642 282.146C170.542 282.095 170.456 282.02 170.391 281.929L151.095 254.548C151.043 254.472 151.006 254.387 150.986 254.297C150.967 254.207 150.966 254.114 150.982 254.023C150.999 253.932 151.033 253.846 151.083 253.768C151.133 253.691 151.198 253.624 151.274 253.572C151.349 253.519 151.435 253.482 151.525 253.463C151.615 253.444 151.708 253.442 151.799 253.459C151.89 253.475 151.976 253.51 152.053 253.56C152.131 253.61 152.198 253.674 152.25 253.75L171.535 281.12C171.588 281.195 171.626 281.28 171.646 281.37C171.667 281.46 171.669 281.553 171.654 281.643C171.638 281.734 171.605 281.821 171.556 281.899C171.506 281.976 171.442 282.044 171.367 282.097C171.249 282.179 171.109 282.223 170.965 282.223Z" fill="white"/>
<path d="M128.762 298.067C128.576 298.067 128.398 297.993 128.267 297.862C128.135 297.731 128.062 297.553 128.062 297.367V226.254C128.06 223.992 127.16 221.824 125.561 220.225C123.962 218.626 121.794 217.726 119.532 217.725H92.3091C89.078 217.721 85.9804 216.436 83.6957 214.151C81.4109 211.866 80.1258 208.769 80.1221 205.538V199.364C80.1221 199.178 80.1958 199 80.3271 198.869C80.4584 198.737 80.6364 198.664 80.8221 198.664C81.0077 198.664 81.1858 198.737 81.317 198.869C81.4483 199 81.5221 199.178 81.5221 199.364V205.538C81.5249 208.398 82.6622 211.14 84.6846 213.162C86.7069 215.184 89.449 216.322 92.3091 216.325H119.532C122.164 216.328 124.688 217.376 126.549 219.237C128.411 221.098 129.458 223.622 129.462 226.254V297.367C129.462 297.553 129.388 297.731 129.257 297.862C129.125 297.993 128.947 298.067 128.762 298.067Z" fill="white"/>
<path d="M149.754 309.418H166.428C167.041 309.418 167.629 309.174 168.062 308.741C168.495 308.308 168.738 307.72 168.738 307.108C168.738 304.591 167.739 302.177 165.959 300.397C164.18 298.617 161.767 297.617 159.25 297.616C156.732 297.616 154.318 298.616 152.538 300.396C150.758 302.176 149.758 304.59 149.758 307.108L149.754 309.418Z" fill="black"/>
<path d="M151.665 273.025C151.48 273.025 151.302 272.951 151.17 272.82C151.039 272.688 150.965 272.51 150.965 272.325V214.834C150.965 214.648 151.039 214.47 151.17 214.339C151.302 214.207 151.48 214.134 151.665 214.134C151.851 214.134 152.029 214.207 152.16 214.339C152.292 214.47 152.365 214.648 152.365 214.834V272.325C152.365 272.51 152.292 272.688 152.16 272.82C152.029 272.951 151.851 273.025 151.665 273.025Z" fill="white"/>
<path d="M129.325 204.306L149.173 175.91C149.173 175.91 165.973 175.308 172.249 162.656C172.464 162.259 172.602 161.826 172.655 161.378C172.731 160.708 172.619 160.029 172.333 159.418C172.594 159.113 172.828 158.787 173.033 158.442C173.495 157.661 173.943 156.895 173.467 155.992C173.276 155.596 172.939 155.291 172.527 155.138C172.116 154.985 171.661 154.998 171.258 155.173C171.678 154.354 171.671 153.51 171.234 153.024C171.055 152.827 170.819 152.691 170.558 152.635C169.33 152.345 167.958 153.734 167.566 154.119C165.984 155.684 162.879 158.19 158.357 161.655C158.357 161.655 164.825 156.8 162.907 154.35C162.33 153.619 161.245 154.074 160.611 154.434C159.442 155.106 158.711 156.289 157.731 157.164C156.457 158.248 154.954 159.031 153.335 159.453C150.766 160.178 148.158 160.185 145.684 161.27C144.561 161.756 143.503 162.381 142.534 163.128C141.4 164.014 140.717 165.253 139.685 166.18L123.753 180.457L129.325 204.306Z" fill="white"/>
<path d="M129.003 205.993L122.962 180.208L136.713 167.888C138.225 166.534 138.887 165.942 139.223 165.68L139.202 165.659C139.626 165.256 140.019 164.822 140.378 164.36C140.878 163.7 141.452 163.1 142.089 162.572C143.105 161.789 144.214 161.135 145.39 160.626C146.961 159.926 148.575 159.66 150.139 159.394C151.146 159.241 152.144 159.035 153.128 158.778C154.647 158.385 156.057 157.653 157.251 156.636C157.592 156.319 157.916 155.985 158.221 155.635C158.792 154.924 159.477 154.313 160.247 153.825C162.193 152.712 163.131 153.514 163.443 153.913C163.649 154.173 163.799 154.474 163.883 154.796C163.967 155.118 163.983 155.453 163.929 155.782C163.895 156.035 163.834 156.283 163.747 156.524C165.256 155.288 166.348 154.336 167.076 153.619C167.604 153.094 169.137 151.578 170.719 151.949C171.123 152.038 171.49 152.249 171.769 152.555C171.972 152.801 172.12 153.087 172.203 153.395C172.287 153.703 172.303 154.025 172.252 154.34C172.643 154.397 173.014 154.546 173.335 154.776C173.656 155.005 173.917 155.308 174.097 155.659C174.758 156.919 174.139 157.962 173.645 158.809C173.493 159.065 173.326 159.311 173.145 159.548C173.362 160.165 173.436 160.823 173.362 161.473C173.298 162.006 173.133 162.523 172.875 162.995C170.243 168.319 165.305 172.372 158.602 174.699C155.682 175.714 152.644 176.353 149.562 176.6L129.003 205.993ZM124.516 180.698L129.65 202.619L148.799 175.221H149.149C149.313 175.221 165.623 174.479 171.626 162.355C171.846 161.954 171.968 161.506 171.981 161.049C171.994 160.592 171.897 160.138 171.699 159.726L171.51 159.317L171.804 158.967C172.039 158.693 172.249 158.399 172.431 158.088C172.931 157.248 173.131 156.828 172.851 156.317C172.744 156.082 172.55 155.898 172.31 155.803C172.07 155.707 171.802 155.709 171.563 155.806L169.694 156.699L170.639 154.854C170.915 154.312 170.947 153.748 170.716 153.486C170.631 153.398 170.521 153.338 170.401 153.314C170.023 153.227 169.316 153.377 168.087 154.592L168.063 154.616C166.565 156.1 163.768 158.382 159.005 162.05L158.777 162.225L157.93 161.109L158.147 160.944C159.467 159.912 162.312 157.364 162.54 155.614C162.568 155.47 162.564 155.323 162.531 155.181C162.497 155.039 162.433 154.906 162.344 154.791C162.064 154.441 161.129 154.949 160.944 155.054C160.306 155.472 159.738 155.988 159.26 156.583C158.922 156.974 158.562 157.345 158.182 157.696C156.832 158.858 155.234 159.696 153.51 160.146C152.473 160.422 151.421 160.64 150.36 160.801C148.813 161.063 147.353 161.312 145.939 161.931C144.869 162.394 143.86 162.989 142.936 163.702C142.382 164.167 141.882 164.693 141.445 165.27C141.044 165.787 140.602 166.273 140.126 166.723L124.516 180.698Z" fill="black"/>
<path d="M172.2 159.576C172.2 159.576 168.245 165.498 164.423 167.335L172.2 159.576Z" fill="white"/>
<path d="M164.728 167.965L164.119 166.702C167.727 164.952 171.577 159.243 171.616 159.187L172.781 159.964C172.617 160.213 168.676 166.068 164.728 167.965Z" fill="black"/>
<path d="M171.259 155.169C171.259 155.169 165.757 162.519 162.285 163.937L171.259 155.169Z" fill="white"/>
<path d="M162.554 164.584L162.019 163.289C165.274 161.952 170.646 154.823 170.699 154.753L171.819 155.589C171.588 155.897 166.159 163.1 162.554 164.584Z" fill="black"/>
<path d="M92.2528 126L100.002 125.195C103.534 124.828 106.776 123.073 109.014 120.317C111.253 117.56 112.305 114.027 111.94 110.495L111.191 103.31C111.03 101.754 110.565 100.245 109.82 98.8695C109.076 97.4939 108.068 96.2786 106.853 95.293C105.639 94.3074 104.242 93.5709 102.743 93.1255C101.243 92.6802 99.6708 92.5348 98.1153 92.6977L92.0883 93.3242C87.7277 93.7787 83.726 95.9458 80.9624 99.3493C78.1988 102.753 76.8994 107.114 77.3498 111.475L77.6263 114.128C77.9916 117.642 79.7379 120.867 82.4808 123.093C85.2238 125.32 88.7389 126.365 92.2528 126Z" fill="black"/>
<path d="M83.6218 116.711C83.4265 115.523 83.7102 114.305 84.4109 113.326C85.1116 112.346 86.172 111.685 87.3598 111.486C87.5707 111.453 87.7835 111.434 87.9968 111.43L86.9048 99.5051L103.95 98.5251C105.703 98.4259 107.431 98.9788 108.801 100.077C110.171 101.176 111.086 102.742 111.37 104.475L111.72 106.575C112.059 108.63 112.959 110.551 114.32 112.126C114.611 112.45 114.768 112.872 114.76 113.307C114.752 113.742 114.58 114.158 114.278 114.471L113.204 115.574L113.939 120.015C114.085 120.898 114.038 121.801 113.802 122.664C113.566 123.527 113.145 124.328 112.57 125.013C111.995 125.698 111.278 126.251 110.469 126.632C109.66 127.014 108.778 127.216 107.884 127.225L103.47 127.267L103.82 134.771L89.8553 135.426C89.6476 132.819 89.4423 130.212 89.2393 127.603C89.0923 125.223 88.9465 122.843 88.8018 120.463C87.6184 120.645 86.411 120.353 85.4413 119.651C84.4716 118.948 83.8179 117.892 83.6218 116.711Z" fill="white"/>
<path d="M89.2288 136.15L88.5498 127.645L88.1578 121.209H88.0948C86.8581 121.201 85.6638 120.757 84.7225 119.954C83.7813 119.152 83.1535 118.043 82.9498 116.823C82.7249 115.454 83.0511 114.051 83.8571 112.922C84.6631 111.793 85.8834 111.028 87.2513 110.796L86.1558 98.8471L103.936 97.8251C105.86 97.7138 107.757 98.3183 109.262 99.5221C110.767 100.726 111.773 102.444 112.087 104.346L112.437 106.446C112.757 108.375 113.605 110.177 114.887 111.654C115.297 112.11 115.519 112.705 115.507 113.318C115.495 113.931 115.251 114.517 114.824 114.958L113.995 115.805L114.674 119.896C114.837 120.878 114.786 121.884 114.523 122.845C114.261 123.805 113.793 124.698 113.153 125.46C112.513 126.223 111.715 126.838 110.814 127.263C109.914 127.688 108.932 127.912 107.936 127.922L104.251 127.957L104.601 135.436L89.2288 136.15ZM89.4738 119.641L89.9568 127.551L90.5203 134.687L103.12 134.099L102.77 126.567L107.908 126.518C108.702 126.511 109.485 126.332 110.203 125.994C110.921 125.656 111.557 125.166 112.067 124.558C112.578 123.95 112.951 123.239 113.16 122.474C113.37 121.708 113.411 120.907 113.281 120.124L112.486 115.332L113.809 113.978C113.987 113.788 114.085 113.537 114.085 113.278C114.085 113.018 113.987 112.768 113.809 112.578C112.359 110.902 111.399 108.859 111.034 106.673L110.684 104.573C110.428 103.012 109.602 101.602 108.367 100.614C107.132 99.6264 105.574 99.1315 103.995 99.2251L87.6643 100.163L88.7598 112.112L88.0108 112.13C87.8304 112.134 87.6504 112.149 87.4718 112.175C86.5177 112.393 85.6826 112.967 85.1363 113.779C84.59 114.591 84.3735 115.581 84.5309 116.547C84.6883 117.513 85.2077 118.383 85.9835 118.98C86.7593 119.576 87.7333 119.855 88.7073 119.76L89.4738 119.641Z" fill="black"/>
<path d="M105.091 112.564C105.7 112.564 106.193 112.07 106.193 111.461C106.193 110.852 105.7 110.359 105.091 110.359C104.482 110.359 103.988 110.852 103.988 111.461C103.988 112.07 104.482 112.564 105.091 112.564Z" fill="black"/>
<path d="M88.8544 118.545C88.4801 118.544 88.1138 118.436 87.7989 118.234C87.4839 118.031 87.2333 117.743 87.0767 117.403C86.92 117.063 86.8638 116.686 86.9147 116.315C86.9656 115.944 87.1214 115.595 87.3639 115.31C87.6063 115.025 87.9252 114.815 88.283 114.705C88.6408 114.595 89.0226 114.589 89.3834 114.689C89.7442 114.789 90.069 114.99 90.3194 115.268C90.5698 115.546 90.7355 115.89 90.7969 116.26C90.8399 116.514 90.8321 116.775 90.774 117.026C90.7159 117.278 90.6086 117.515 90.4583 117.725C90.308 117.935 90.1177 118.113 89.8983 118.249C89.6789 118.385 89.4347 118.476 89.1799 118.517C89.0726 118.537 88.9635 118.546 88.8544 118.545ZM88.8544 116.018C88.823 116.015 88.7913 116.015 88.7599 116.018C88.6868 116.03 88.6168 116.056 88.5538 116.095C88.4908 116.134 88.4362 116.185 88.3929 116.245C88.3497 116.305 88.3187 116.374 88.3018 116.446C88.2849 116.518 88.2824 116.593 88.2944 116.666C88.3245 116.807 88.407 116.932 88.5254 117.016C88.5855 117.059 88.6535 117.09 88.7256 117.107C88.7977 117.123 88.8724 117.126 88.9454 117.114C89.0924 117.089 89.2236 117.007 89.3101 116.885C89.3967 116.764 89.4317 116.613 89.4074 116.466C89.3959 116.393 89.3699 116.322 89.3308 116.259C89.2917 116.196 89.2404 116.142 89.1799 116.099C89.0845 116.04 88.9733 116.012 88.8614 116.018H88.8544Z" fill="black"/>
<path d="M102.627 134.204C100.8 133.812 100.289 134.096 92.1269 133.721L81.6269 133.238C78.5183 133.289 75.5108 134.35 73.0589 136.262C67.9664 140.312 67.7494 146.447 67.7319 147.343C68.2569 160.41 68.7831 173.476 69.3104 186.543L116.109 186.858C117.026 184.73 118.314 181.678 119.784 177.982C123.448 168.781 125.282 164.119 125.24 161.182C125.142 154.312 120.897 149.282 116.949 144.603C113.701 140.735 109.413 135.66 102.627 134.204Z" fill="#2A29C2"/>
<path d="M90.1566 117.317H90.1321C90.0401 117.313 89.9497 117.292 89.866 117.254C89.7823 117.216 89.7069 117.162 89.6442 117.094C89.5814 117.027 89.5326 116.948 89.5004 116.862C89.4682 116.776 89.4533 116.684 89.4566 116.592C89.4679 116.269 89.3943 115.949 89.2432 115.664C89.0921 115.378 88.8688 115.137 88.5956 114.965C88.3317 114.813 88.036 114.725 87.7322 114.708C87.4284 114.691 87.1248 114.746 86.8456 114.867C86.6771 114.945 86.4844 114.953 86.3098 114.89C86.1352 114.826 85.993 114.696 85.9146 114.527C85.8362 114.359 85.8279 114.166 85.8915 113.991C85.9552 113.817 86.0856 113.675 86.2541 113.596C86.7443 113.377 87.2799 113.279 87.8158 113.311C88.3517 113.342 88.8724 113.501 89.3341 113.775C89.8159 114.078 90.2096 114.502 90.4756 115.005C90.7416 115.508 90.8706 116.072 90.8496 116.641C90.8433 116.821 90.7677 116.992 90.6386 117.118C90.5095 117.244 90.3369 117.315 90.1566 117.317Z" fill="black"/>
<path d="M104.695 98.5076C104.695 98.5076 107.369 113.18 87.9689 112.105L86.9434 99.5051L104.695 98.5076Z" fill="black"/>
<path d="M103.285 126.564C103.348 127.964 103.413 129.364 103.481 130.764L95.4871 127.204C95.4308 127.18 95.3843 127.138 95.3557 127.084C95.327 127.03 95.3179 126.967 95.3298 126.907C95.3417 126.847 95.374 126.793 95.4211 126.754C95.4683 126.715 95.5274 126.694 95.5886 126.693L103.285 126.564Z" fill="black"/>
<path d="M106.257 121.919C105.395 121.893 104.558 121.625 103.841 121.147C103.124 120.669 102.555 119.999 102.2 119.214C102.125 119.05 102.088 118.871 102.092 118.69C102.096 118.51 102.141 118.332 102.223 118.172C102.306 118.011 102.424 117.872 102.568 117.764C102.713 117.655 102.88 117.582 103.058 117.548L108.658 116.48C108.828 116.451 109.002 116.459 109.169 116.503C109.336 116.548 109.491 116.628 109.624 116.738C109.757 116.848 109.865 116.985 109.939 117.141C110.014 117.296 110.055 117.466 110.058 117.639C110.079 119.389 109.134 121.002 107.706 121.625C107.248 121.822 106.755 121.922 106.257 121.919ZM103.6 118.871C104.409 120.313 106.075 120.813 107.153 120.341C108.01 119.97 108.595 119.007 108.658 117.891L103.6 118.871Z" fill="black"/>
<path d="M137.161 172.06H109.616C106.877 172.06 104.657 174.281 104.657 177.02V204.565C104.657 207.304 106.877 209.524 109.616 209.524H137.161C139.9 209.524 142.121 207.304 142.121 204.565V177.02C142.121 174.281 139.9 172.06 137.161 172.06Z" fill="#3D3BFF"/>
<path d="M123.389 209.433C123.203 209.433 123.025 209.359 122.894 209.228C122.763 209.097 122.689 208.919 122.689 208.733V172.9C122.689 172.714 122.763 172.536 122.894 172.405C123.025 172.274 123.203 172.2 123.389 172.2C123.575 172.2 123.753 172.274 123.884 172.405C124.015 172.536 124.089 172.714 124.089 172.9V208.733C124.089 208.919 124.015 209.097 123.884 209.228C123.753 209.359 123.575 209.433 123.389 209.433Z" fill="white"/>
<path d="M104.333 130.368L88.8462 131.191L89.1456 136.828L104.632 136.006L104.333 130.368Z" fill="#2A29C2"/>
<path d="M78.8865 111.65C78.8865 111.65 66.5035 109.347 55.0865 116.624C49.922 119.9 45.9391 124.74 43.7185 130.438C42.6685 133.123 41.951 136.245 42.343 139.265C43.1935 145.863 50.0115 149.954 56.0665 147.207C59.85 145.492 64.1375 141.05 67.865 130.9C67.865 130.9 71.5575 120.05 80.024 119.35L78.8865 111.65Z" fill="black"/>
<path d="M129.968 149.389L95.474 166.956C94.5593 167.422 94.1955 168.541 94.6613 169.456L96.5515 173.167C97.0174 174.082 98.1364 174.446 99.0511 173.98L133.545 156.412C134.46 155.946 134.823 154.827 134.358 153.913L132.467 150.201C132.002 149.287 130.883 148.923 129.968 149.389Z" fill="#3D3BFF"/>
<path d="M115.286 165.718L108.5 169.4C107.266 170.078 105.95 170.592 104.583 170.93C102.28 171.486 99.3334 171.63 98.6999 169.033C98.6999 169.033 96.8519 165.767 105.864 162.274C106.091 162.152 106.272 161.959 106.378 161.725C106.485 161.49 106.511 161.227 106.452 160.976C106.394 160.725 106.255 160.5 106.057 160.337C105.858 160.173 105.611 160.079 105.353 160.069C104.266 160.052 103.18 160.148 102.112 160.356C101.019 160.65 99.9532 161.039 98.9274 161.518C95.8356 162.994 93.1612 165.218 91.1469 167.99C90.4146 168.982 89.4807 169.809 88.4064 170.415L78.3754 176.05C82.4109 162.131 85.3264 151.841 86.4534 147.963C86.8478 146.648 87.0217 145.277 86.9679 143.906C86.9399 143.287 86.7964 139.979 84.8679 137.631C82.5754 134.848 78.1269 133.854 74.8754 134.75C69.4294 136.255 67.1964 143.112 62.9194 156.258C60.6234 163.307 59.1044 170.338 58.4254 173.467C57.3439 178.469 56.2939 183.232 57.5189 188.318C58.3099 191.601 59.9199 194.852 62.8424 196.718C64.1241 197.523 65.5612 198.049 67.0599 198.261C68.8095 198.51 70.5912 198.403 72.2989 197.949C74.0066 197.494 75.6053 196.701 76.9999 195.615L91.6509 184.415C93.6724 182.869 95.9609 181.707 98.4024 180.989L102.13 179.9C104.757 179.126 107.11 177.622 108.916 175.564L116.364 167.076C116.499 166.932 116.581 166.747 116.599 166.55C116.617 166.354 116.569 166.157 116.462 165.991C116.335 165.808 116.144 165.678 115.927 165.628C115.71 165.578 115.481 165.61 115.286 165.718Z" fill="white"/>
<path d="M68.8942 199.105C68.2439 199.105 67.5945 199.056 66.9517 198.958C65.3552 198.731 63.8248 198.17 62.4612 197.309C59.0417 195.115 57.5122 191.293 56.8332 188.475C55.5837 183.278 56.6162 178.504 57.7082 173.446L57.7397 173.313C58.9538 167.482 60.4595 161.715 62.2512 156.034C66.6612 142.478 68.8767 135.674 74.6867 134.071C77.9067 133.179 82.7577 133.966 85.4037 137.179C87.2132 139.377 87.5982 142.314 87.6682 143.868C87.7298 145.314 87.5464 146.76 87.1257 148.145C86.7092 149.583 86.0477 151.89 85.1797 154.931C83.7587 159.884 81.8512 166.555 79.5237 174.594L88.0567 169.792C89.0454 169.235 89.9044 168.474 90.5767 167.559C92.6552 164.688 95.4238 162.386 98.6267 160.867C99.6899 160.372 100.794 159.97 101.927 159.667H101.987C103.104 159.449 104.24 159.349 105.378 159.369C105.79 159.383 106.186 159.533 106.504 159.795C106.822 160.057 107.044 160.417 107.136 160.819C107.228 161.22 107.185 161.641 107.014 162.016C106.842 162.391 106.551 162.698 106.187 162.89L106.113 162.925C101.08 164.85 99.7502 166.663 99.3792 167.563C99.2931 167.737 99.2429 167.927 99.2315 168.121C99.2201 168.315 99.2477 168.51 99.3127 168.693L99.3582 168.777V168.858C99.7537 170.485 101.458 170.958 104.398 170.237C105.707 169.912 106.968 169.419 108.15 168.77L114.944 165.102C115.272 164.91 115.658 164.843 116.032 164.914C116.406 164.984 116.741 165.187 116.976 165.486C117.212 165.785 117.331 166.158 117.313 166.538C117.294 166.918 117.139 167.278 116.876 167.552L109.445 176.022C107.55 178.182 105.082 179.759 102.326 180.572L98.5917 181.675C96.2268 182.368 94.0095 183.491 92.0502 184.986L77.4027 196.186C74.9605 198.06 71.9727 199.085 68.8942 199.105ZM77.3502 135.128C76.5788 135.123 75.8101 135.22 75.0647 135.419C69.9827 136.819 67.8442 143.388 63.5882 156.468C61.8115 162.106 60.3187 167.83 59.1152 173.618L59.0837 173.747C58.0337 178.647 57.0257 183.267 58.2017 188.153C58.8212 190.722 60.1967 194.194 63.2242 196.137C64.4222 196.892 65.7665 197.384 67.1687 197.582C68.8249 197.812 70.5103 197.707 72.1255 197.275C73.7407 196.843 75.253 196.092 76.5732 195.066L91.2207 183.866C93.311 182.266 95.678 181.066 98.2032 180.324L101.938 179.221C104.439 178.484 106.68 177.052 108.399 175.091L115.85 166.6C115.881 166.57 115.902 166.531 115.91 166.488C115.917 166.445 115.911 166.401 115.892 166.362C115.86 166.326 115.817 166.303 115.77 166.296C115.722 166.289 115.674 166.299 115.633 166.324L108.84 169.992C107.552 170.697 106.179 171.233 104.755 171.588C99.7887 172.785 98.4167 170.674 98.0457 169.246C97.7732 168.573 97.7732 167.82 98.0457 167.146C98.7667 165.134 101.297 163.268 105.567 161.606C105.653 161.558 105.721 161.483 105.759 161.392C105.797 161.301 105.804 161.2 105.777 161.105C105.757 161.001 105.702 160.907 105.62 160.84C105.538 160.773 105.435 160.737 105.329 160.738C104.302 160.724 103.275 160.815 102.267 161.011C101.222 161.291 100.205 161.663 99.2252 162.12C96.2284 163.543 93.6399 165.701 91.7002 168.392C90.9091 169.464 89.9015 170.357 88.7427 171.014L77.2207 177.496L77.6967 175.851C80.2412 167.073 82.3167 159.831 83.8287 154.546C84.7002 151.501 85.3617 149.191 85.7782 147.76C86.1518 146.518 86.3162 145.223 86.2647 143.927C86.2052 142.548 85.8727 139.951 84.3187 138.068C82.6702 136.063 79.8492 135.128 77.3502 135.128Z" fill="black"/>
<path d="M70.4691 180.999C70.3105 181.005 70.1547 180.956 70.0273 180.862C69.8998 180.767 69.8082 180.632 69.7675 180.479C69.7269 180.326 69.7395 180.163 69.8034 180.018C69.8672 179.873 69.9785 179.753 70.1191 179.68L78.0501 175.427C78.2139 175.339 78.4059 175.32 78.5838 175.374C78.7616 175.428 78.9109 175.55 78.9986 175.714C79.0863 175.878 79.1053 176.07 79.0515 176.248C78.9977 176.426 78.8754 176.575 78.7116 176.663L70.7981 180.915C70.697 180.97 70.584 180.999 70.4691 180.999Z" fill="black"/>
<path d="M176.712 62.1707C174.988 62.1707 173.303 61.6596 171.87 60.702C170.437 59.7443 169.32 58.3832 168.66 56.7908C168 55.1983 167.828 53.446 168.164 51.7555C168.5 50.0649 169.33 48.5121 170.549 47.2933C171.768 46.0744 173.321 45.2444 175.011 44.9082C176.702 44.5719 178.454 44.7445 180.047 45.4041C181.639 46.0637 183 47.1807 183.958 48.6139C184.915 50.0471 185.427 51.732 185.427 53.4557C185.424 55.7662 184.505 57.9813 182.871 59.6151C181.237 61.2488 179.022 62.1679 176.712 62.1707ZM176.712 46.1407C175.265 46.1407 173.851 46.5697 172.648 47.3735C171.445 48.1773 170.507 49.3197 169.953 50.6564C169.4 51.993 169.255 53.4638 169.537 54.8828C169.819 56.3018 170.516 57.6052 171.539 58.6282C172.562 59.6512 173.866 60.3479 175.285 60.6301C176.703 60.9124 178.174 60.7675 179.511 60.2139C180.848 59.6602 181.99 58.7226 182.794 57.5197C183.598 56.3167 184.027 54.9025 184.027 53.4557C184.025 51.5162 183.253 49.6567 181.882 48.2853C180.511 46.9138 178.651 46.1426 176.712 46.1407Z" fill="white"/>
<path d="M179 26.1101C179 24.844 177.975 23.8176 176.71 23.8176C175.445 23.8176 174.419 24.844 174.419 26.1101V41.4471C174.419 42.7132 175.445 43.7396 176.71 43.7396C177.975 43.7396 179 42.7132 179 41.4471V26.1101Z" fill="black"/>
<path d="M176.347 38.1816C171.053 38.2597 165.878 39.7638 161.367 42.5356C156.856 45.3073 153.175 49.2442 150.713 53.9316C150.63 54.0914 150.589 54.2701 150.594 54.4503C150.6 54.6306 150.652 54.8063 150.745 54.9607C150.838 55.1151 150.969 55.2429 151.126 55.3318C151.283 55.4206 151.46 55.4676 151.641 55.4681H201.782C201.963 55.4679 202.14 55.421 202.298 55.332C202.455 55.2429 202.587 55.1147 202.68 54.9598C202.773 54.8049 202.825 54.6286 202.83 54.4478C202.835 54.267 202.794 54.088 202.709 53.9281C200.187 49.1338 196.392 45.1275 191.742 42.3495C187.091 39.5716 181.764 38.1294 176.347 38.1816Z" fill="#3D3BFF"/>
<path d="M161.312 50.8761C157.945 50.8761 155.204 48.6081 155.162 48.5731C155.02 48.4534 154.931 48.2821 154.916 48.097C154.9 47.9119 154.958 47.7282 155.078 47.5862C155.198 47.4441 155.369 47.3555 155.554 47.3397C155.739 47.324 155.923 47.3824 156.065 47.5021C156.282 47.6806 161.35 51.8526 165.659 47.5441L166.082 47.1171L166.569 47.4671C167.665 48.2129 168.877 48.7723 170.156 49.1227C172.781 49.8227 174.993 49.2802 176.74 47.5372L177.153 47.1241L177.632 47.4531C177.842 47.6001 182.882 50.9812 186.326 47.5372L186.76 47.1031L187.247 47.4741C188.281 48.2107 189.434 48.7636 190.656 49.1086C193.158 49.7911 195.3 49.2592 197.026 47.5372C197.089 47.4668 197.166 47.41 197.252 47.3704C197.339 47.3307 197.432 47.309 197.527 47.3065C197.621 47.304 197.716 47.3208 197.804 47.3558C197.892 47.3909 197.972 47.4435 198.039 47.5104C198.106 47.5773 198.159 47.6572 198.195 47.7452C198.23 47.8332 198.247 47.9274 198.245 48.0222C198.243 48.117 198.221 48.2104 198.182 48.2967C198.143 48.383 198.086 48.4604 198.016 48.5241C193.816 52.7451 188.503 49.9487 186.886 48.9197C183.736 51.5832 179.536 50.2427 177.314 48.9197C173.114 52.6157 167.864 49.9137 166.233 48.9197C164.899 50.1715 163.14 50.8708 161.312 50.8761Z" fill="white"/>
<path d="M138.548 122.724C138.34 122.723 138.134 122.692 137.935 122.633C137.594 122.528 137.285 122.337 137.04 122.078C136.794 121.818 136.621 121.499 136.535 121.153L133 107.188C132.911 106.831 132.918 106.456 133.02 106.103C133.123 105.749 133.317 105.429 133.584 105.175C133.85 104.921 134.179 104.742 134.537 104.657C134.895 104.571 135.269 104.582 135.622 104.689L149.839 109.001C150.191 109.108 150.509 109.306 150.76 109.576C151.01 109.847 151.185 110.178 151.265 110.538C151.345 110.898 151.328 111.272 151.216 111.623C151.104 111.974 150.9 112.289 150.626 112.536L139.934 122.185C139.555 122.532 139.061 122.724 138.548 122.724ZM135.006 105.998C134.834 106.002 134.669 106.069 134.544 106.187C134.455 106.269 134.391 106.374 134.358 106.489C134.325 106.605 134.324 106.728 134.355 106.845L137.9 120.806C137.927 120.921 137.984 121.026 138.065 121.112C138.147 121.197 138.249 121.26 138.362 121.293C138.474 121.328 138.593 121.334 138.708 121.308C138.822 121.282 138.928 121.226 139.013 121.146L149.702 111.496C149.792 111.416 149.858 111.313 149.895 111.198C149.932 111.084 149.938 110.962 149.912 110.844C149.886 110.726 149.829 110.618 149.747 110.53C149.666 110.441 149.562 110.376 149.447 110.341L135.226 106.029C135.155 106.005 135.08 105.995 135.006 105.998Z" fill="#FFDEDC"/>
<path d="M153.254 148.068C157.706 148.068 161.315 144.459 161.315 140.007C161.315 135.555 157.706 131.947 153.254 131.947C148.803 131.947 145.194 135.555 145.194 140.007C145.194 144.459 148.803 148.068 153.254 148.068Z" fill="#3D3BFF"/>
<path d="M163.127 102.935L156.956 114.575C155.955 116.463 156.674 118.806 158.563 119.808L170.203 125.978C172.092 126.98 174.435 126.26 175.436 124.371L181.607 112.732C182.608 110.843 181.888 108.5 180 107.499L168.36 101.328C166.471 100.327 164.128 101.046 163.127 102.935Z" fill="white"/>
<path d="M153.255 148.768C153.105 148.767 152.959 148.719 152.838 148.629C152.718 148.54 152.63 148.414 152.586 148.271C150.014 139.755 155.785 135.321 159.198 134.155C159.374 134.096 159.566 134.109 159.732 134.191C159.899 134.273 160.026 134.418 160.085 134.594C160.144 134.77 160.131 134.963 160.049 135.129C159.967 135.295 159.822 135.422 159.646 135.482C159.296 135.604 151.109 138.537 153.927 147.865C153.98 148.042 153.961 148.234 153.873 148.397C153.785 148.561 153.635 148.683 153.458 148.736C153.392 148.757 153.324 148.767 153.255 148.768Z" fill="white"/>
<path d="M146.65 145.303C146.514 145.302 146.38 145.262 146.267 145.187C146.153 145.111 146.064 145.005 146.01 144.879C145.956 144.754 145.94 144.616 145.963 144.481C145.987 144.347 146.049 144.222 146.143 144.123C147.483 142.723 148.131 141.26 148.068 139.797C147.97 137.54 146.206 135.947 146.188 135.947C146.115 135.888 146.054 135.814 146.009 135.731C145.965 135.647 145.938 135.556 145.93 135.462C145.922 135.368 145.933 135.273 145.962 135.183C145.992 135.093 146.039 135.01 146.102 134.939C146.164 134.869 146.24 134.811 146.326 134.77C146.411 134.73 146.503 134.706 146.598 134.703C146.692 134.699 146.787 134.714 146.875 134.747C146.963 134.781 147.044 134.832 147.112 134.897C147.203 134.974 149.335 136.871 149.464 139.731C149.548 141.593 148.764 143.399 147.158 145.096C147.091 145.163 147.012 145.216 146.925 145.251C146.838 145.287 146.744 145.304 146.65 145.303Z" fill="white"/>
<path d="M292.436 256.501H250.016C248.462 256.501 247.202 257.761 247.202 259.315V265.37C247.202 266.924 248.462 268.184 250.016 268.184H292.436C293.99 268.184 295.25 266.924 295.25 265.37V259.315C295.25 257.761 293.99 256.501 292.436 256.501Z" fill="#3D3BFF"/>
<path d="M250.057 268.377C249.949 268.376 249.841 268.35 249.744 268.301C249.647 268.252 249.562 268.181 249.497 268.093C249.442 268.02 249.402 267.936 249.379 267.847C249.357 267.758 249.352 267.665 249.365 267.574C249.378 267.483 249.408 267.396 249.455 267.316C249.502 267.237 249.564 267.168 249.637 267.113L256.046 262.332L249.63 257.376C249.483 257.263 249.387 257.096 249.363 256.912C249.339 256.728 249.389 256.542 249.503 256.394C249.616 256.247 249.783 256.151 249.967 256.127C250.151 256.103 250.337 256.153 250.484 256.267L258.359 262.353L250.477 268.237C250.356 268.328 250.209 268.377 250.057 268.377Z" fill="white"/>
<path d="M294.623 263.043H257.201C257.015 263.043 256.837 262.969 256.706 262.838C256.575 262.706 256.501 262.528 256.501 262.343C256.501 262.157 256.575 261.979 256.706 261.848C256.837 261.716 257.015 261.643 257.201 261.643H294.623C294.809 261.643 294.987 261.716 295.118 261.848C295.249 261.979 295.323 262.157 295.323 262.343C295.323 262.528 295.249 262.706 295.118 262.838C294.987 262.969 294.809 263.043 294.623 263.043Z" fill="white"/>
<path d="M298.025 268.209H242.361C239.852 268.209 237.818 270.243 237.818 272.752V301.403C237.818 303.912 239.852 305.946 242.361 305.946H298.025C300.534 305.946 302.568 303.912 302.568 301.403V272.752C302.568 270.243 300.534 268.209 298.025 268.209Z" fill="#FFDEDC"/>
<path d="M290.612 305.844C290.426 305.844 290.248 305.77 290.117 305.639C289.986 305.508 289.912 305.33 289.912 305.144V285.772C289.912 285.586 289.986 285.408 290.117 285.277C290.248 285.145 290.426 285.072 290.612 285.072C290.798 285.072 290.976 285.145 291.107 285.277C291.238 285.408 291.312 285.586 291.312 285.772V305.144C291.312 305.33 291.238 305.508 291.107 305.639C290.976 305.77 290.798 305.844 290.612 305.844Z" fill="black"/>
<path d="M252.623 273.994H243.177C242.121 273.994 241.266 274.85 241.266 275.905V280.728C241.266 281.784 242.121 282.639 243.177 282.639H252.623C253.679 282.639 254.534 281.784 254.534 280.728V275.905C254.534 274.85 253.679 273.994 252.623 273.994Z" fill="white"/>
<path d="M253.05 286.955H242.354C242.168 286.955 241.99 286.881 241.859 286.75C241.728 286.618 241.654 286.44 241.654 286.255C241.654 286.069 241.728 285.891 241.859 285.76C241.99 285.628 242.168 285.555 242.354 285.555H253.05C253.235 285.555 253.413 285.628 253.545 285.76C253.676 285.891 253.75 286.069 253.75 286.255C253.75 286.44 253.676 286.618 253.545 286.75C253.413 286.881 253.235 286.955 253.05 286.955Z" fill="black"/>
<path d="M250.222 290.224H242.354C242.168 290.224 241.99 290.15 241.859 290.019C241.728 289.887 241.654 289.709 241.654 289.524C241.654 289.338 241.728 289.16 241.859 289.029C241.99 288.897 242.168 288.824 242.354 288.824H250.222C250.407 288.824 250.586 288.897 250.717 289.029C250.848 289.16 250.922 289.338 250.922 289.524C250.922 289.709 250.848 289.887 250.717 290.019C250.586 290.15 250.407 290.224 250.222 290.224Z" fill="black"/>
<path d="M290.549 286.472C289.905 286.472 289.271 286.317 288.701 286.018C288.131 285.719 287.642 285.286 287.277 284.757L276.724 270.55C276.669 270.476 276.629 270.392 276.607 270.303C276.584 270.214 276.58 270.121 276.593 270.03C276.606 269.939 276.637 269.852 276.684 269.773C276.732 269.694 276.794 269.625 276.868 269.57C276.941 269.515 277.025 269.475 277.114 269.453C277.204 269.43 277.296 269.426 277.387 269.439C277.478 269.452 277.566 269.483 277.645 269.53C277.724 269.578 277.793 269.64 277.848 269.714L288.4 283.941C288.643 284.299 288.972 284.591 289.357 284.789C289.743 284.986 290.171 285.084 290.604 285.073C291.037 285.062 291.46 284.942 291.835 284.725C292.209 284.507 292.523 284.199 292.747 283.829L300.521 269.829C300.611 269.667 300.761 269.547 300.94 269.495C301.119 269.444 301.31 269.466 301.473 269.556C301.635 269.646 301.755 269.797 301.806 269.976C301.857 270.154 301.836 270.346 301.746 270.508L293.958 284.508C293.615 285.082 293.133 285.561 292.556 285.9C291.979 286.239 291.326 286.427 290.658 286.447L290.549 286.472Z" fill="black"/>
<path d="M275.968 306.194C275.782 306.194 275.604 306.12 275.473 305.989C275.342 305.858 275.268 305.68 275.268 305.494V273.994C275.114 268.996 278.418 267.932 278.575 267.89C278.75 267.846 278.934 267.871 279.091 267.959C279.247 268.047 279.364 268.192 279.417 268.364C279.469 268.535 279.454 268.721 279.373 268.882C279.293 269.042 279.154 269.166 278.985 269.227C278.869 269.266 276.535 270.081 276.668 273.973V305.494C276.668 305.68 276.594 305.858 276.463 305.989C276.332 306.12 276.154 306.194 275.968 306.194Z" fill="black"/>
<path d="M93.7441 136.787C93.5209 136.787 93.3059 136.702 93.1432 136.55C92.9806 136.397 92.8825 136.187 92.8691 135.965L92.6206 131.656C92.6139 131.541 92.63 131.426 92.6678 131.317C92.7056 131.209 92.7645 131.108 92.841 131.022C92.9175 130.936 93.0103 130.866 93.1139 130.816C93.2175 130.766 93.3299 130.737 93.4449 130.73C93.5598 130.724 93.6749 130.74 93.7836 130.777C93.8923 130.815 93.9925 130.874 94.0784 130.951C94.1644 131.027 94.2345 131.12 94.2846 131.224C94.3347 131.327 94.3639 131.44 94.3706 131.555L94.6226 135.863C94.6292 135.978 94.6131 136.093 94.5751 136.202C94.5372 136.311 94.4781 136.411 94.4014 136.496C94.3247 136.582 94.2317 136.652 94.128 136.702C94.0242 136.752 93.9116 136.781 93.7966 136.787H93.7441Z" fill="black"/>
<path d="M99.2913 136.5C99.0687 136.5 98.8546 136.414 98.6927 136.261C98.5307 136.109 98.4332 135.9 98.4198 135.678L98.1713 131.366C98.1583 131.134 98.238 130.906 98.3929 130.733C98.5478 130.559 98.7652 130.455 98.9973 130.442C99.2294 130.429 99.4571 130.508 99.6304 130.663C99.8037 130.818 99.9083 131.036 99.9213 131.268L100.17 135.576C100.183 135.808 100.104 136.035 99.9498 136.208C99.7956 136.382 99.5789 136.487 99.3473 136.5H99.2913Z" fill="black"/>
</svg>
